<svg width="278" height="277" viewBox="0 0 278 277" fill="none" xmlns="http://www.w3.org/2000/svg">
<path d="M132.854 221.506L121.868 215.157V210.708L121.641 210.575V207.334L132.854 213.811V221.506Z" fill="#74B5CB"/>
<path opacity="0.1" d="M132.854 221.506L121.868 215.157V210.708L121.641 210.575V207.334L132.854 213.811V221.506Z" fill="black"/>
<path opacity="0.15" d="M132.849 217.046L128.644 214.62L121.863 210.708V211.174L132.849 217.512V217.046Z" fill="black"/>
<path d="M132.852 221.506L143.771 215.207V210.742L144.065 210.575V207.334L132.852 213.811V221.506Z" fill="#74B5CB"/>
<path opacity="0.1" d="M143.776 210.742L132.852 217.046V217.512L143.776 211.213V210.742Z" fill="black"/>
<path d="M144.067 207.335L132.854 200.858L121.641 207.335L132.854 213.811L144.067 207.335Z" fill="#74B5CB"/>
<path opacity="0.4" d="M144.067 207.335L132.854 200.858L121.641 207.335L132.854 213.811L144.067 207.335Z" fill="white"/>
<path d="M138.447 218.542C138.373 218.542 138.303 218.513 138.251 218.461C138.199 218.409 138.17 218.339 138.17 218.265V210.725L127.09 204.332C127.026 204.296 126.979 204.236 126.959 204.166C126.94 204.095 126.949 204.019 126.985 203.955C127.025 203.895 127.088 203.853 127.159 203.837C127.23 203.822 127.305 203.834 127.367 203.872L138.58 210.349C138.622 210.373 138.657 210.407 138.681 210.449C138.705 210.491 138.718 210.538 138.718 210.587V218.276C138.716 218.347 138.686 218.414 138.635 218.463C138.585 218.513 138.518 218.541 138.447 218.542Z" fill="#455A64"/>
<path d="M127.152 218.542C127.079 218.542 127.008 218.513 126.956 218.461C126.904 218.409 126.875 218.338 126.875 218.265V210.564C126.875 210.516 126.888 210.468 126.913 210.427C126.937 210.385 126.972 210.35 127.014 210.326L138.226 203.872C138.291 203.837 138.366 203.829 138.436 203.849C138.506 203.868 138.566 203.914 138.603 203.977C138.622 204.008 138.634 204.043 138.639 204.079C138.644 204.115 138.642 204.151 138.633 204.187C138.624 204.222 138.607 204.255 138.585 204.283C138.563 204.312 138.535 204.336 138.503 204.354L127.423 210.747V218.276C127.419 218.346 127.389 218.412 127.339 218.461C127.289 218.51 127.222 218.539 127.152 218.542Z" fill="#455A64"/>
<path d="M128.397 54.9403C128.397 53.8323 126.064 50.946 125.627 50.9571C125.189 50.9681 123.25 53.9099 123.278 55.0622C123.303 55.2861 123.387 55.4992 123.521 55.6802C123.656 55.8611 123.835 56.0034 124.042 56.0926C124.608 56.3645 125.231 56.4982 125.859 56.4828C126.487 56.4674 127.102 56.3033 127.654 56.004C127.859 55.9076 128.034 55.7581 128.162 55.5711C128.29 55.384 128.365 55.1662 128.38 54.9403H128.397Z" fill="#74B5CB"/>
<path opacity="0.1" d="M128.397 54.9403C128.397 53.8323 126.064 50.946 125.627 50.9571C125.189 50.9681 123.25 53.9099 123.278 55.0622C123.303 55.2861 123.387 55.4992 123.521 55.6802C123.656 55.8611 123.835 56.0034 124.042 56.0926C124.608 56.3645 125.231 56.4982 125.859 56.4828C126.487 56.4674 127.102 56.3033 127.654 56.004C127.859 55.9076 128.034 55.7581 128.162 55.5711C128.29 55.384 128.365 55.1662 128.38 54.9403H128.397Z" fill="black"/>
<path d="M140.153 31.2013C140.347 39.467 134.109 50.0373 125.671 52.2533C117.084 50.0373 110.414 40.1872 110.22 31.9215C110.026 23.6559 115.178 15.7946 124.812 15.5675C134.447 15.3403 139.959 22.9357 140.153 31.2013Z" fill="#74B5CB"/>
<path opacity="0.05" d="M110.961 36.2092C110.961 36.2092 113.377 44.0871 123.21 44.5192C132.684 44.907 140.135 34.3423 139.686 27.4727C139.967 28.7058 140.123 29.9643 140.152 31.2288C140.346 39.4945 134.107 50.0648 125.67 52.2808C118.551 50.4138 112.756 43.3281 110.867 36.248L110.961 36.2092Z" fill="black"/>
<path d="M148.889 89.5206C149.161 88.4735 147.731 85.0443 147.321 84.939C146.911 84.8337 144.23 87.155 143.942 88.263C143.906 88.4861 143.93 88.7147 144.011 88.9258C144.091 89.1369 144.226 89.3229 144.402 89.4652C144.873 89.8803 145.436 90.1779 146.045 90.3339C146.653 90.4899 147.29 90.4997 147.903 90.3627C148.126 90.3249 148.335 90.2285 148.508 90.0835C148.681 89.9384 148.813 89.7499 148.889 89.5372V89.5206Z" fill="#74B5CB"/>
<g opacity="0.35">
<path d="M148.889 89.5206C149.161 88.4735 147.731 85.0443 147.321 84.939C146.911 84.8337 144.23 87.155 143.942 88.263C143.906 88.4861 143.93 88.7147 144.011 88.9258C144.091 89.1369 144.226 89.3229 144.402 89.4652C144.873 89.8803 145.436 90.1779 146.045 90.3339C146.653 90.4899 147.29 90.4997 147.903 90.3627C148.126 90.3249 148.335 90.2285 148.508 90.0835C148.681 89.9384 148.813 89.7499 148.889 89.5372V89.5206Z" fill="black"/>
</g>
<path d="M166.65 69.8704C164.594 77.8757 155.714 86.3741 146.999 86.1747C139.327 81.7427 135.593 70.4189 137.648 62.4136C139.703 54.4083 146.789 48.2534 156.129 50.6522C165.47 53.051 168.711 61.8596 166.65 69.8704Z" fill="#74B5CB"/>
<path opacity="0.35" d="M166.65 69.8704C164.594 77.8757 155.714 86.3741 146.999 86.1747C139.327 81.7427 135.593 70.4189 137.648 62.4136C139.703 54.4083 146.789 48.2534 156.129 50.6522C165.47 53.051 168.711 61.8596 166.65 69.8704Z" fill="black"/>
<path opacity="0.1" d="M137.199 66.757C137.199 66.757 137.382 74.995 146.734 78.0586C155.747 81.0059 165.786 72.8566 167.232 66.1255C167.175 67.3894 166.99 68.6443 166.678 69.8705C164.622 77.8758 155.742 86.3742 147.027 86.1748C140.673 82.5017 137.017 74.0975 137.127 66.7847L137.199 66.757Z" fill="black"/>
<path d="M129.402 93.482C129.036 92.4682 125.923 90.435 125.524 90.579C125.125 90.7231 124.206 94.1357 124.593 95.216C124.689 95.4208 124.837 95.5965 125.023 95.725C125.209 95.8535 125.426 95.9302 125.652 95.9473C126.27 96.0251 126.898 95.9557 127.484 95.7449C128.07 95.5341 128.598 95.1877 129.025 94.734C129.189 94.5772 129.308 94.3796 129.371 94.1615C129.433 93.9435 129.436 93.7128 129.38 93.4931L129.402 93.482Z" fill="#74B5CB"/>
<g opacity="0.35">
<path d="M129.402 93.482C129.036 92.4682 125.923 90.435 125.524 90.579C125.125 90.7231 124.206 94.1357 124.593 95.216C124.689 95.4208 124.837 95.5965 125.023 95.725C125.209 95.8535 125.426 95.9302 125.652 95.9473C126.27 96.0251 126.898 95.9557 127.484 95.7449C128.07 95.5341 128.598 95.1877 129.025 94.734C129.189 94.5772 129.308 94.3796 129.371 94.1615C129.433 93.9435 129.436 93.7128 129.38 93.4931L129.402 93.482Z" fill="black"/>
</g>
<path d="M133.032 67.2446C135.835 75.0006 133.27 87.0446 125.958 91.7813C117.094 92.4295 107.676 85.1721 104.861 77.3773C102.047 69.5825 104.451 60.5301 113.526 57.2615C122.6 53.9929 130.229 59.4665 133.032 67.2446Z" fill="#74B5CB"/>
<path opacity="0.35" d="M133.032 67.2446C135.835 75.0006 133.27 87.0446 125.958 91.7813C117.094 92.4295 107.676 85.1721 104.861 77.3773C102.047 69.5825 104.451 60.5301 113.526 57.2615C122.6 53.9929 130.229 59.4665 133.032 67.2446Z" fill="black"/>
<path opacity="0.1" d="M106.935 81.2384C106.935 81.2384 111.716 87.9473 121.172 85.2161C130.28 82.5846 133.998 70.2027 131.399 63.8262C132.054 64.9095 132.602 66.0543 133.034 67.2444C135.837 75.0004 133.272 87.0443 125.959 91.781C118.635 92.335 110.89 87.4266 106.852 81.3049L106.935 81.2384Z" fill="black"/>
<path d="M110.367 111.409C110.968 112.904 111.477 114.434 111.891 115.991C112.203 117.603 112.388 119.236 112.445 120.877C112.784 124.31 113.418 127.708 114.339 131.032C116.096 137.647 118.445 144.079 119.979 150.754C120.751 154.1 121.371 157.476 121.841 160.881C122.062 162.482 122.262 164.084 122.323 165.701C122.383 167.225 122.389 168.748 122.588 170.261C123.015 173.479 124.716 176.405 125.647 179.49C126.151 181.136 126.549 182.813 126.838 184.51C127.104 186.1 127.142 187.695 127.281 189.296C127.387 190.859 127.645 192.409 128.051 193.922C128.461 195.335 128.849 196.742 129.192 198.171C129.829 200.858 130.394 203.639 131.735 206.082C132.058 206.666 132.428 207.222 132.843 207.744C133.004 207.955 133.497 207.794 133.303 207.534C131.602 205.24 130.876 202.37 130.217 199.639C129.868 198.182 129.541 196.72 129.137 195.279C128.697 193.842 128.358 192.376 128.123 190.892C127.907 189.313 127.885 187.723 127.73 186.144C127.549 184.46 127.236 182.793 126.793 181.158C126.372 179.545 125.858 177.958 125.253 176.405C124.597 174.875 124.026 173.31 123.541 171.718C123.198 170.202 123.025 168.652 123.026 167.097C122.976 165.596 122.915 164.117 122.732 162.627C122.317 159.225 121.746 155.835 121.032 152.477C119.602 145.779 117.342 139.331 115.492 132.749C114.521 129.468 113.781 126.123 113.276 122.739C113.043 121.077 113.015 119.442 112.799 117.797C112.608 116.351 112.236 114.934 111.691 113.581C111.387 112.816 111.043 112.074 110.694 111.332C110.622 111.171 110.312 111.16 110.395 111.382L110.367 111.409Z" fill="#E0E0E0"/>
<path d="M110.31 110.761C109.933 111.174 109.656 111.669 109.502 112.207C109.349 112.745 109.322 113.312 109.425 113.862C109.527 114.412 109.756 114.931 110.093 115.377C110.431 115.823 110.867 116.185 111.368 116.434C111.839 116.652 112.356 116.749 112.873 116.717C113.391 116.685 113.892 116.525 114.332 116.252C115.019 115.819 116.116 114.54 115.302 113.753C115.139 113.603 114.934 113.505 114.715 113.473C114.496 113.44 114.272 113.474 114.072 113.57C113.848 113.708 113.664 113.903 113.539 114.134C113.413 114.366 113.351 114.626 113.357 114.889C113.344 115.399 113.508 115.899 113.821 116.303C114.134 116.707 114.577 116.99 115.075 117.105C116.039 117.315 117.291 116.778 117.529 115.753C117.605 115.51 117.592 115.248 117.49 115.015C117.388 114.781 117.205 114.593 116.975 114.484C116.526 114.324 116.183 114.689 116.066 115.094C116.013 115.348 116.014 115.61 116.069 115.864C116.124 116.118 116.231 116.357 116.385 116.566C116.539 116.775 116.735 116.949 116.961 117.078C117.186 117.206 117.437 117.285 117.695 117.31C117.951 117.317 118.206 117.265 118.439 117.158C118.672 117.051 118.877 116.891 119.038 116.692C119.198 116.492 119.311 116.258 119.366 116.008C119.422 115.757 119.419 115.498 119.357 115.249C119.324 115.116 119.108 115.038 119.119 115.249C119.133 115.638 119.005 116.019 118.76 116.322C118.514 116.624 118.167 116.827 117.784 116.894C117.583 116.909 117.382 116.88 117.195 116.808C117.007 116.737 116.837 116.625 116.698 116.481C116.558 116.337 116.452 116.163 116.387 115.973C116.322 115.783 116.299 115.581 116.321 115.382C116.34 115.194 116.422 115.018 116.554 114.883C116.925 114.562 117.185 115.038 117.108 115.382C117.001 115.758 116.77 116.088 116.454 116.318C116.179 116.538 115.839 116.661 115.487 116.667C115.136 116.673 114.792 116.562 114.51 116.351C114.222 116.12 114.02 115.799 113.934 115.44C113.849 115.081 113.886 114.704 114.039 114.368C114.188 114.096 114.593 113.775 114.881 114.013C115.169 114.252 114.881 114.911 114.665 115.171C114.458 115.455 114.195 115.693 113.892 115.87C113.589 116.047 113.252 116.159 112.903 116.2C112.555 116.24 112.201 116.208 111.866 116.106C111.53 116.003 111.219 115.832 110.953 115.603C110.64 115.335 110.385 115.005 110.204 114.634C110.023 114.264 109.92 113.86 109.9 113.448C109.897 112.592 110.16 111.755 110.654 111.055C110.77 110.867 110.482 110.579 110.316 110.75L110.31 110.761Z" fill="#E0E0E0"/>
<path d="M112.658 111.354C112.226 110.329 108.908 108.406 108.503 108.584C108.099 108.761 107.34 112.318 107.8 113.409C107.907 113.612 108.066 113.784 108.26 113.906C108.455 114.029 108.678 114.098 108.908 114.107C109.554 114.156 110.204 114.05 110.802 113.798C111.4 113.547 111.93 113.157 112.348 112.661C112.507 112.49 112.618 112.28 112.67 112.053C112.722 111.825 112.712 111.588 112.641 111.365L112.658 111.354Z" fill="#74B5CB"/>
<path opacity="0.1" d="M112.658 111.354C112.226 110.329 108.908 108.406 108.503 108.584C108.099 108.761 107.34 112.318 107.8 113.409C107.907 113.612 108.066 113.784 108.26 113.906C108.455 114.029 108.678 114.098 108.908 114.107C109.554 114.156 110.204 114.05 110.802 113.798C111.4 113.547 111.93 113.157 112.348 112.661C112.507 112.49 112.618 112.28 112.67 112.053C112.722 111.825 112.712 111.588 112.641 111.365L112.658 111.354Z" fill="black"/>
<path opacity="0.3" d="M112.658 111.354C112.226 110.329 108.908 108.406 108.503 108.584C108.099 108.761 107.34 112.318 107.8 113.409C107.907 113.612 108.066 113.784 108.26 113.906C108.455 114.029 108.678 114.098 108.908 114.107C109.554 114.156 110.204 114.05 110.802 113.798C111.4 113.547 111.93 113.157 112.348 112.661C112.507 112.49 112.618 112.28 112.67 112.053C112.722 111.825 112.712 111.588 112.641 111.365L112.658 111.354Z" fill="white"/>
<path d="M114.957 84.0918C118.281 91.9531 116.292 104.485 109.012 109.77C99.9376 110.922 89.7938 103.964 86.4754 96.097C83.1569 88.2302 85.1292 78.7513 94.3034 74.8843C103.478 71.0174 111.644 76.225 114.957 84.0918Z" fill="#74B5CB"/>
<path opacity="0.5" d="M114.957 84.0918C118.281 91.9531 116.292 104.485 109.012 109.77C99.9376 110.922 89.7938 103.964 86.4754 96.097C83.1569 88.2302 85.1292 78.7513 94.3034 74.8843C103.478 71.0174 111.644 76.225 114.957 84.0918Z" fill="white"/>
<path opacity="0.05" d="M88.8237 99.9473C88.8237 99.9473 94.1254 106.595 103.715 103.271C112.961 100.058 116.114 87.0945 113.083 80.6626C113.824 81.7402 114.451 82.8912 114.956 84.0974C118.28 91.9587 116.291 104.49 109.011 109.775C101.494 110.728 93.239 106.113 88.7461 100.025L88.8237 99.9473Z" fill="black"/>
<path d="M114.348 78.5018C115.406 82.7455 115.267 87.1276 115.783 91.4377C116.27 95.5318 117.849 99.2879 119.239 103.138C120.586 106.856 121.799 110.645 122.214 114.595C122.674 118.972 122.043 123.387 122.126 127.775C122.156 130.01 122.406 132.237 122.874 134.423C123.345 136.544 123.982 138.622 124.563 140.716C125.17 142.771 125.62 144.87 125.91 146.993C126.155 149.287 126.224 151.597 126.115 153.901C125.959 158.228 125.478 162.549 125.738 166.881C125.844 169.027 126.197 171.154 126.791 173.219C127.383 175.208 128.059 177.164 128.53 179.186C129.511 183.424 129.433 187.723 129.638 192.044C129.843 196.365 130.259 200.631 131.644 204.731C131.987 205.744 132.386 206.737 132.84 207.706C132.973 207.983 133.488 207.883 133.344 207.551C131.572 203.573 130.774 199.191 130.458 194.875C130.142 190.559 130.397 186.172 129.749 181.884C129.435 179.908 128.982 177.956 128.392 176.045C127.7 174.033 127.145 171.976 126.73 169.89C126.048 165.53 126.403 161.114 126.652 156.738C126.901 152.361 126.973 147.99 126.004 143.691C125.056 139.481 123.466 135.42 122.99 131.11C122.491 126.595 123.068 122.085 123.034 117.564C122.937 113.682 122.238 109.837 120.962 106.169C120.359 104.324 119.677 102.501 119.007 100.678C118.242 98.7708 117.575 96.8256 117.007 94.8504C115.899 90.5569 116.231 86.0972 115.467 81.7593C115.274 80.6579 115.011 79.5698 114.68 78.5018C114.619 78.3135 114.292 78.2525 114.359 78.5018H114.348Z" fill="#E0E0E0"/>
<path d="M113.194 78.3631C113.942 79.8091 114.518 81.5763 113.599 83.0888C113.406 83.4186 113.136 83.6964 112.811 83.8982C112.487 84.0999 112.118 84.2195 111.737 84.2466C111.422 84.2683 111.107 84.2132 110.818 84.086C110.491 83.9308 109.915 83.4544 110.302 83.0721C110.69 82.6899 111.095 83.0112 111.41 83.1829C111.791 83.3686 112.131 83.6264 112.413 83.9419C112.634 84.2239 112.761 84.568 112.776 84.9258C112.79 85.2835 112.693 85.637 112.496 85.9363C112.293 86.2435 112.009 86.4893 111.676 86.6474C111.344 86.8056 110.974 86.87 110.607 86.8338C110.297 86.8338 109.771 86.7285 109.582 86.4405C109.555 86.3925 109.54 86.3384 109.54 86.2832C109.539 86.2281 109.552 86.1736 109.578 86.125C109.604 86.0763 109.642 86.035 109.688 86.0049C109.734 85.9748 109.788 85.957 109.843 85.9529C109.972 85.9538 110.1 85.9841 110.216 86.0417C110.332 86.0993 110.434 86.1827 110.513 86.2853C110.762 86.6195 110.912 87.0172 110.945 87.4327C110.979 87.8482 110.894 88.2647 110.701 88.6343C110.5 89.0508 110.204 89.4147 109.838 89.6973C109.472 89.98 109.045 90.1737 108.591 90.2631C108.402 90.3018 108.591 90.6398 108.746 90.6176C109.248 90.5565 109.728 90.373 110.144 90.0832C110.559 89.7935 110.897 89.4063 111.128 88.9556C111.362 88.5257 111.473 88.0393 111.448 87.5503C111.422 87.0613 111.262 86.5889 110.984 86.1856C110.844 85.9849 110.659 85.8203 110.443 85.7056C110.227 85.5909 109.987 85.5295 109.743 85.5264C109.638 85.5268 109.534 85.5498 109.438 85.594C109.343 85.6382 109.258 85.7024 109.19 85.7823C109.121 85.8623 109.071 85.956 109.042 86.0572C109.013 86.1583 109.007 86.2645 109.023 86.3684C109.239 87.3379 110.829 87.4377 111.582 87.2382C112.066 87.1178 112.497 86.8426 112.81 86.4546C113.123 86.0666 113.301 85.587 113.316 85.0887C113.316 83.9807 112.485 83.2771 111.593 82.7951C111.382 82.6506 111.14 82.5568 110.886 82.5213C110.632 82.4857 110.374 82.5093 110.131 82.5902C110.032 82.6327 109.943 82.6946 109.869 82.772C109.795 82.8495 109.737 82.941 109.699 83.0411C109.661 83.1413 109.643 83.2481 109.647 83.3552C109.651 83.4623 109.676 83.5677 109.721 83.6649C110.131 84.6455 111.477 84.8948 112.402 84.6566C112.949 84.4923 113.438 84.1786 113.816 83.7508C114.194 83.3231 114.445 82.7983 114.541 82.2356C114.647 81.5354 114.604 80.8205 114.413 80.1384C114.222 79.4564 113.888 78.8228 113.433 78.2801C113.322 78.136 113.084 78.197 113.183 78.3909L113.194 78.3631Z" fill="#F0F0F0"/>
<path d="M117.022 79.1447C116.695 78.0367 113.504 75.6656 113.067 75.8207C112.629 75.9759 111.432 79.5381 111.776 80.7181C111.865 80.942 112.012 81.1384 112.202 81.2872C112.392 81.4361 112.617 81.5321 112.856 81.5657C113.518 81.6893 114.201 81.6533 114.846 81.4606C115.492 81.2679 116.082 80.9241 116.568 80.4577C116.753 80.3007 116.892 80.0973 116.972 79.8685C117.052 79.6396 117.069 79.3936 117.022 79.1558V79.1447Z" fill="#74B5CB"/>
<path opacity="0.25" d="M117.022 79.1447C116.695 78.0367 113.504 75.6656 113.067 75.8207C112.629 75.9759 111.432 79.5381 111.776 80.7181C111.865 80.942 112.012 81.1384 112.202 81.2872C112.392 81.4361 112.617 81.5321 112.856 81.5657C113.518 81.6893 114.201 81.6533 114.846 81.4606C115.492 81.2679 116.082 80.9241 116.568 80.4577C116.753 80.3007 116.892 80.0973 116.972 79.8685C117.052 79.6396 117.069 79.3936 117.022 79.1558V79.1447Z" fill="black"/>
<path d="M122.583 51.3395C125.082 59.8323 121.569 72.5134 113.453 77.1005C103.969 77.2279 94.329 68.8681 91.8471 60.3752C89.3652 51.8824 92.4897 42.3481 102.373 39.4396C112.256 36.5311 120.09 42.8522 122.583 51.3395Z" fill="#74B5CB"/>
<path opacity="0.1" d="M122.583 51.3395C125.082 59.8323 121.569 72.5134 113.453 77.1005C103.969 77.2279 94.329 68.8681 91.8471 60.3752C89.3652 51.8824 92.4897 42.3481 102.373 39.4396C112.256 36.5311 120.09 42.8522 122.583 51.3395Z" fill="black"/>
<path opacity="0.05" d="M93.8035 64.6188C93.8035 64.6188 98.4848 72.0923 108.761 69.7821C118.661 67.5661 123.426 54.5637 121.06 47.5889C121.695 48.7839 122.205 50.0406 122.584 51.3394C125.082 59.8323 121.57 72.5133 113.454 77.1004C105.593 77.2057 97.6316 71.4829 93.7148 64.6853L93.8035 64.6188Z" fill="black"/>
<path d="M131.135 106.8C129.988 113.348 130.88 120.096 131.252 126.7C131.628 133.387 131.252 140.062 130.93 146.738C130.609 153.414 130.376 160.095 130.216 166.776C130.149 170.039 130.16 173.313 130.376 176.576C130.592 179.84 131.113 182.964 131.401 186.172C131.7 189.496 131.468 192.82 131.368 196.188C131.2 199.297 131.474 202.414 132.182 205.445C132.371 206.182 132.576 206.914 132.792 207.661C132.875 207.938 133.429 207.961 133.346 207.628C132.476 204.548 132.023 201.366 131.999 198.166C131.999 194.875 132.36 191.579 132.21 188.294C132.072 185.13 131.556 182.011 131.235 178.876C130.922 175.55 130.794 172.21 130.853 168.87C130.914 162.222 131.218 155.519 131.501 148.854C131.783 142.19 132.26 135.647 132.011 129.043C131.883 125.797 131.606 122.556 131.396 119.315C131.197 116.089 131.162 112.855 131.29 109.626C131.324 108.75 131.396 107.875 131.468 107C131.468 106.833 131.18 106.595 131.141 106.828L131.135 106.8Z" fill="#E0E0E0"/>
<path d="M131.964 109.077C131.758 109.48 131.658 109.929 131.673 110.381C131.689 110.833 131.819 111.274 132.052 111.662C132.284 112.05 132.612 112.372 133.004 112.598C133.396 112.825 133.839 112.947 134.291 112.955C134.984 112.955 136.175 112.49 135.809 111.581C135.443 110.673 134.053 110.928 133.455 111.321C131.87 112.368 132.241 115.038 134.097 115.52C134.474 115.637 134.878 115.64 135.257 115.53C135.636 115.42 135.974 115.201 136.23 114.9C136.346 114.76 136.414 114.587 136.426 114.406C136.437 114.225 136.391 114.045 136.294 113.892C136.197 113.739 136.053 113.62 135.885 113.553C135.716 113.487 135.53 113.475 135.355 113.52C134.899 113.617 134.495 113.879 134.223 114.257C133.95 114.635 133.828 115.102 133.881 115.565C133.962 116.033 134.212 116.455 134.584 116.752C134.955 117.048 135.423 117.197 135.898 117.171C136.119 117.171 135.981 116.806 135.809 116.8C135.502 116.794 135.203 116.696 134.952 116.518C134.701 116.34 134.51 116.091 134.402 115.803C134.313 115.499 134.323 115.174 134.43 114.876C134.536 114.578 134.734 114.32 134.995 114.141C135.211 113.986 135.698 113.747 135.887 114.013C136.075 114.279 135.792 114.623 135.604 114.794C135.378 114.975 135.107 115.091 134.821 115.131C134.534 115.171 134.242 115.133 133.975 115.022C132.817 114.556 132.729 112.95 133.421 112.058C133.6 111.816 133.839 111.625 134.114 111.504C134.402 111.387 135.083 111.299 135.338 111.543C135.593 111.786 135.105 112.268 134.862 112.374C134.565 112.493 134.243 112.537 133.925 112.501C132.358 112.307 131.798 110.612 132.219 109.26C132.258 109.127 132.064 108.889 131.975 109.066L131.964 109.077Z" fill="#E0E0E0"/>
<path d="M133.96 109.26C133.96 108.152 131.65 105.039 131.19 105.033C130.73 105.028 128.631 108.036 128.625 109.233C128.642 109.469 128.722 109.697 128.858 109.893C128.993 110.088 129.179 110.242 129.395 110.341C129.977 110.637 130.62 110.791 131.273 110.791C131.926 110.791 132.569 110.637 133.151 110.341C133.371 110.244 133.56 110.09 133.699 109.895C133.839 109.7 133.923 109.471 133.943 109.233L133.96 109.26Z" fill="#74B5CB"/>
<path opacity="0.1" d="M133.96 109.26C133.96 108.152 131.65 105.039 131.19 105.033C130.73 105.028 128.631 108.036 128.625 109.233C128.642 109.469 128.722 109.697 128.858 109.893C128.993 110.088 129.179 110.242 129.395 110.341C129.977 110.637 130.62 110.791 131.273 110.791C131.926 110.791 132.569 110.637 133.151 110.341C133.371 110.244 133.56 110.09 133.699 109.895C133.839 109.7 133.923 109.471 133.943 109.233L133.96 109.26Z" fill="black"/>
<path opacity="0.3" d="M133.96 109.26C133.96 108.152 131.65 105.039 131.19 105.033C130.73 105.028 128.631 108.036 128.625 109.233C128.642 109.469 128.722 109.697 128.858 109.893C128.993 110.088 129.179 110.242 129.395 110.341C129.977 110.637 130.62 110.791 131.273 110.791C131.926 110.791 132.569 110.637 133.151 110.341C133.371 110.244 133.56 110.09 133.699 109.895C133.839 109.7 133.923 109.471 133.943 109.233L133.96 109.26Z" fill="black"/>
<path d="M146.906 84.9118C146.856 93.521 140.047 104.352 131.2 106.363C122.336 103.831 115.688 93.3492 115.727 84.7567C115.766 76.1641 121.366 68.1367 131.405 68.1976C141.443 68.2586 146.95 76.3026 146.906 84.9118Z" fill="#74B5CB"/>
<path opacity="0.2" d="M146.906 84.9118C146.856 93.521 140.047 104.352 131.2 106.363C122.336 103.831 115.688 93.3492 115.727 84.7567C115.766 76.1641 121.366 68.1367 131.405 68.1976C141.443 68.2586 146.95 76.3026 146.906 84.9118Z" fill="black"/>
<path opacity="0.1" d="M116.373 89.2435C116.373 89.2435 118.65 97.5148 128.871 98.2294C138.716 98.9219 146.788 88.1522 146.527 80.9834C146.784 82.2768 146.91 83.5927 146.904 84.9113C146.854 93.5204 140.046 104.351 131.198 106.362C123.847 104.262 118.024 96.7059 116.273 89.2823L116.373 89.2435Z" fill="black"/>
<g opacity="0.3">
<path opacity="0.7" d="M171.004 89.6375C171.342 88.6126 170.139 85.0891 169.735 84.9562C169.331 84.8232 166.511 86.945 166.151 88.0364C166.099 88.2564 166.107 88.4861 166.173 88.7021C166.239 88.9181 166.362 89.1128 166.527 89.2663C166.973 89.7076 167.516 90.0378 168.113 90.2303C168.709 90.4228 169.343 90.4721 169.962 90.3743C170.187 90.3501 170.402 90.2673 170.584 90.1341C170.767 90.0009 170.912 89.822 171.004 89.6153V89.6375Z" fill="white"/>
</g>
<path d="M190.024 71.2002C187.443 79.0559 178.019 86.9448 169.338 86.1581C161.981 81.2276 159 69.6877 161.582 61.832C164.164 53.9763 171.643 48.3089 180.8 51.306C189.958 54.3032 192.612 63.3444 190.024 71.2002Z" fill="#74B5CB"/>
<path opacity="0.7" d="M190.024 71.2002C187.443 79.0559 178.019 86.9448 169.338 86.1581C161.981 81.2276 159 69.6877 161.582 61.832C164.164 53.9763 171.643 48.3089 180.8 51.306C189.958 54.3032 192.612 63.3444 190.024 71.2002Z" fill="white"/>
<path opacity="0.1" d="M160.844 66.1475C160.844 66.1475 160.484 74.3799 169.608 78.0529C178.406 81.593 188.965 74.1306 190.843 67.5269C190.697 68.7836 190.423 70.0218 190.023 71.2221C187.441 79.0778 178.018 86.9668 169.337 86.1801C163.243 82.0916 160.151 73.4658 160.739 66.1641L160.844 66.1475Z" fill="black"/>
<path d="M154.735 62.5579C154.336 67.1783 152.641 71.4995 151.782 76.0312C150.846 80.9563 151.666 85.909 151.743 90.8673C151.728 93.3693 151.33 95.8542 150.563 98.2356C150.231 99.3823 149.876 100.524 149.577 101.676C149.278 102.828 149.145 103.986 148.968 105.155C148.799 106.328 148.456 107.469 147.948 108.54C147.382 109.592 146.88 110.678 146.447 111.792C145.68 114.131 145.168 116.545 144.918 118.994C144.336 124.102 144.558 129.254 144.198 134.379C143.837 139.503 142.597 144.312 141.256 149.192C139.915 154.073 138.619 158.882 138.486 163.945C138.353 169.009 138.187 174.145 137.328 179.147C136.996 181.086 136.53 182.998 136.165 184.925C135.799 186.853 135.422 188.953 135.057 190.975C134.746 192.785 134.44 194.6 134.137 196.421C133.921 197.706 133.727 199.003 133.478 200.299C133.228 201.595 132.924 202.731 132.757 203.972C132.591 205.196 132.591 206.437 132.757 207.662C132.802 207.955 133.35 207.966 133.311 207.628C132.957 204.858 133.805 202.255 134.287 199.557C134.652 197.507 134.968 195.451 135.317 193.396C135.976 189.518 136.624 185.64 137.45 181.812C138.435 176.969 138.975 172.045 139.062 167.103C139.14 164.538 139.09 161.957 139.489 159.414C139.903 156.968 140.443 154.546 141.106 152.156C142.364 147.42 143.837 142.711 144.491 137.835C145.178 132.717 144.968 127.537 145.267 122.395C145.386 119.873 145.712 117.364 146.242 114.894C146.502 113.593 146.888 112.32 147.394 111.094C147.86 110.041 148.447 109.05 148.884 107.986C149.765 105.825 149.754 103.404 150.364 101.166C151.006 98.8228 151.837 96.5126 152.192 94.0972C152.546 91.6817 152.319 89.2053 152.192 86.7954C151.96 84.2855 151.881 81.7639 151.954 79.2444C152.247 74.6573 154.075 70.3804 154.773 65.8764C154.933 64.825 155.03 63.765 155.062 62.702C155.062 62.5469 154.746 62.364 154.729 62.5746L154.735 62.5579Z" fill="#E0E0E0"/>
<path d="M156.231 63.3392C155.029 64.6466 154.679 67.339 156.491 68.3252C156.833 68.5229 157.225 68.6158 157.619 68.5922C158.013 68.5685 158.392 68.4294 158.707 68.1922C158.858 68.0772 158.971 67.92 159.032 67.7406C159.094 67.5613 159.101 67.3677 159.052 67.1845C159.003 67.0012 158.901 66.8365 158.759 66.7111C158.617 66.5858 158.441 66.5055 158.253 66.4803C157.361 66.2864 156.469 67.1451 156.12 67.8875C155.954 68.2412 155.885 68.6324 155.919 69.0216C155.953 69.4107 156.089 69.784 156.314 70.1035C156.561 70.3767 156.904 70.5449 157.272 70.5737C157.64 70.6026 158.004 70.4898 158.292 70.2586C158.552 70.0536 158.846 69.6548 158.602 69.3279C158.483 69.2064 158.335 69.1165 158.173 69.0662C158.01 69.0159 157.838 69.0068 157.671 69.0398C157.199 69.0949 156.754 69.2893 156.393 69.5981C156.032 69.9069 155.771 70.3162 155.643 70.7738C155.411 71.6492 155.992 72.8957 157.067 72.6187C157.244 72.5743 157.1 72.2752 156.956 72.2807C156.192 72.2807 155.959 71.4996 156.142 70.8791C156.23 70.6063 156.374 70.3549 156.564 70.1412C156.755 69.9274 156.989 69.756 157.25 69.6381C157.449 69.5495 157.859 69.3778 158.081 69.4719C158.303 69.5661 157.848 69.9761 157.693 70.0259C157.576 70.0868 157.446 70.1184 157.313 70.118C157.181 70.1177 157.051 70.0854 156.934 70.0239C156.817 69.9624 156.717 69.8735 156.642 69.7649C156.566 69.6563 156.519 69.531 156.502 69.3999C156.43 69.1355 156.416 68.8588 156.46 68.5884C156.503 68.3179 156.605 68.06 156.757 67.8321C157.051 67.3889 157.782 66.6355 158.369 66.9346C158.729 67.1119 158.646 67.4886 158.402 67.749C158.186 67.9619 157.902 68.0914 157.599 68.1146C157.294 68.1429 156.988 68.0864 156.713 67.9515C156.438 67.8166 156.206 67.6085 156.042 67.3501C155.699 66.7904 155.573 66.1241 155.688 65.4776C155.848 64.8009 156.093 64.1474 156.419 63.5331C156.452 63.4444 156.341 63.2007 156.236 63.317L156.231 63.3392Z" fill="#E0E0E0"/>
<path d="M157.619 65.0395C157.924 64.0202 156.639 60.5798 156.24 60.4635C155.841 60.3471 153.11 62.5133 152.789 63.6047C152.742 63.8234 152.756 64.0506 152.828 64.2622C152.9 64.4738 153.028 64.662 153.199 64.8069C153.648 65.2339 154.192 65.5484 154.786 65.7246C155.38 65.9008 156.007 65.9337 156.617 65.8207C156.838 65.7918 157.048 65.7042 157.225 65.5668C157.401 65.4294 157.537 65.2474 157.619 65.0395Z" fill="#74B5CB"/>
<path opacity="0.15" d="M157.619 65.0395C157.924 64.0202 156.639 60.5798 156.24 60.4635C155.841 60.3471 153.11 62.5133 152.789 63.6047C152.742 63.8234 152.756 64.0506 152.828 64.2622C152.9 64.4738 153.028 64.662 153.199 64.8069C153.648 65.2339 154.192 65.5484 154.786 65.7246C155.38 65.9008 156.007 65.9337 156.617 65.8207C156.838 65.7918 157.048 65.7042 157.225 65.5668C157.401 65.4294 157.537 65.2474 157.619 65.0395Z" fill="black"/>
<path d="M175.864 46.2976C173.542 54.1257 164.468 62.1864 155.881 61.6711C148.474 57.012 145.2 45.7104 147.521 37.8824C149.842 30.0544 157.061 24.2429 166.191 26.9575C175.321 29.6721 178.19 38.4752 175.864 46.2976Z" fill="#74B5CB"/>
<path opacity="0.05" d="M146.924 42.1543C146.924 42.1543 146.802 50.287 155.916 53.6498C164.702 56.8907 174.907 49.2178 176.569 42.6252C176.458 43.87 176.222 45.1005 175.865 46.2982C173.544 54.1262 164.469 62.1869 155.882 61.6717C149.744 57.7937 146.464 49.3895 146.819 42.1598L146.924 42.1543Z" fill="black"/>
<path d="M137.084 73.9258C137.4 78.2303 136.668 82.5017 136.303 86.7786C136.084 88.941 136.084 91.1201 136.303 93.2825C136.558 95.4043 137.095 97.4985 137.494 99.5981C139.156 108.274 140.424 117.127 139.965 125.98C139.505 134.833 137.516 143.469 136.425 152.234C135.317 161.286 135.815 170.405 135.04 179.474C134.668 183.751 133.261 187.85 132.934 192.144C132.763 194.36 132.702 196.576 132.596 198.792C132.497 200.797 132.242 202.814 132.325 204.819C132.355 205.774 132.511 206.72 132.79 207.634C132.879 207.911 133.433 207.933 133.344 207.6C132.724 205.456 132.979 203.235 133.134 201.047C133.289 198.858 133.35 196.681 133.461 194.498C133.542 192.326 133.777 190.162 134.164 188.022C134.569 185.933 135.095 183.878 135.433 181.778C136.153 177.308 136.092 172.676 136.175 168.156C136.258 163.635 136.353 159.109 136.823 154.605C137.743 145.818 139.76 137.181 140.469 128.373C141.178 119.564 140.192 110.905 138.646 102.307C137.893 98.0801 136.679 93.8697 136.751 89.5652C136.823 85.3658 137.715 81.2053 137.649 77.0005C137.637 76.0013 137.561 75.0039 137.422 74.0144C137.422 73.8427 137.067 73.682 137.089 73.9313L137.084 73.9258Z" fill="#E0E0E0"/>
<path d="M136.877 73.4659C136.583 74.0022 136.23 74.5039 135.824 74.9617C135.46 75.5247 135.222 76.1596 135.126 76.8231C134.91 78.0142 134.86 79.4657 135.719 80.4241C136.977 81.8313 139.597 81.6097 140.738 80.1194C140.917 79.9252 141.016 79.6712 141.016 79.4075C141.016 79.1439 140.917 78.8898 140.738 78.6956C140.273 78.269 139.68 78.5183 139.254 78.8507C138.317 79.5765 137.592 80.7953 138.146 81.9808C138.7 83.1664 140.206 83.2107 141.231 82.6844C141.663 82.4628 142.389 82.0418 142.422 81.4933C142.456 80.9449 141.719 80.8119 141.281 80.9393C140.677 81.0854 140.147 81.448 139.791 81.9584C139.436 82.4688 139.28 83.0917 139.353 83.7093C139.468 84.3447 139.815 84.9146 140.328 85.3078C140.84 85.7011 141.48 85.8897 142.123 85.8367C142.362 85.809 142.19 85.4489 142.013 85.4489C141.582 85.4506 141.161 85.3247 140.802 85.0871C140.443 84.8494 140.162 84.5107 139.996 84.1137C139.858 83.7066 139.85 83.2666 139.973 82.8546C140.096 82.4427 140.344 82.0792 140.683 81.8146C140.827 81.6928 141.791 81.0944 141.857 81.5044C141.857 81.6484 141.542 81.8756 141.459 81.9421C141.228 82.1243 140.975 82.2752 140.705 82.3908C139.78 82.7841 138.622 82.4739 138.544 81.3327C138.555 80.8594 138.695 80.3981 138.95 79.9994C139.205 79.6006 139.565 79.2799 139.99 79.0723C140.234 78.956 140.411 79.0225 140.45 79.2995C140.453 79.42 140.43 79.5397 140.384 79.6511C140.339 79.7626 140.271 79.8636 140.184 79.9477C139.932 80.2277 139.625 80.4522 139.281 80.6069C138.118 81.1609 136.511 80.9781 135.891 79.715C135.403 78.7067 135.619 77.2885 135.891 76.2525C136.036 75.7664 136.277 75.3144 136.6 74.9229C136.924 74.5563 137.179 74.1339 137.353 73.6764C137.436 73.4271 136.988 73.2443 136.882 73.5046L136.877 73.4659Z" fill="#E0E0E0"/>
<path d="M139.941 75.4272C139.997 74.2472 137.692 70.89 137.221 70.8678C136.75 70.8456 134.407 73.9203 134.352 75.1779C134.363 75.4255 134.439 75.6656 134.574 75.8739C134.708 76.0822 134.895 76.2511 135.116 76.3635C135.715 76.7031 136.386 76.8957 137.073 76.9256C137.761 76.9555 138.446 76.8217 139.072 76.5352C139.302 76.4452 139.505 76.2949 139.658 76.1001C139.811 75.9052 139.909 75.6728 139.941 75.4272Z" fill="#74B5CB"/>
<path opacity="0.1" d="M139.941 75.4272C139.997 74.2472 137.692 70.89 137.221 70.8678C136.75 70.8456 134.407 73.9203 134.352 75.1779C134.363 75.4255 134.439 75.6656 134.574 75.8739C134.708 76.0822 134.895 76.2511 135.116 76.3635C135.715 76.7031 136.386 76.8957 137.073 76.9256C137.761 76.9555 138.446 76.8217 139.072 76.5352C139.302 76.4452 139.505 76.2949 139.658 76.1001C139.811 75.9052 139.909 75.6728 139.941 75.4272Z" fill="black"/>
<path opacity="0.3" d="M139.941 75.4272C139.997 74.2472 137.692 70.89 137.221 70.8678C136.75 70.8456 134.407 73.9203 134.352 75.1779C134.363 75.4255 134.439 75.6656 134.574 75.8739C134.708 76.0822 134.895 76.2511 135.116 76.3635C135.715 76.7031 136.386 76.8957 137.073 76.9256C137.761 76.9555 138.446 76.8217 139.072 76.5352C139.302 76.4452 139.505 76.2949 139.658 76.1001C139.811 75.9052 139.909 75.6728 139.941 75.4272Z" fill="white"/>
<path d="M154.557 50.342C154.158 59.3944 146.552 70.5132 137.161 72.2638C127.921 69.2501 121.372 57.9429 121.771 48.8905C122.17 39.8382 128.375 31.639 138.945 32.1043C149.516 32.5697 154.956 41.2841 154.557 50.342Z" fill="#74B5CB"/>
<path opacity="0.5" d="M154.557 50.342C154.158 59.3944 146.552 70.5132 137.161 72.2638C127.921 69.2501 121.372 57.9429 121.771 48.8905C122.17 39.8382 128.375 31.639 138.945 32.1043C149.516 32.5697 154.956 41.2841 154.557 50.342Z" fill="white"/>
<path opacity="0.1" d="M122.267 53.6495C122.267 53.6495 124.322 62.4471 135.042 63.6215C145.374 64.7295 154.305 53.7493 154.321 46.1982C154.538 47.5701 154.616 48.9602 154.554 50.3477C154.155 59.4001 146.549 70.5188 137.159 72.2695C129.513 69.7654 123.696 61.5773 122.156 53.6939L122.267 53.6495Z" fill="black"/>
<path d="M153.908 111.127C153.626 112.656 153.315 114.19 152.911 115.692C152.506 117.193 151.964 118.728 151.565 120.273C150.784 123.494 150.229 126.765 149.903 130.062C149.526 133.331 149.221 136.605 148.662 139.846C148.06 143.073 147.22 146.251 146.147 149.353C145.138 152.372 144.063 155.369 143.221 158.438C142.401 161.575 141.809 164.767 141.449 167.989C140.656 174.432 140.258 181.003 138.036 187.163C137.482 188.648 136.828 190.088 136.374 191.595C136.001 193.083 135.711 194.59 135.504 196.11C135.368 196.929 135.183 197.74 134.95 198.537C134.723 199.307 134.396 200.044 134.114 200.792C133.531 202.193 133.107 203.656 132.851 205.152C132.731 205.951 132.698 206.761 132.751 207.567C132.751 207.855 133.305 207.977 133.305 207.656C133.278 206.022 133.537 204.397 134.069 202.853C134.551 201.373 135.238 199.966 135.648 198.47C136.058 196.975 136.252 195.379 136.524 193.828C136.835 192.218 137.308 190.644 137.936 189.13C139.123 186.147 140.001 183.051 140.557 179.889C141.111 176.715 141.443 173.507 141.803 170.305C142.116 167.046 142.615 163.807 143.299 160.604C144.036 157.436 145.094 154.355 146.135 151.281C147.212 148.273 148.116 145.206 148.845 142.095C149.486 138.846 149.959 135.566 150.263 132.267C150.617 129.004 150.977 125.736 151.626 122.511C151.958 120.888 152.374 119.283 152.872 117.703C153.327 116.351 153.69 114.97 153.958 113.57C154.085 112.811 154.18 112.046 154.252 111.282C154.252 111.116 153.969 110.883 153.925 111.11L153.908 111.127Z" fill="#E0E0E0"/>
<path d="M153.402 113.249C152.804 113.618 152.313 114.136 151.977 114.753C151.64 115.37 151.471 116.064 151.485 116.767C151.5 117.468 151.687 118.154 152.029 118.767C152.371 119.379 152.857 119.898 153.446 120.279C154.025 120.658 154.725 120.806 155.408 120.695C155.962 120.589 156.671 120.201 156.781 119.587C156.892 118.972 156.299 118.75 155.823 118.761C155.227 118.833 154.672 119.1 154.244 119.52C153.308 120.329 152.421 121.974 153.291 123.127C153.771 123.66 154.426 124.004 155.138 124.095C155.849 124.187 156.57 124.02 157.169 123.625C157.425 123.449 157.633 123.212 157.774 122.936C157.916 122.659 157.986 122.351 157.978 122.041C157.878 121.365 156.903 121.531 156.443 121.642C155.808 121.768 155.248 122.14 154.887 122.678C154.525 123.216 154.392 123.876 154.516 124.512C154.842 125.88 156.383 126.367 157.629 126.046C159.114 125.664 160.194 124.052 160.471 122.611C160.51 122.417 160.172 122.24 160.072 122.44C159.59 123.404 159.208 124.44 158.322 125.121C157.976 125.407 157.556 125.589 157.112 125.648C156.667 125.707 156.215 125.639 155.806 125.453C155.603 125.327 155.428 125.16 155.293 124.962C155.159 124.764 155.067 124.54 155.025 124.304C154.983 124.069 154.99 123.827 155.048 123.594C155.105 123.362 155.211 123.144 155.358 122.955C155.662 122.546 156.095 122.251 156.588 122.118C156.815 122.056 157.05 122.025 157.286 122.024C157.463 122.024 157.457 122.024 157.419 122.201C157.394 122.345 157.352 122.485 157.291 122.617C156.787 123.675 155.402 123.836 154.421 123.415C154.159 123.322 153.931 123.153 153.767 122.928C153.603 122.704 153.51 122.435 153.502 122.157C153.515 121.634 153.676 121.125 153.967 120.689C154.23 120.269 154.577 119.909 154.986 119.631C155.208 119.481 155.912 119.016 156.189 119.293C156.36 119.459 156.006 119.797 155.889 119.897C155.688 120.055 155.453 120.165 155.203 120.218C154.924 120.263 154.64 120.252 154.366 120.186C154.091 120.119 153.834 119.998 153.607 119.83C153.125 119.492 152.729 119.046 152.451 118.528C152.173 118.009 152.021 117.433 152.006 116.844C152.009 116.205 152.161 115.576 152.449 115.005C152.738 114.435 153.155 113.94 153.668 113.559C153.818 113.443 153.568 113.138 153.413 113.232L153.402 113.249Z" fill="#E0E0E0"/>
<path d="M155.924 115.631C156.345 114.523 155.182 110.556 154.739 110.39C154.295 110.224 151.071 112.446 150.622 113.637C150.555 113.878 150.553 114.134 150.617 114.376C150.682 114.619 150.81 114.84 150.988 115.016C151.459 115.529 152.044 115.923 152.695 116.168C153.347 116.412 154.047 116.5 154.739 116.423C154.989 116.409 155.231 116.328 155.439 116.188C155.648 116.049 155.815 115.857 155.924 115.631Z" fill="#74B5CB"/>
<path opacity="0.1" d="M155.924 115.631C156.345 114.523 155.182 110.556 154.739 110.39C154.295 110.224 151.071 112.446 150.622 113.637C150.555 113.878 150.553 114.134 150.617 114.376C150.682 114.619 150.81 114.84 150.988 115.016C151.459 115.529 152.044 115.923 152.695 116.168C153.347 116.412 154.047 116.5 154.739 116.423C154.989 116.409 155.231 116.328 155.439 116.188C155.648 116.049 155.815 115.857 155.924 115.631Z" fill="black"/>
<path d="M177.858 96.0805C174.633 104.662 163.825 112.972 154.241 111.714C146.313 105.908 143.543 92.9837 146.756 84.3967C149.969 75.8097 158.523 69.8708 168.539 73.638C178.556 77.4052 181.104 87.4935 177.858 96.0805Z" fill="#74B5CB"/>
<path opacity="0.05" d="M145.754 89.1333C145.754 89.1333 144.973 98.2411 154.918 102.728C164.502 107.055 176.524 99.2715 178.933 92.0196C178.713 93.406 178.353 94.7665 177.859 96.0805C174.634 104.662 163.826 112.972 154.242 111.714C147.671 106.922 144.646 97.2051 145.649 89.1333H145.754Z" fill="black"/>
<path d="M132.738 208.033C133.967 208.415 135.375 208.143 136.582 207.789C137.579 207.501 138.848 206.93 139.169 205.839C139.491 204.747 138.388 203.922 137.408 203.839C136.406 203.799 135.423 204.119 134.638 204.742C134.174 205.094 133.763 205.512 133.419 205.983C133.234 206.235 133.065 206.5 132.915 206.775C132.843 206.908 132.776 207.046 132.715 207.185C132.642 207.381 132.595 207.586 132.577 207.794C132.544 207.977 132.832 208.165 132.948 207.983C133.389 207.135 133.926 206.341 134.549 205.617C135.146 204.999 135.921 204.583 136.765 204.426C137.157 204.344 137.564 204.381 137.934 204.531C138.144 204.611 138.322 204.758 138.439 204.95C138.556 205.141 138.607 205.366 138.582 205.589C138.455 206.026 138.168 206.4 137.779 206.636C137.343 206.938 136.857 207.161 136.344 207.296C135.177 207.668 133.947 207.804 132.726 207.695C132.521 207.695 132.638 207.994 132.765 208.033H132.738Z" fill="#455A64"/>
<path d="M132.645 207.695C132.185 207.859 131.704 207.956 131.216 207.983C130.767 207.984 130.32 207.915 129.892 207.778C129.07 207.561 128.328 207.113 127.753 206.487C127.472 206.175 127.28 205.792 127.199 205.379C127.15 204.875 127.643 204.731 128.058 204.72C128.972 204.72 129.776 205.274 130.496 205.756C131.371 206.333 132.114 207.088 132.678 207.972C132.756 208.099 132.906 208.016 132.872 207.883C132.53 206.843 131.821 205.963 130.878 205.407C130.019 204.797 129.061 204.193 127.964 204.227C127.729 204.21 127.494 204.252 127.279 204.349C127.065 204.445 126.877 204.594 126.734 204.781C126.644 205 126.611 205.238 126.638 205.474C126.665 205.709 126.752 205.934 126.889 206.127C127.43 207.045 128.284 207.737 129.294 208.077C130.346 208.492 131.903 208.786 132.889 208.044C133.05 207.927 132.811 207.673 132.662 207.717L132.645 207.695Z" fill="#455A64"/>
<path d="M133.024 207.816C133.583 207.769 134.126 207.606 134.619 207.34C135.087 207.117 135.52 206.828 135.905 206.481C136.68 205.812 137.19 204.886 137.339 203.872C137.45 202.902 137.439 201.479 136.159 201.418C135.018 201.362 134.071 202.193 133.489 203.107C132.685 204.363 132.355 205.863 132.558 207.34C132.558 207.528 132.968 207.661 132.979 207.401C132.966 206.28 133.175 205.167 133.594 204.127C133.993 203.24 134.658 202.276 135.633 201.972C135.842 201.905 136.063 201.883 136.281 201.905C136.597 201.95 136.702 202.171 136.758 202.459C136.821 202.9 136.821 203.348 136.758 203.789C136.628 204.647 136.215 205.437 135.583 206.032C135.232 206.367 134.835 206.649 134.403 206.869C133.899 207.129 133.356 207.246 132.841 207.456C132.619 207.545 132.885 207.827 133.035 207.822L133.024 207.816Z" fill="#455A64"/>
<path d="M132.772 207.711C131.833 207.391 130.975 206.872 130.257 206.188C129.614 205.523 128.944 204.443 129.193 203.484C129.236 203.259 129.345 203.052 129.507 202.89C129.669 202.728 129.876 202.618 130.102 202.576C130.35 202.565 130.598 202.616 130.822 202.724C131.047 202.832 131.241 202.995 131.387 203.196C131.858 203.817 132.17 204.543 132.295 205.312C132.452 206.142 132.543 206.983 132.567 207.828C132.567 207.961 132.8 208.16 132.894 207.988C133.095 207.578 133.165 207.116 133.093 206.664C133.054 206.179 132.978 205.698 132.866 205.224C132.717 204.27 132.282 203.383 131.62 202.681C130.766 201.889 129.276 201.828 128.755 203.019C128.29 204.077 128.91 205.329 129.592 206.149C130.391 207.153 131.53 207.829 132.794 208.049C132.993 208.049 132.894 207.756 132.794 207.711H132.772Z" fill="#455A64"/>
<path d="M132.557 207.451C132.504 208.184 132.355 208.906 132.114 209.6C131.855 210.12 131.513 210.594 131.1 211.002C130.352 211.777 129.488 212.47 128.972 213.434C128.82 213.685 128.724 213.966 128.691 214.258C128.657 214.549 128.687 214.845 128.779 215.124C129.055 215.719 129.27 216.341 129.421 216.98C129.476 217.302 129.451 217.633 129.349 217.944C129.246 218.255 129.07 218.536 128.834 218.763C128.402 219.179 127.87 219.478 127.477 219.938C127.052 220.409 126.795 221.007 126.745 221.639C126.727 221.982 126.79 222.324 126.93 222.638C127.069 222.952 127.281 223.229 127.549 223.445C127.715 223.583 127.876 223.384 127.743 223.229C126.878 222.226 127.322 220.763 128.208 219.966C128.689 219.617 129.136 219.224 129.543 218.791C129.866 218.347 130.019 217.803 129.975 217.257C129.921 216.65 129.752 216.06 129.477 215.517C129.302 215.199 129.207 214.844 129.2 214.481C129.24 214.162 129.35 213.856 129.521 213.583C130.075 212.642 130.939 211.966 131.643 211.168C132.041 210.747 132.357 210.255 132.573 209.717C132.795 208.999 132.833 208.237 132.684 207.501C132.684 207.429 132.573 207.357 132.557 207.467V207.451Z" fill="#455A64"/>
<path d="M132.527 207.484C132.596 208.09 132.83 208.665 133.203 209.146C133.652 209.65 134.278 209.95 134.721 210.47C134.968 210.728 135.137 211.051 135.21 211.4C135.282 211.75 135.255 212.113 135.131 212.448C134.844 213.025 134.669 213.651 134.616 214.293C134.626 214.554 134.706 214.808 134.846 215.029C134.986 215.25 135.182 215.43 135.414 215.55C135.868 215.816 136.566 215.949 136.699 216.537C136.849 217.235 136.361 217.899 136.145 218.52C136.033 218.776 135.982 219.055 135.994 219.334C136.007 219.614 136.083 219.887 136.217 220.132C136.727 220.985 137.929 221.329 138.267 222.287C138.322 222.437 138.566 222.487 138.538 222.287C138.405 221.229 137.358 220.885 136.777 220.127C135.929 219.019 137.502 217.766 137.236 216.548C137.169 216.308 137.047 216.087 136.88 215.902C136.712 215.718 136.505 215.574 136.272 215.484C135.718 215.213 135.164 215.019 135.164 214.287C135.164 213.556 135.563 213.041 135.718 212.415C135.791 212.135 135.806 211.843 135.761 211.557C135.716 211.271 135.613 210.997 135.458 210.753C135.054 210.175 134.535 209.687 133.935 209.318C133.342 208.846 132.915 208.198 132.716 207.468C132.671 207.351 132.505 207.335 132.533 207.468L132.527 207.484Z" fill="#455A64"/>
<path d="M196.842 54.674C196.77 54.6272 196.718 54.5552 196.696 54.4722C196.675 54.3892 196.685 54.3011 196.725 54.2252L196.88 53.9316C197.078 53.5637 197.136 53.1365 197.044 52.7291C196.951 52.3217 196.714 51.9617 196.376 51.7156L196.11 51.5217C196.06 51.4652 196.03 51.3936 196.024 51.3181C196.019 51.2426 196.039 51.1674 196.08 51.1043C196.122 51.0411 196.183 50.9935 196.255 50.9688C196.326 50.9441 196.404 50.9437 196.476 50.9677L196.764 51.1228C197.132 51.322 197.559 51.3807 197.967 51.2879C198.375 51.1952 198.735 50.9573 198.98 50.6187L199.174 50.3583C199.224 50.2885 199.299 50.2405 199.383 50.224C199.468 50.2076 199.555 50.2239 199.628 50.2697C199.701 50.3156 199.754 50.3872 199.777 50.4703C199.799 50.5534 199.79 50.642 199.75 50.7184L199.595 51.012C199.394 51.3788 199.334 51.8063 199.426 52.2142C199.517 52.6222 199.755 52.9827 200.094 53.228L200.359 53.4219C200.43 53.4731 200.478 53.5495 200.493 53.6352C200.509 53.7208 200.491 53.8092 200.443 53.8818C200.397 53.9533 200.326 54.005 200.244 54.0265C200.162 54.0481 200.074 54.0379 199.999 53.9981L199.706 53.843C199.338 53.645 198.911 53.587 198.503 53.6797C198.096 53.7723 197.736 54.0095 197.49 54.3471L197.29 54.6075C197.24 54.6773 197.165 54.7253 197.081 54.7418C196.996 54.7583 196.909 54.7419 196.836 54.6961L196.842 54.674ZM197.484 51.9982C197.683 52.3726 197.779 52.7933 197.761 53.217C198.134 53.0183 198.553 52.9226 198.974 52.94C198.778 52.5645 198.683 52.1446 198.697 51.7212C198.325 51.9199 197.906 52.0155 197.484 51.9982Z" fill="#74B5CB"/>
<path d="M209.75 52.0759C209.385 51.8458 209.096 51.5125 208.92 51.1181C208.744 50.7237 208.689 50.286 208.762 49.8604C208.835 49.4347 209.032 49.0402 209.329 48.7268C209.626 48.4134 210.01 48.1952 210.431 48.0998C210.852 48.0044 211.292 48.0361 211.695 48.1909C212.099 48.3456 212.447 48.6165 212.696 48.9692C212.945 49.3219 213.084 49.7406 213.095 50.1723C213.106 50.604 212.989 51.0293 212.759 51.3945C212.45 51.8834 211.959 52.2297 211.395 52.3575C210.831 52.4852 210.24 52.384 209.75 52.0759ZM211.712 48.9569C211.46 48.7989 211.168 48.719 210.871 48.7272C210.574 48.7354 210.287 48.8314 210.044 49.003C209.802 49.1747 209.616 49.4142 209.51 49.6915C209.404 49.9687 209.383 50.2712 209.449 50.5607C209.514 50.8501 209.664 51.1136 209.88 51.3178C210.095 51.5219 210.367 51.6576 210.659 51.7077C210.952 51.7578 211.253 51.7201 211.524 51.5992C211.795 51.4784 212.024 51.2799 212.182 51.0288C212.289 50.8608 212.361 50.6735 212.395 50.4775C212.429 50.2816 212.424 50.0809 212.38 49.8869C212.336 49.6929 212.255 49.5094 212.14 49.347C212.025 49.1845 211.88 49.0463 211.712 48.9402V48.9569Z" fill="#74B5CB"/>
<path d="M206.724 62.7126C206.647 62.6646 206.592 62.5882 206.572 62.5C206.551 62.4118 206.566 62.319 206.613 62.2417L207.223 61.2833C207.277 61.2288 207.349 61.1948 207.426 61.1869C207.503 61.1789 207.58 61.1975 207.645 61.2397C207.71 61.2818 207.758 61.3448 207.782 61.4183C207.806 61.4918 207.804 61.5712 207.777 61.6434L207.167 62.6074C207.121 62.6781 207.049 62.7283 206.966 62.7479C206.884 62.7674 206.797 62.7548 206.724 62.7126Z" fill="#74B5CB"/>
<path d="M205.789 62.9287L204.825 62.3193C204.77 62.2645 204.736 62.1927 204.728 62.1159C204.72 62.039 204.739 61.9617 204.781 61.8969C204.823 61.8321 204.886 61.7837 204.96 61.7598C205.033 61.7359 205.113 61.7378 205.185 61.7653L206.149 62.3747C206.203 62.4296 206.237 62.5014 206.245 62.5782C206.253 62.6551 206.235 62.7324 206.193 62.7972C206.15 62.862 206.087 62.9104 206.014 62.9343C205.94 62.9582 205.861 62.9563 205.789 62.9287Z" fill="#74B5CB"/>
<path d="M205.359 64.8845C205.284 64.8346 205.231 64.7579 205.212 64.6702C205.192 64.5824 205.207 64.4905 205.253 64.4136L205.857 63.4496C205.914 63.3993 205.985 63.3691 206.061 63.3637C206.136 63.3582 206.212 63.3779 206.275 63.4196C206.338 63.4613 206.386 63.5227 206.41 63.5942C206.435 63.6658 206.435 63.7435 206.411 63.8153L205.807 64.7737C205.76 64.8447 205.687 64.8954 205.604 64.9159C205.521 64.9363 205.434 64.9252 205.359 64.8845Z" fill="#74B5CB"/>
<path d="M207.954 64.2913L206.99 63.7096C206.914 63.6607 206.86 63.5839 206.84 63.4958C206.821 63.4076 206.836 63.3153 206.884 63.2387C206.908 63.2006 206.939 63.1675 206.976 63.1415C207.012 63.1155 207.054 63.097 207.098 63.0872C207.141 63.0774 207.187 63.0765 207.231 63.0844C207.275 63.0924 207.317 63.109 207.355 63.1335L208.314 63.7373C208.39 63.7853 208.445 63.8618 208.466 63.95C208.487 64.0382 208.472 64.131 208.424 64.2082C208.371 64.2794 208.293 64.3277 208.205 64.3431C208.118 64.3585 208.028 64.34 207.954 64.2913Z" fill="#74B5CB"/>
<path d="M71.8525 86.4571C71.8246 86.5374 71.7675 86.6042 71.6925 86.6442C71.6176 86.6843 71.5303 86.6946 71.448 86.6732L71.1267 86.5901C70.726 86.485 70.3009 86.5272 69.9287 86.7093C69.5565 86.8913 69.2621 87.2009 69.0991 87.5817L68.9717 87.8864C68.9363 87.9647 68.8729 88.027 68.7939 88.0608C68.715 88.0946 68.6262 88.0977 68.5451 88.0693C68.4648 88.0414 68.398 87.9843 68.358 87.9093C68.3179 87.8344 68.3076 87.7471 68.329 87.6649L68.4121 87.3435C68.5173 86.9428 68.475 86.5177 68.293 86.1455C68.1109 85.7733 67.8013 85.4789 67.4205 85.3159L67.1158 85.1885C67.0373 85.1531 66.9747 85.09 66.9399 85.0113C66.9051 84.9325 66.9007 84.8437 66.9274 84.7619C66.9564 84.6812 67.0146 84.6143 67.0905 84.5743C67.1663 84.5343 67.2544 84.5242 67.3374 84.5458L67.6587 84.6289C68.0587 84.735 68.4835 84.693 68.855 84.5108C69.2265 84.3286 69.5198 84.0184 69.6808 83.6373L69.8138 83.3326C69.8491 83.2541 69.9122 83.1915 69.991 83.1567C70.0697 83.1219 70.1585 83.1175 70.2403 83.1442C70.321 83.1732 70.3879 83.2314 70.4279 83.3073C70.4679 83.3831 70.478 83.4712 70.4564 83.5542L70.3733 83.8755C70.2682 84.2762 70.3104 84.7014 70.4925 85.0735C70.6745 85.4457 70.9841 85.7401 71.365 85.9031L71.6641 86.0305C71.7439 86.0627 71.8081 86.1246 71.8432 86.2031C71.8783 86.2816 71.8816 86.3707 71.8525 86.4516V86.4571ZM69.0825 86.4571C69.3965 86.178 69.7787 85.9869 70.1905 85.9031C69.9143 85.5871 69.7236 85.2057 69.6365 84.7951C69.3243 85.077 68.9413 85.2685 68.5285 85.3491C68.8103 85.6515 69.0088 86.0218 69.1046 86.4239L69.0825 86.4571Z" fill="#74B5CB"/>
<path d="M67.889 72.9726C67.7495 73.3813 67.4918 73.7394 67.1487 74.0016C66.8056 74.2638 66.3924 74.4183 65.9614 74.4456C65.5304 74.4729 65.101 74.3718 64.7276 74.155C64.3541 73.9382 64.0533 73.6155 63.8633 73.2277C63.6733 72.8399 63.6026 72.4044 63.6601 71.9765C63.7176 71.5485 63.9008 71.1471 64.1865 70.8233C64.4721 70.4994 64.8475 70.2676 65.2649 70.1571C65.6824 70.0466 66.1233 70.0625 66.5317 70.2026C67.0788 70.3903 67.529 70.7874 67.7835 71.3068C68.038 71.8261 68.0759 72.4253 67.889 72.9726ZM64.4044 71.776C64.3075 72.0568 64.2961 72.3601 64.3717 72.6474C64.4472 72.9347 64.6063 73.1931 64.8288 73.39C65.0513 73.5868 65.3272 73.7133 65.6215 73.7532C65.9159 73.7932 66.2155 73.745 66.4825 73.6146C66.7494 73.4843 66.9717 73.2776 67.1211 73.0209C67.2706 72.7641 67.3405 72.4688 67.3221 72.1723C67.3036 71.8758 67.1976 71.5915 67.0175 71.3552C66.8373 71.119 66.5912 70.9415 66.3101 70.8452C65.9339 70.7179 65.5227 70.7443 65.1658 70.9186C64.8089 71.0929 64.5353 71.401 64.4044 71.776Z" fill="#74B5CB"/>
<path d="M78.9742 75.704C78.9605 75.7469 78.9383 75.7865 78.909 75.8207C78.8797 75.8548 78.8439 75.8828 78.8036 75.9029C78.7634 75.9231 78.7195 75.9349 78.6746 75.9379C78.6297 75.9408 78.5847 75.9348 78.5421 75.9201L77.4674 75.5489C77.3821 75.5195 77.3121 75.4575 77.2726 75.3764C77.2331 75.2954 77.2275 75.202 77.2568 75.1168C77.2862 75.0316 77.3483 74.9615 77.4293 74.922C77.5103 74.8825 77.6037 74.8769 77.689 74.9063L78.7637 75.2719C78.8061 75.2862 78.8452 75.3088 78.8787 75.3384C78.9123 75.3679 78.9396 75.4038 78.9592 75.444C78.9788 75.4842 78.9902 75.5279 78.9928 75.5725C78.9954 75.6171 78.9891 75.6618 78.9742 75.704Z" fill="#74B5CB"/>
<path d="M79.3959 76.5679L79.0303 77.6426C78.9962 77.7223 78.9333 77.7861 78.8541 77.8213C78.775 77.8564 78.6854 77.8604 78.6035 77.8324C78.5215 77.8044 78.4531 77.7464 78.4121 77.6701C78.3711 77.5939 78.3603 77.5049 78.3821 77.421L78.7533 76.3463C78.7827 76.2611 78.8447 76.191 78.9258 76.1515C79.0068 76.112 79.1002 76.1064 79.1854 76.1358C79.2706 76.1651 79.3407 76.2272 79.3802 76.3082C79.4197 76.3893 79.4253 76.4827 79.3959 76.5679Z" fill="#74B5CB"/>
<path d="M81.3844 76.5401C81.3701 76.5825 81.3475 76.6216 81.3179 76.6551C81.2884 76.6887 81.2525 76.716 81.2123 76.7356C81.1721 76.7552 81.1284 76.7666 81.0838 76.7692C81.0392 76.7718 80.9945 76.7655 80.9523 76.7506L79.8775 76.3795C79.7923 76.3501 79.7223 76.288 79.6828 76.207C79.6433 76.126 79.6376 76.0326 79.667 75.9473C79.6964 75.8621 79.7584 75.7921 79.8395 75.7526C79.9205 75.7131 80.0139 75.7074 80.0991 75.7368L81.1739 76.108C81.2162 76.1223 81.2553 76.1449 81.2889 76.1745C81.3224 76.204 81.3498 76.2399 81.3694 76.2801C81.389 76.3203 81.4004 76.364 81.4029 76.4086C81.4055 76.4532 81.3992 76.4979 81.3844 76.5401Z" fill="#74B5CB"/>
<path d="M80.2261 74.147L79.8604 75.2217C79.8459 75.2639 79.8232 75.3028 79.7936 75.3363C79.764 75.3697 79.7281 75.3969 79.688 75.4165C79.6478 75.436 79.6043 75.4475 79.5597 75.4502C79.5152 75.4529 79.4705 75.4468 79.4283 75.4323C79.3861 75.4177 79.3472 75.395 79.3138 75.3654C79.2804 75.3358 79.2531 75.2999 79.2335 75.2598C79.214 75.2197 79.2025 75.1761 79.1998 75.1315C79.1971 75.087 79.2032 75.0423 79.2178 75.0001L79.5834 73.9254C79.6128 73.8402 79.6748 73.7701 79.7559 73.7306C79.8369 73.6911 79.9303 73.6855 80.0155 73.7149C80.1008 73.7442 80.1708 73.8063 80.2103 73.8873C80.2498 73.9684 80.2555 74.0618 80.2261 74.147Z" fill="#74B5CB"/>
<path d="M185.798 17.8332C185.714 17.8523 185.626 17.8388 185.552 17.7956C185.478 17.7524 185.423 17.6827 185.399 17.6005L185.299 17.2903C185.177 16.8933 184.917 16.5537 184.564 16.3338C184.212 16.114 183.792 16.0287 183.382 16.0936L183.055 16.1435C182.972 16.1514 182.889 16.1286 182.821 16.0796C182.754 16.0305 182.706 15.9585 182.688 15.8769C182.67 15.7954 182.682 15.71 182.722 15.6367C182.762 15.5634 182.827 15.5072 182.906 15.4787L183.222 15.3845C183.619 15.263 183.96 15.0025 184.182 14.6506C184.404 14.2987 184.491 13.8789 184.429 13.4677L184.38 13.1408C184.36 13.0534 184.375 12.9617 184.423 12.8858C184.471 12.81 184.547 12.7562 184.634 12.7364C184.722 12.7166 184.814 12.7323 184.889 12.7801C184.965 12.8279 185.019 12.9038 185.039 12.9912L185.139 13.307C185.259 13.7032 185.519 14.0421 185.871 14.2611C186.222 14.4801 186.641 14.5643 187.05 14.4981L187.377 14.4538C187.464 14.4332 187.556 14.4482 187.632 14.4955C187.709 14.5428 187.763 14.6185 187.784 14.7059C187.804 14.7933 187.789 14.8853 187.742 14.9617C187.695 15.038 187.619 15.0925 187.532 15.1131L187.216 15.2128C186.82 15.3334 186.48 15.5933 186.26 15.9445C186.04 16.2958 185.955 16.7147 186.019 17.1241L186.069 17.4509C186.082 17.5374 186.061 17.6255 186.011 17.6968C185.96 17.7681 185.884 17.817 185.798 17.8332ZM184.352 15.5119C184.757 15.6339 185.122 15.8614 185.41 16.1712C185.535 15.7578 185.771 15.3863 186.091 15.0964C185.688 14.9744 185.325 14.7468 185.039 14.4372C184.909 14.85 184.672 15.2208 184.352 15.5119Z" fill="#74B5CB"/>
<path d="M185.702 30.7967C185.281 30.8939 184.842 30.8644 184.438 30.7116C184.034 30.5589 183.685 30.29 183.434 29.9387C183.183 29.5875 183.042 29.1698 183.028 28.7383C183.015 28.3069 183.13 27.8812 183.358 27.515C183.586 27.1487 183.918 26.8584 184.312 26.6808C184.705 26.5031 185.142 26.4461 185.568 26.5169C185.994 26.5876 186.389 26.7831 186.704 27.0784C187.019 27.3738 187.239 27.7558 187.336 28.1763C187.458 28.7398 187.356 29.3288 187.051 29.8181C186.746 30.3073 186.262 30.6584 185.702 30.7967ZM184.871 27.2068C184.582 27.2754 184.32 27.4283 184.117 27.6461C183.915 27.864 183.782 28.1369 183.735 28.4304C183.688 28.7238 183.729 29.0246 183.854 29.2947C183.978 29.5647 184.179 29.7918 184.433 29.9472C184.686 30.1026 184.98 30.1794 185.277 30.1677C185.574 30.156 185.86 30.0565 186.101 29.8817C186.341 29.7068 186.524 29.4646 186.627 29.1857C186.729 28.9068 186.747 28.6036 186.677 28.3148C186.584 27.9288 186.341 27.5955 186.003 27.3878C185.664 27.1802 185.257 27.1151 184.871 27.2068Z" fill="#74B5CB"/>
<path d="M173.04 20.9689C172.997 20.9787 172.952 20.9799 172.908 20.9724C172.864 20.9649 172.823 20.9489 172.785 20.9252C172.747 20.9016 172.715 20.8707 172.689 20.8345C172.664 20.7982 172.645 20.7573 172.636 20.714L172.381 19.606C172.37 19.5623 172.368 19.517 172.375 19.4726C172.382 19.4282 172.398 19.3857 172.422 19.3475C172.446 19.3093 172.477 19.2763 172.514 19.2503C172.55 19.2243 172.592 19.2058 172.636 19.1961C172.679 19.1855 172.724 19.1837 172.768 19.1908C172.812 19.198 172.854 19.2139 172.892 19.2377C172.93 19.2615 172.962 19.2926 172.988 19.3292C173.013 19.3659 173.031 19.4072 173.04 19.4509L173.295 20.5589C173.315 20.647 173.299 20.7395 173.252 20.8162C173.204 20.8929 173.128 20.9478 173.04 20.9689Z" fill="#74B5CB"/>
<path d="M172.533 21.7832L171.425 22.0381C171.381 22.0479 171.337 22.0491 171.293 22.0416C171.249 22.0341 171.207 22.0181 171.17 21.9944C171.132 21.9708 171.1 21.9399 171.074 21.9037C171.048 21.8675 171.03 21.8265 171.02 21.7832C171 21.6951 171.016 21.6027 171.063 21.5259C171.111 21.4492 171.187 21.3943 171.275 21.3733L172.383 21.1184C172.426 21.1078 172.471 21.106 172.515 21.1132C172.559 21.1203 172.602 21.1363 172.639 21.1601C172.677 21.1838 172.71 21.215 172.735 21.2516C172.761 21.2882 172.778 21.3296 172.787 21.3733C172.807 21.4614 172.792 21.5538 172.744 21.6306C172.697 21.7073 172.621 21.7621 172.533 21.7832Z" fill="#74B5CB"/>
<path d="M173.618 23.4617C173.575 23.4723 173.53 23.4741 173.486 23.467C173.442 23.4598 173.4 23.4439 173.362 23.4201C173.325 23.3963 173.292 23.3652 173.266 23.3285C173.241 23.2919 173.223 23.2505 173.214 23.2069L172.954 22.0989C172.944 22.0556 172.943 22.0108 172.95 21.967C172.958 21.9233 172.974 21.8814 172.997 21.8439C173.021 21.8063 173.052 21.7738 173.088 21.7482C173.124 21.7225 173.165 21.7043 173.209 21.6945C173.252 21.683 173.298 21.6806 173.342 21.6873C173.387 21.6941 173.43 21.7098 173.468 21.7337C173.507 21.7575 173.54 21.789 173.566 21.826C173.591 21.8631 173.609 21.905 173.618 21.9493L173.873 23.0573C173.883 23.1006 173.884 23.1454 173.877 23.1891C173.869 23.2329 173.853 23.2748 173.83 23.3123C173.806 23.3499 173.775 23.3824 173.739 23.408C173.703 23.4337 173.662 23.4519 173.618 23.4617Z" fill="#74B5CB"/>
<path d="M175.011 21.2071L173.903 21.4619C173.819 21.4718 173.735 21.4504 173.666 21.4019C173.597 21.3534 173.548 21.2811 173.529 21.1988C173.509 21.1166 173.521 21.0302 173.562 20.9561C173.602 20.8819 173.668 20.8254 173.748 20.7971L174.856 20.5423C174.902 20.5261 174.95 20.5197 174.998 20.5235C175.046 20.5274 175.093 20.5414 175.136 20.5645C175.178 20.5877 175.215 20.6196 175.244 20.6581C175.274 20.6966 175.295 20.7408 175.306 20.7879C175.316 20.835 175.317 20.8838 175.308 20.9313C175.299 20.9788 175.28 21.0238 175.252 21.0633C175.224 21.1029 175.189 21.1361 175.147 21.1609C175.105 21.1857 175.059 21.2014 175.011 21.2071Z" fill="#74B5CB"/>
<path d="M84.9162 23.3342C84.8537 23.3923 84.7715 23.4245 84.6863 23.4245C84.601 23.4245 84.5189 23.3923 84.4564 23.3342L84.2181 23.1016C83.9221 22.811 83.5315 22.6366 83.1175 22.6101C82.7036 22.5837 82.2939 22.707 81.9634 22.9575L81.703 23.157C81.635 23.2093 81.5497 23.2339 81.4643 23.2256C81.3789 23.2174 81.2999 23.177 81.2432 23.1127C81.1848 23.0492 81.1523 22.9662 81.1523 22.88C81.1523 22.7938 81.1848 22.7107 81.2432 22.6473L81.4703 22.4146C81.7619 22.1192 81.937 21.7284 81.9635 21.3141C81.99 20.8999 81.866 20.49 81.6143 20.1598L81.4149 19.8994C81.3657 19.8293 81.3432 19.7439 81.3513 19.6586C81.3594 19.5733 81.3977 19.4937 81.4592 19.4341C81.5232 19.3769 81.606 19.3452 81.6919 19.3452C81.7777 19.3452 81.8606 19.3769 81.9246 19.4341L82.1628 19.6668C82.4579 19.9569 82.8476 20.1311 83.2606 20.1576C83.6736 20.184 84.0823 20.0609 84.412 19.8108L84.678 19.6114C84.7459 19.559 84.8312 19.5345 84.9166 19.5427C85.002 19.5509 85.0811 19.5913 85.1378 19.6557C85.195 19.7197 85.2267 19.8025 85.2267 19.8884C85.2267 19.9742 85.195 20.0571 85.1378 20.1211L84.9051 20.3537C84.6154 20.6504 84.442 21.0414 84.4165 21.4554C84.3911 21.8693 84.5154 22.2786 84.7666 22.6085L84.966 22.8689C85.0169 22.9389 85.0399 23.0252 85.0307 23.1112C85.0215 23.1971 84.9807 23.2766 84.9162 23.3342ZM82.5229 21.9714C82.9381 21.8888 83.3676 21.9156 83.7694 22.049C83.6811 21.636 83.7079 21.2067 83.847 20.808C83.4318 20.8908 83.0022 20.8641 82.6005 20.7304C82.6831 21.1438 82.6563 21.5716 82.5229 21.9714Z" fill="#74B5CB"/>
<path d="M97.8995 31.1012C97.5655 31.4088 97.1427 31.6027 96.6918 31.6552C96.1763 31.7173 95.6556 31.5933 95.2236 31.3053C94.7916 31.0174 94.4767 30.5846 94.3357 30.0849C94.1947 29.5853 94.2369 29.0517 94.4547 28.5804C94.6725 28.1091 95.0515 27.7311 95.5234 27.5147C95.9952 27.2982 96.5289 27.2575 97.0282 27.3999C97.5275 27.5423 97.9594 27.8583 98.2462 28.2911C98.5329 28.7239 98.6555 29.245 98.592 29.7602C98.5284 30.2755 98.2828 30.7511 97.8995 31.1012ZM95.3566 28.4254C95.2988 28.4825 95.2451 28.5435 95.1959 28.6082C95.0758 28.765 94.9879 28.9441 94.9373 29.135C94.8867 29.326 94.8744 29.5251 94.9012 29.7208C94.928 29.9166 94.9933 30.1051 95.0933 30.2754C95.1934 30.4458 95.3262 30.5946 95.484 30.7134C95.6402 30.833 95.8185 30.9206 96.0087 30.971C96.1988 31.0214 96.3971 31.0336 96.592 31.007C96.828 30.9757 97.0532 30.8889 97.2492 30.7538C97.4452 30.6186 97.6063 30.439 97.7195 30.2296C97.8327 30.0201 97.8946 29.7869 97.9002 29.5489C97.9059 29.3109 97.855 29.075 97.7519 28.8604C97.6488 28.6458 97.4963 28.4588 97.3069 28.3145C97.1175 28.1703 96.8967 28.0729 96.6625 28.0305C96.4282 27.9881 96.1873 28.0017 95.9593 28.0703C95.7314 28.139 95.5229 28.2606 95.3511 28.4254H95.3566Z" fill="#74B5CB"/>
<path d="M81.8768 34.8188L81.0403 35.5888C81.0085 35.6254 80.9693 35.6549 80.9253 35.6752C80.8814 35.6956 80.8336 35.7064 80.7851 35.707C80.7367 35.7076 80.6886 35.6979 80.6442 35.6786C80.5997 35.6593 80.5599 35.6308 80.5272 35.595C80.4946 35.5592 80.4698 35.5169 80.4547 35.4709C80.4396 35.4248 80.4343 35.3761 80.4394 35.3279C80.4444 35.2797 80.4596 35.2331 80.4839 35.1912C80.5082 35.1493 80.5411 35.113 80.5804 35.0847L81.4114 34.3479C81.4793 34.2983 81.5629 34.2754 81.6465 34.2833C81.7301 34.2912 81.8079 34.3295 81.8652 34.3909C81.9225 34.4523 81.9553 34.5325 81.9575 34.6165C81.9596 34.7004 81.9309 34.7823 81.8768 34.8465V34.8188Z" fill="#74B5CB"/>
<path d="M83.6009 35.6936C83.5366 35.7569 83.4501 35.7923 83.3599 35.7923C83.2697 35.7923 83.1831 35.7569 83.1189 35.6936L82.3544 34.8571C82.2924 34.7921 82.2578 34.7058 82.2578 34.6161C82.2578 34.5263 82.2924 34.44 82.3544 34.3751C82.4186 34.3118 82.5052 34.2764 82.5954 34.2764C82.6855 34.2764 82.7721 34.3118 82.8363 34.3751L83.6009 35.2172C83.6638 35.2805 83.6991 35.3661 83.6991 35.4554C83.6991 35.5447 83.6638 35.6303 83.6009 35.6936Z" fill="#74B5CB"/>
<path d="M83.7627 33.0848L82.9262 33.8549C82.8619 33.9181 82.7754 33.9536 82.6852 33.9536C82.595 33.9536 82.5085 33.9181 82.4442 33.8549C82.3822 33.7899 82.3477 33.7036 82.3477 33.6139C82.3477 33.5241 82.3822 33.4378 82.4442 33.3729L83.2863 32.6084C83.3528 32.5546 83.4372 32.528 83.5225 32.534C83.6078 32.54 83.6876 32.5781 83.7459 32.6407C83.8042 32.7032 83.8367 32.7855 83.8367 32.871C83.8367 32.9565 83.8044 33.0388 83.7461 33.1014L83.7627 33.0848Z" fill="#74B5CB"/>
<path d="M81.8715 33.7938C81.8072 33.857 81.7207 33.8925 81.6305 33.8925C81.5403 33.8925 81.4538 33.857 81.3895 33.7938L80.625 32.9572C80.5948 32.9245 80.5713 32.8861 80.556 32.8443C80.5406 32.8025 80.5336 32.7581 80.5354 32.7136C80.5372 32.6691 80.5478 32.6254 80.5665 32.585C80.5852 32.5446 80.6116 32.5082 80.6444 32.478C80.6771 32.4478 80.7155 32.4244 80.7573 32.409C80.7991 32.3936 80.8435 32.3867 80.888 32.3885C80.9325 32.3903 80.9762 32.4008 81.0166 32.4195C81.057 32.4382 81.0934 32.4647 81.1236 32.4974L81.8936 33.3339C81.9487 33.3992 81.9771 33.4829 81.973 33.5682C81.9689 33.6535 81.9326 33.7341 81.8715 33.7938Z" fill="#74B5CB"/>
</svg>
