<svg width="122" height="166" viewBox="0 0 122 166" fill="none" xmlns="http://www.w3.org/2000/svg">
<path d="M35.0997 56.6378C36.2267 58.0391 37.4591 59.3532 38.7863 60.5687C40.1671 61.8808 41.3678 63.3683 42.3577 64.9929C44.1983 68.3937 45.5711 72.026 46.4395 75.7928C47.2839 79.4745 48.5717 83.0402 50.275 86.4128C52.0268 89.5144 54.5719 91.8821 57.1706 94.265C59.7692 96.6478 62.3314 99.2273 63.7697 102.6C65.3021 106.213 65.7913 110.145 66.4899 113.971C67.0861 117.418 68.2257 120.748 69.8665 123.839C71.4861 126.66 73.3462 129.338 75.4264 131.842C79.4858 136.942 84.0673 141.922 86.3098 148.148C86.5884 148.93 86.8184 149.714 87.0231 150.515C87.1387 150.946 87.9392 150.83 87.8329 150.397C86.2627 144.019 82.0908 138.831 78.0191 133.833C75.8323 131.264 73.7902 128.576 71.9019 125.782C70.0076 122.898 68.6161 119.716 67.7857 116.369C66.8747 112.599 66.4975 108.716 65.4109 104.993C64.9024 103.15 64.1338 101.389 63.128 99.7615C62.2108 98.3518 61.1378 97.0489 59.9289 95.877C57.459 93.4203 54.6392 91.2836 52.5075 88.5002C50.1744 85.4461 48.9031 81.7731 47.8153 78.1197C46.8853 74.4561 45.7006 70.8619 44.2698 67.363C43.5332 65.6798 42.6048 64.0868 41.5027 62.6151C40.3235 61.2182 39.0319 59.9193 37.6406 58.7311C36.8425 58.0008 36.0989 57.2137 35.4157 56.376C35.2809 56.2056 34.9114 56.3046 35.0726 56.5368L35.0997 56.6378Z" fill="#E0E0E0"/>
<path d="M35.1588 58.6595C35.5379 59.2405 35.6907 59.9397 35.5886 60.6262C35.4864 61.3127 35.1363 61.9394 34.6038 62.3891C34.3365 62.6058 34.0181 62.751 33.6789 62.8109C33.3397 62.8708 32.991 62.8433 32.666 62.7312C32.4254 62.6088 32.2204 62.3981 32.3461 62.1283C32.4054 62.0339 32.4834 61.9524 32.5753 61.8889C32.6672 61.8254 32.7711 61.7811 32.8807 61.7588C33.074 61.6807 33.2811 61.6421 33.4895 61.6454C33.698 61.6487 33.9034 61.6939 34.0936 61.7781C34.3761 61.9205 34.626 62.1191 34.8281 62.3614C35.0302 62.6038 35.1801 62.885 35.2686 63.1875C35.357 63.4901 35.3823 63.8076 35.3426 64.1206C35.303 64.4336 35.1994 64.7355 35.0382 65.0075C34.8562 65.2686 34.6116 65.4805 34.3267 65.6238C34.0418 65.7672 33.7256 65.8375 33.4068 65.8283C33.118 65.8212 32.8391 65.7238 32.6096 65.55C32.3277 65.3108 32.0945 64.7732 32.6376 64.6572C33.0028 64.6203 33.3687 64.7143 33.6695 64.9224C33.9703 65.1304 34.1861 65.4386 34.2781 65.7916C34.3686 66.244 34.2777 66.7143 34.0245 67.102C33.7714 67.4896 33.3762 67.7639 32.9233 67.8663C32.6462 67.9406 32.9416 68.3041 33.143 68.2797C33.639 68.2082 34.0925 67.9599 34.419 67.581C34.7455 67.2021 34.9227 66.7185 34.9176 66.2203C34.8834 65.7607 34.7063 65.3234 34.4109 64.969C34.1156 64.6146 33.7165 64.3606 33.2689 64.2421C33.057 64.1615 32.829 64.1315 32.603 64.1544C32.3771 64.1774 32.1595 64.2527 31.9678 64.3743C31.8218 64.4997 31.7228 64.6705 31.687 64.8588C31.6511 65.0471 31.6805 65.2418 31.7704 65.4109C32.0127 65.7988 32.3784 66.0947 32.8096 66.2518C33.2409 66.4089 33.7129 66.4182 34.151 66.2782C34.6092 66.1334 35.0184 65.8654 35.3334 65.5038C35.6484 65.1423 35.8568 64.7014 35.9356 64.2299C36.0143 63.7585 35.9603 63.275 35.7795 62.8331C35.5987 62.3912 35.2982 62.008 34.9113 61.7263C34.5028 61.3926 33.9954 61.2013 33.4664 61.1814C32.9374 61.1616 32.4159 61.3142 31.9812 61.6162C31.8186 61.7466 31.7111 61.9328 31.6799 62.138C31.6487 62.3431 31.6961 62.5522 31.8127 62.7238C31.9658 62.9234 32.1638 63.0847 32.3909 63.1946C32.618 63.3045 32.8679 63.3601 33.1208 63.357C33.6606 63.385 34.1978 63.2605 34.6705 62.9981C35.1432 62.7357 35.5321 62.3459 35.7924 61.8738C36.0605 61.3313 36.1621 60.7226 36.0845 60.124C36.0069 59.5254 35.7534 58.9634 35.3559 58.5083C35.2235 58.347 34.9981 58.4664 35.1101 58.6627L35.1588 58.6595Z" fill="#E0E0E0"/>
<path d="M33.2112 59.6043C32.5552 58.5602 32.9194 54.3406 33.3351 54.0817C33.7509 53.8227 37.4753 55.3825 38.167 56.4859C38.2876 56.7148 38.3437 56.9721 38.3293 57.2305C38.3149 57.489 38.2306 57.7389 38.0852 57.954C37.7155 58.5696 37.2048 59.0898 36.5949 59.4721C35.9849 59.8544 35.2931 60.0879 34.576 60.1535C34.3196 60.1895 34.0585 60.1577 33.8189 60.0612C33.5793 59.9648 33.3697 59.8072 33.2112 59.6043Z" fill="#74B5CB"/>
<path opacity="0.4" d="M33.2112 59.6043C32.5552 58.5602 32.9194 54.3406 33.3351 54.0817C33.7509 53.8227 37.4753 55.3825 38.167 56.4859C38.2876 56.7148 38.3437 56.9721 38.3293 57.2305C38.3149 57.489 38.2306 57.7389 38.0852 57.954C37.7155 58.5696 37.2048 59.0898 36.5949 59.4721C35.9849 59.8544 35.2931 60.0879 34.576 60.1535C34.3196 60.1895 34.0585 60.1577 33.8189 60.0612C33.5793 59.9648 33.3697 59.8072 33.2112 59.6043Z" fill="black"/>
<path d="M6.95847 44.4938C12.0055 52.4675 24.6617 58.5793 34.1111 55.3096C40.9403 47.8034 41.0822 34.2191 36.04 26.2638C30.9979 18.3085 21.1185 14.0989 11.7555 19.982C2.39259 25.865 1.91385 36.5293 6.95847 44.4938Z" fill="#74B5CB"/>
<path opacity="0.2" d="M6.95847 44.4938C12.0055 52.4675 24.6617 58.5793 34.1111 55.3096C40.9403 47.8034 41.0822 34.2191 36.04 26.2638C30.9979 18.3085 21.1185 14.0989 11.7555 19.982C2.39259 25.865 1.91385 36.5293 6.95847 44.4938Z" fill="black"/>
<path opacity="0.1" d="M38.0371 30.8043C38.0371 30.8043 40.7164 39.8059 31.5662 46.4091C22.7554 52.764 8.94262 47.4343 5.0311 40.632C5.53866 41.9816 6.18394 43.2756 6.95683 44.4937C12.0039 52.4673 24.6601 58.5792 34.1094 55.3094C39.769 49.0906 40.8245 38.6948 38.1596 30.7813L38.0371 30.8043Z" fill="black"/>
<path d="M74.4478 55.3921C76.6588 61.6536 77.4762 68.3219 76.8435 74.9369C76.5892 78.1629 76.1194 81.3974 76.1786 84.6477C76.2678 88.0271 77.1056 91.343 78.6322 94.359C80.078 97.3164 81.7535 100.133 83.0589 103.158C84.32 106.025 85.3014 109.007 85.9895 112.063C87.4809 118.147 87.1272 124.54 84.9728 130.436C84.3791 132.101 83.9815 133.829 83.788 135.584C83.6863 137.375 83.8926 139.17 84.398 140.89C85.3646 144.497 87.139 147.868 87.6622 151.594C87.7199 152.031 88.5321 151.922 88.4719 151.476C88.0059 148.148 86.5656 145.1 85.5429 141.912C85.0046 140.333 84.6778 138.691 84.5707 137.027C84.552 135.413 84.7895 133.806 85.2744 132.264C85.7115 130.681 86.2816 129.151 86.7188 127.568C87.1266 126.098 87.41 124.597 87.5658 123.081C87.8738 120.087 87.7737 117.066 87.2682 114.101C86.2441 107.804 83.6658 102.061 80.6817 96.466C79.0273 93.3579 77.5366 90.1962 77.1691 86.6449C76.9642 83.3289 77.0903 79.9998 77.5454 76.7065C78.2432 69.4463 77.8483 61.987 75.2618 55.1052C75.1536 54.7013 74.3457 54.9375 74.51 55.3656L74.4478 55.3921Z" fill="#E0E0E0"/>
<path d="M76.1979 56.4277C76.1866 56.9416 76.3076 57.4494 76.5494 57.9028C76.7912 58.3563 77.1457 58.7403 77.5794 59.0184C78.0131 59.2966 78.5114 59.4595 79.027 59.4919C79.5426 59.5242 80.0584 59.4249 80.5254 59.2032C81.2545 58.8209 82.2586 57.6173 81.2213 56.9607C80.9926 56.8567 80.7414 56.8106 80.4901 56.8265C80.2387 56.8424 79.995 56.9197 79.7806 57.0516C79.2843 57.2716 78.889 57.6691 78.6731 58.1649C78.483 58.6106 78.4158 59.0982 78.4783 59.5776C78.5408 60.0569 78.7308 60.5107 79.0286 60.8919C79.3265 61.2732 79.7214 61.5683 80.1728 61.7467C80.6241 61.9251 81.1155 61.9804 81.5963 61.9069C82.0482 61.8313 82.4657 61.618 82.791 61.2964C83.1163 60.9748 83.3334 60.5609 83.4121 60.1119C83.4353 59.9087 83.3957 59.7034 83.2987 59.5233C83.2017 59.3433 83.0518 59.1971 82.8689 59.1041C82.6861 59.0111 82.4789 58.9757 82.275 59.0027C82.0711 59.0296 81.88 59.1176 81.7272 59.255C81.325 59.6003 81.0634 60.0798 80.9919 60.6029C80.9205 61.126 81.0441 61.6563 81.3395 62.0937C81.6626 62.5168 82.1289 62.8089 82.6526 62.9163C83.1762 63.0237 83.7218 62.9391 84.1888 62.678C84.4093 62.5402 84.0683 62.2283 83.8607 62.3036C83.5604 62.4636 83.2166 62.5235 82.8801 62.4745C82.5436 62.4255 82.2321 62.2702 81.9918 62.0314C81.7514 61.7927 81.5948 61.4831 81.5451 61.1485C81.4954 60.8138 81.5552 60.4719 81.7158 60.173C81.8483 59.8915 82.1501 59.4663 82.5189 59.4757C82.7 59.4862 82.6944 59.4287 82.7559 59.6582C82.7844 59.7289 82.8042 59.8029 82.815 59.8785C82.8187 60.0667 82.7771 60.2533 82.6935 60.4226C82.5519 60.6944 82.344 60.9267 82.089 61.0981C81.834 61.2696 81.5399 61.3747 81.2338 61.4039C79.7918 61.564 78.8577 59.9255 79.2116 58.66C79.2898 58.303 79.4766 57.9782 79.7466 57.7298C80.0166 57.4814 80.3567 57.3216 80.7207 57.2719C81.2742 57.2318 81.0665 57.8974 80.8835 58.212C80.6414 58.5319 80.3106 58.7745 79.9319 58.9097C78.2372 59.531 76.8309 58.0879 76.5864 56.5105C76.552 56.382 76.2405 56.1802 76.2417 56.4062L76.1979 56.4277Z" fill="#E0E0E0"/>
<path d="M72.1179 56.9309C72.0272 55.7059 74.3468 52.1331 74.8332 52.1011C75.3196 52.0691 77.8767 55.2206 77.9889 56.4891C77.9821 56.7451 77.9079 56.995 77.7737 57.2139C77.6396 57.4328 77.4501 57.6131 77.2243 57.7368C76.6097 58.1204 75.9122 58.3528 75.19 58.4145C74.4679 58.4763 73.7419 58.3656 73.0724 58.0918C72.8292 58.004 72.6137 57.8538 72.4479 57.6564C72.282 57.459 72.1715 57.2214 72.1277 56.9676L72.1179 56.9309Z" fill="#74B5CB"/>
<path opacity="0.3" d="M72.1179 56.9309C72.0272 55.7059 74.3468 52.1331 74.8332 52.1011C75.3196 52.0691 77.8767 55.2206 77.9889 56.4891C77.9821 56.7451 77.9079 56.995 77.7737 57.2139C77.6396 57.4328 77.4501 57.6131 77.2243 57.7368C76.6097 58.1204 75.9122 58.3528 75.19 58.4145C74.4679 58.4763 73.7419 58.3656 73.0724 58.0918C72.8292 58.004 72.6137 57.8538 72.4479 57.6564C72.282 57.459 72.1715 57.2214 72.1277 56.9676L72.1179 56.9309Z" fill="white"/>
<path d="M56.1082 31.304C56.7881 40.7135 65.0676 52.0315 74.9382 53.5479C84.5009 50.1101 91.0486 38.1541 90.3712 28.7538C89.6938 19.3535 82.977 11.06 71.9314 11.8455C60.8858 12.6311 55.4308 21.9038 56.1082 31.304Z" fill="#74B5CB"/>
<path opacity="0.5" d="M56.1082 31.304C56.7881 40.7135 65.0676 52.0315 74.9382 53.5479C84.5009 50.1101 91.0486 38.1541 90.3712 28.7538C89.6938 19.3535 82.977 11.06 71.9314 11.8455C60.8858 12.6311 55.4308 21.9038 56.1082 31.304Z" fill="white"/>
<path opacity="0.05" d="M89.9714 33.721C89.9714 33.721 88.0746 42.9355 76.8994 44.4936C66.1245 45.9937 56.4909 34.8319 56.2408 26.9895C56.0542 28.4203 56.0104 29.8655 56.1099 31.3039C56.7898 40.7134 65.0693 52.0314 74.9399 53.5478C82.8677 50.6956 88.6747 41.9976 90.097 33.7464L89.9714 33.721Z" fill="black"/>
<path d="M61.4179 68.9467C61.9821 70.2654 62.4576 71.6202 62.8411 73.0021C63.1498 74.3612 63.3256 75.7472 63.366 77.1408C63.4416 79.7971 63.7397 82.4419 64.257 85.0476C65.3954 90.0351 68.7256 94.0026 71.3371 98.2807C72.7002 100.363 73.7119 102.654 74.3324 105.063C74.8207 107.817 75.0198 110.616 74.9265 113.413C74.9128 116.194 75.2718 118.962 75.9941 121.646C76.796 124.322 77.9723 126.872 79.4885 129.22C80.3526 130.519 81.1375 131.869 81.839 133.263C82.488 134.715 82.9807 136.231 83.3089 137.788C84.009 140.807 84.4579 143.923 85.8872 146.708C86.0902 147.096 86.8606 146.831 86.6409 146.417C85.3384 143.884 84.8641 141.08 84.263 138.319C83.7344 135.692 82.7778 133.171 81.4311 130.853C79.8842 128.514 78.5577 126.038 77.4687 123.455C76.4791 120.776 75.921 117.958 75.8149 115.103C75.6892 112.343 75.846 109.566 75.4954 106.817C75.1496 104.334 74.3432 101.939 73.1171 99.7515C70.7618 95.395 67.3442 91.6182 65.6423 86.9292C64.731 84.0603 64.2379 81.0751 64.1778 78.0645C64.1468 76.5289 63.9853 74.9991 63.6949 73.4915C63.26 71.8972 62.6541 70.3544 61.8877 68.8897C61.8361 68.697 61.3792 68.6915 61.4905 68.9961L61.4179 68.9467Z" fill="#E0E0E0"/>
<path d="M63.6734 69.5718C63.5496 70.0755 63.5582 70.6019 63.6986 71.1004C63.839 71.5988 64.1063 72.0525 64.4748 72.4175C64.8433 72.7826 65.3005 73.0467 65.8023 73.1843C66.304 73.322 66.8334 73.3286 67.3393 73.2034C68.0967 73.0005 69.2662 72.1559 68.5942 71.2735C67.9222 70.3911 66.3882 71.0579 65.8301 71.7091C65.526 72.0896 65.3302 72.5442 65.2636 73.0251C65.197 73.506 65.2618 73.9955 65.4514 74.4421C65.641 74.8886 65.9482 75.2758 66.3408 75.5627C66.7334 75.8496 67.1969 76.0258 67.6824 76.0726C68.1246 76.1044 68.5672 76.0101 68.9582 75.8008C69.3493 75.5915 69.6725 75.2758 69.8901 74.8908C70.0495 74.7156 70.1379 74.4879 70.1381 74.252C70.1383 74.0162 70.0503 73.7889 69.8912 73.6144C69.7321 73.44 69.5134 73.3308 69.2774 73.308C69.0414 73.2853 68.8051 73.3506 68.6143 73.4914C68.107 73.715 67.7066 74.126 67.498 74.6374C67.2894 75.1487 67.2891 75.7202 67.497 76.2305C67.7263 76.707 68.1206 77.0852 68.6078 77.2959C69.0949 77.5067 69.6426 77.5361 70.1509 77.3787C70.4187 77.3069 70.1326 76.9409 69.9337 76.9745C69.6017 77.0516 69.2541 77.0231 68.94 76.893C68.6258 76.7628 68.3611 76.5377 68.1831 76.2493C68.0052 75.961 67.9231 75.624 67.9483 75.286C67.9736 74.9481 68.105 74.6262 68.324 74.366C68.4786 74.1672 69.1074 73.5953 69.3665 74.008C69.5117 74.2543 69.2708 74.7222 69.1162 74.9211C68.9128 75.1527 68.6538 75.3295 68.3634 75.4348C68.0731 75.5401 67.7609 75.5706 67.456 75.5233C66.115 75.3219 65.5935 73.6712 66.0514 72.5352C66.1857 72.2029 66.4041 71.9105 66.6853 71.6866C66.863 71.5489 67.0666 71.4479 67.2839 71.3897C67.5013 71.3314 67.728 71.3171 67.9507 71.3475C68.4937 71.5266 67.9498 72.1938 67.7164 72.3941C67.4204 72.6075 67.0725 72.7382 66.7089 72.7722C64.9614 72.9748 63.9314 71.2735 64.0163 69.7062C64.0324 69.5445 63.7277 69.331 63.671 69.5627L63.6734 69.5718Z" fill="#E0E0E0"/>
<path d="M59.3439 71.1458C59.0241 69.9526 60.4959 65.9872 60.9646 65.8518C61.4332 65.7164 64.5693 68.2208 64.9641 69.4726C65.0158 69.7251 64.9985 69.9868 64.9142 70.2309C64.8299 70.4749 64.6815 70.6922 64.4846 70.8603C63.963 71.3553 63.3312 71.7205 62.6411 71.9259C61.9509 72.1314 61.2222 72.1712 60.5146 72.0421C60.2576 72.0072 60.0144 71.9062 59.8091 71.749C59.6037 71.5918 59.4434 71.3839 59.3439 71.1458Z" fill="#74B5CB"/>
<path opacity="0.3" d="M59.3439 71.1458C59.0241 69.9526 60.4959 65.9872 60.9646 65.8518C61.4332 65.7164 64.5693 68.2208 64.9641 69.4726C65.0158 69.7251 64.9985 69.9868 64.9142 70.2309C64.8299 70.4749 64.6815 70.6922 64.4846 70.8603C63.963 71.3553 63.3312 71.7205 62.6411 71.9259C61.9509 72.1314 61.2222 72.1712 60.5146 72.0421C60.2576 72.0072 60.0144 71.9062 59.8091 71.749C59.6037 71.5918 59.4434 71.3839 59.3439 71.1458Z" fill="black"/>
<path d="M38.1982 49.5319C40.8756 58.5635 51.4033 67.8527 61.3781 67.2458C69.981 61.8517 73.8083 48.7948 71.1192 39.7565C68.4301 30.7182 60.0731 24.0249 49.4625 27.173C38.8519 30.321 35.4906 40.4985 38.1982 49.5319Z" fill="#74B5CB"/>
<path opacity="0.1" d="M71.8063 44.6581C71.8063 44.6581 71.9296 54.0592 61.3421 57.9586C51.123 61.6806 39.2996 52.8763 37.379 45.2651C37.5059 46.7021 37.777 48.1223 38.1883 49.5047C40.8657 58.5363 51.3934 67.8254 61.3682 67.2186C68.506 62.7483 72.3425 53.014 71.927 44.6651L71.8063 44.6581Z" fill="black"/>
</svg>
