<svg width="134" height="234" viewBox="0 0 134 234" fill="none" xmlns="http://www.w3.org/2000/svg">
<path d="M38.6759 66.8684C39.7985 69.4697 41.1135 71.9809 42.6096 74.3804C44.147 76.9492 45.3453 79.7123 46.1737 82.5985C47.562 88.5453 48.1588 94.6545 47.9483 100.762C47.7361 106.731 48.2326 112.703 49.4271 118.551C50.8025 124.005 53.6566 128.662 56.5848 133.365C59.5129 138.067 62.3079 143.055 63.1065 148.794C63.9494 154.939 63.1065 161.144 62.6185 167.274C62.1294 172.782 62.4987 178.334 63.7128 183.725C65.0029 188.697 66.7098 193.547 68.8148 198.223C72.8373 207.673 77.688 217.153 78.5457 227.58C78.6492 228.887 78.6788 230.179 78.664 231.486C78.664 232.192 79.9062 232.343 79.921 231.637C80.1281 221.255 75.9725 211.625 71.8909 202.325C69.6527 197.506 67.6778 192.566 65.9755 187.526C64.3001 182.346 63.4952 176.917 63.5945 171.465C63.7424 165.336 64.7332 159.251 64.6001 153.121C64.5783 150.098 64.1352 147.094 63.284 144.197C62.4781 141.669 61.3968 139.24 60.0601 136.955C57.3538 132.193 53.9968 127.776 51.9264 122.652C49.6637 117.033 49.2349 110.904 49.0722 104.879C49.1493 98.9035 48.8182 92.9296 48.0814 87.0005C47.6548 84.1286 46.9055 81.3157 45.8483 78.6171C44.646 76.0013 43.2364 73.4891 41.6336 71.1051C40.7338 69.6632 39.938 68.1568 39.2526 66.5979C39.1196 66.2824 38.528 66.2824 38.6759 66.7031V66.8684Z" fill="#E0E0E0"/>
<path d="M37.9496 69.9782C38.2834 71.0207 38.2318 72.151 37.8044 73.1576C37.377 74.1643 36.6032 74.9781 35.6278 75.4469C35.1417 75.6685 34.608 75.76 34.0773 75.7126C33.5466 75.6653 33.0367 75.4807 32.5961 75.1765C32.2856 74.891 32.0637 74.4854 32.3595 74.1248C32.4859 74.0049 32.635 73.9123 32.7977 73.8529C32.9604 73.7935 33.1334 73.7684 33.306 73.7792C33.6261 73.739 33.9509 73.7648 34.2609 73.8552C34.5709 73.9455 34.8598 74.0986 35.1102 74.3051C35.4751 74.6382 35.769 75.0436 35.9739 75.4965C36.1787 75.9494 36.2901 76.4401 36.3012 76.9383C36.3122 77.4366 36.2228 77.9319 36.0383 78.3937C35.8538 78.8555 35.5782 79.2741 35.2285 79.6236C34.8522 79.9478 34.4021 80.1713 33.9191 80.2736C33.436 80.376 32.9355 80.3539 32.463 80.2095C32.0345 80.0804 31.6568 79.8176 31.3835 79.4583C31.0581 78.9775 30.925 78.0611 31.7828 78.1062C32.343 78.1993 32.852 78.4927 33.2181 78.9334C33.5841 79.3742 33.7831 79.9333 33.7792 80.51C33.7334 81.238 33.4093 81.9189 32.876 82.4074C32.3427 82.8959 31.6425 83.1531 30.925 83.1242C30.4814 83.1242 30.7771 83.8002 31.0877 83.8453C31.8572 83.9391 32.6341 83.7454 33.2735 83.3004C33.9128 82.8554 34.3712 82.1893 34.563 81.4265C34.6958 80.7104 34.6063 79.9702 34.3069 79.3081C34.0076 78.646 33.5131 78.0947 32.8919 77.7306C32.6077 77.5208 32.279 77.3817 31.9323 77.3242C31.5856 77.2668 31.2305 77.2928 30.8954 77.4C30.6272 77.5318 30.4109 77.7522 30.282 78.0251C30.153 78.2981 30.119 78.6073 30.1856 78.9024C30.3922 79.5939 30.8201 80.1954 31.4014 80.6118C31.9828 81.0282 32.6842 81.2356 33.3947 81.2011C34.137 81.1675 34.8556 80.9256 35.4709 80.5024C36.0862 80.0791 36.574 79.491 36.8803 78.8033C37.1866 78.1155 37.2995 77.355 37.2063 76.6061C37.1131 75.8572 36.8175 75.1492 36.3524 74.5605C35.8757 73.8838 35.1943 73.384 34.412 73.1372C33.6298 72.8904 32.7896 72.9101 32.0194 73.1933C31.7244 73.326 31.4892 73.5664 31.3605 73.8669C31.2317 74.1675 31.2188 74.5062 31.3243 74.8159C31.4732 75.1835 31.7044 75.5107 31.9997 75.7716C32.2949 76.0324 32.646 76.2196 33.025 76.3183C33.8202 76.5819 34.6725 76.6117 35.4836 76.4044C36.2948 76.197 37.0317 75.7609 37.6094 75.1464C38.2272 74.4276 38.6226 73.5396 38.7462 72.5936C38.8699 71.6477 38.7162 70.6857 38.3045 69.8279C38.1714 69.5275 37.7869 69.6176 37.8756 69.9631L37.9496 69.9782Z" fill="#E0E0E0"/>
<path d="M34.6639 70.6247C34.102 68.7617 36.335 62.4666 37.0597 62.2413C37.7843 62.0159 42.7237 65.9222 43.3152 67.8903C43.4038 68.2892 43.3846 68.7051 43.2597 69.0939C43.1347 69.4827 42.9086 69.8299 42.6054 70.0988C41.8068 70.8877 40.8356 71.4732 39.7715 71.8074C38.7073 72.1417 37.5804 72.2152 36.4829 72.0219C36.0856 71.972 35.7082 71.8165 35.3889 71.5712C35.0695 71.3259 34.8195 70.9994 34.6639 70.6247Z" fill="#ED614A"/>
<path opacity="0.4" d="M34.6639 70.6247C34.102 68.7617 36.335 62.4666 37.0597 62.2413C37.7843 62.0159 42.7237 65.9222 43.3152 67.8903C43.4038 68.2892 43.3846 68.7051 43.2597 69.0939C43.1347 69.4827 42.9086 69.8299 42.6054 70.0988C41.8068 70.8877 40.8356 71.4732 39.7715 71.8074C38.7073 72.1417 37.5804 72.2152 36.4829 72.0219C36.0856 71.972 35.7082 71.8165 35.3889 71.5712C35.0695 71.3259 34.8195 70.9994 34.6639 70.6247Z" fill="black"/>
<path d="M1.49464 36.8054C5.84245 51.0481 22.3021 65.5613 37.7265 64.4345C50.9326 55.7656 56.5818 35.0776 52.234 20.8649C47.8861 6.65222 34.8131 -3.81951 18.4718 1.33372C2.13053 6.48695 -2.85318 22.5776 1.49464 36.8054Z" fill="#ED614A"/>
<path opacity="0.2" d="M1.49464 36.8054C5.84245 51.0481 22.3021 65.5613 37.7265 64.4345C50.9326 55.7656 56.5818 35.0776 52.234 20.8649C47.8861 6.65222 34.8131 -3.81951 18.4718 1.33372C2.13053 6.48695 -2.85318 22.5776 1.49464 36.8054Z" fill="black"/>
<path opacity="0.1" d="M53.4027 28.6172C53.4027 28.6172 53.802 43.4609 37.4902 49.801C21.7849 55.9008 3.28444 42.1087 0.164062 30.1196C0.382065 32.3884 0.828056 34.6287 1.49504 36.8053C5.84286 51.048 22.3025 65.5612 37.7269 64.4344C48.6703 57.2529 54.4083 41.8083 53.5949 28.6322L53.4027 28.6172Z" fill="black"/>
<path d="M97.9432 81.0657C98.7398 91.533 97.2917 102.051 93.6989 111.895C92.0278 116.718 90.0313 121.465 88.8187 126.453C87.5993 131.651 87.5236 137.058 88.5969 142.288C89.5729 147.397 90.9482 152.385 91.6876 157.538C92.4237 162.433 92.6961 167.389 92.501 172.336C92.2936 182.239 89.2063 191.857 83.6279 199.981C82.0746 202.281 80.7893 204.756 79.7977 207.357C78.9288 210.052 78.5187 212.876 78.5851 215.711C78.5851 221.615 79.8864 227.49 79.1766 233.394C79.0879 234.085 80.3449 234.25 80.4336 233.544C81.0695 228.271 80.1378 223.027 79.8864 217.739C79.714 215.109 79.8831 212.467 80.3893 209.881C81.0073 207.409 82.0055 205.051 83.347 202.895C84.6336 200.657 86.0976 198.553 87.3842 196.315C88.5818 194.237 89.6058 192.061 90.4454 189.809C92.1041 185.362 93.1636 180.708 93.5954 175.972C94.5862 165.936 93.0334 156.111 90.8151 146.345C89.5877 140.921 88.6264 135.483 89.4989 129.909C90.5202 124.761 92.041 119.728 94.039 114.885C97.9875 104.082 100.383 92.529 99.2742 80.9606C99.2742 80.2995 97.9728 80.3296 98.0467 81.0507L97.9432 81.0657Z" fill="#E0E0E0"/>
<path d="M100.15 83.3646C99.9276 84.1447 99.9051 84.9697 100.085 85.7612C100.264 86.5526 100.64 87.2842 101.177 87.8864C101.713 88.4887 102.393 88.9415 103.15 89.2019C103.907 89.4623 104.717 89.5216 105.504 89.3742C106.746 89.0887 108.728 87.6615 107.441 86.2342C107.141 85.9818 106.784 85.8086 106.402 85.73C106.02 85.6514 105.625 85.6697 105.252 85.7834C104.423 85.9164 103.673 86.3616 103.152 87.0304C102.69 87.6333 102.394 88.3506 102.296 89.1082C102.197 89.8659 102.3 90.6365 102.592 91.3407C102.884 92.0449 103.356 92.6571 103.959 93.1143C104.562 93.5714 105.274 93.857 106.021 93.9415C106.727 94.011 107.436 93.856 108.05 93.498C108.665 93.14 109.155 92.5967 109.452 91.9433C109.568 91.6423 109.591 91.3126 109.518 90.998C109.445 90.6833 109.28 90.3987 109.044 90.1818C108.808 89.965 108.513 89.8262 108.198 89.7839C107.882 89.7416 107.562 89.7978 107.278 89.9451C106.539 90.3078 105.956 90.9331 105.64 91.7027C105.324 92.4723 105.297 93.3329 105.563 94.1218C105.876 94.9001 106.456 95.5371 107.195 95.9153C107.934 96.2936 108.783 96.3876 109.585 96.1801C109.97 96.0599 109.585 95.4439 109.245 95.4739C108.732 95.5954 108.195 95.5463 107.712 95.3338C107.229 95.1212 106.826 94.7565 106.562 94.2935C106.299 93.8305 106.189 93.2937 106.248 92.7623C106.308 92.2309 106.534 91.7331 106.894 91.3423C107.204 90.9667 107.825 90.4409 108.373 90.6062C108.639 90.6963 108.654 90.6062 108.654 90.9818C108.668 91.1015 108.668 91.2226 108.654 91.3423C108.584 91.6314 108.447 91.8993 108.254 92.1236C107.934 92.4807 107.531 92.7505 107.081 92.908C106.631 93.0655 106.15 93.1057 105.681 93.025C103.463 92.6795 102.723 89.7949 103.759 88.007C104.018 87.4937 104.427 87.0741 104.93 86.8053C105.433 86.5365 106.005 86.4315 106.568 86.5046C107.411 86.6699 106.835 87.6014 106.435 88.007C105.946 88.3965 105.354 88.6315 104.735 88.6831C101.954 88.9385 100.431 86.159 100.697 83.65C100.697 83.4397 100.313 83.004 100.224 83.3496L100.15 83.3646Z" fill="#E0E0E0"/>
<path d="M93.8491 82.4635C94.204 80.5554 99.0991 76.0483 99.8385 76.1985C100.578 76.3487 103.136 82.2081 102.796 84.1913C102.684 84.5793 102.473 84.9306 102.185 85.2101C101.897 85.4895 101.541 85.6873 101.155 85.7838C100.083 86.1182 98.948 86.1876 97.8445 85.9864C96.741 85.7852 95.7008 85.3191 94.8104 84.6269C94.4822 84.3933 94.2204 84.0758 94.0517 83.7065C93.8829 83.3371 93.813 82.9291 93.8491 82.5236V82.4635Z" fill="#ED614A"/>
<path opacity="0.3" d="M93.8491 82.4635C94.204 80.5554 99.0991 76.0483 99.8385 76.1985C100.578 76.3487 103.136 82.2081 102.796 84.1913C102.684 84.5793 102.473 84.9306 102.185 85.2101C101.897 85.4895 101.541 85.6873 101.155 85.7838C100.083 86.1182 98.948 86.1876 97.8445 85.9864C96.741 85.7852 95.7008 85.3191 94.8104 84.6269C94.4822 84.3933 94.2204 84.0758 94.0517 83.7065C93.8829 83.3371 93.813 82.9291 93.8491 82.5236V82.4635Z" fill="white"/>
<path d="M80.202 36.7753C77.4513 51.4237 85.2892 72.0967 99.427 78.4519C115.088 77.1148 129.655 61.5349 132.405 46.9015C135.156 32.2681 128.442 16.8535 111.628 13.5332C94.813 10.2129 82.9526 22.142 80.202 36.7753Z" fill="#ED614A"/>
<path opacity="0.5" d="M80.202 36.7753C77.4513 51.4237 85.2892 72.0967 99.427 78.4519C115.088 77.1148 129.655 61.5349 132.405 46.9015C135.156 32.2681 128.442 16.8535 111.628 13.5332C94.813 10.2129 82.9526 22.142 80.202 36.7753Z" fill="white"/>
<path opacity="0.05" d="M129.817 54.3232C129.817 54.3232 123.296 67.6194 105.978 65.4259C89.2821 63.3076 79.359 42.319 82.1244 30.2397C81.273 32.3485 80.6291 34.5376 80.202 36.7752C77.4513 51.4236 85.2892 72.0966 99.427 78.4517C112.411 77.34 124.567 66.4325 129.995 54.4133L129.817 54.3232Z" fill="black"/>
<path d="M73.0576 96.4355C73.3726 98.6803 73.5405 100.944 73.5604 103.211C73.4775 105.413 73.1853 107.602 72.6878 109.747C71.7376 113.834 71.1243 117.995 70.8541 122.187C70.5583 130.27 73.9449 137.691 76.1336 145.294C77.3363 149.032 77.9307 152.944 77.8934 156.877C77.5203 161.284 76.6975 165.639 75.4385 169.873C74.305 174.114 73.7331 178.489 73.7379 182.884C73.8646 187.298 74.6014 191.673 75.9265 195.879C76.6972 198.218 77.3293 200.601 77.8195 203.016C78.2078 205.499 78.3367 208.017 78.204 210.528C78.0413 215.425 77.4645 220.368 78.485 225.206C78.6328 225.882 79.8899 225.792 79.7272 225.071C78.7955 220.669 79.2096 216.192 79.4166 211.73C79.6782 207.502 79.2586 203.26 78.1744 199.17C76.7999 194.964 75.8098 190.639 75.2167 186.249C74.8107 181.753 75.1051 177.22 76.0892 172.817C77.0061 168.551 78.3518 164.374 78.9286 160.032C79.4057 156.099 79.1601 152.11 78.204 148.268C76.4293 140.651 72.8358 133.485 72.1703 125.627C71.9574 120.873 72.4155 116.112 73.5308 111.49C74.0992 109.132 74.4703 106.729 74.6399 104.308C74.6283 101.695 74.3408 99.0912 73.7822 96.5406C73.7822 96.2251 73.1019 96.0298 73.1463 96.5406L73.0576 96.4355Z" fill="#E0E0E0"/>
<path d="M76.1761 98.3136C75.7895 99.032 75.5918 99.8396 75.6019 100.658C75.6121 101.477 75.8299 102.279 76.2342 102.987C76.6386 103.696 77.2158 104.286 77.9102 104.702C78.6047 105.117 79.3928 105.344 80.1986 105.36C81.4113 105.36 83.4964 104.549 82.8457 102.926C82.195 101.303 79.6367 101.694 78.5423 102.46C77.9357 102.917 77.4614 103.531 77.1693 104.238C76.8773 104.945 76.7783 105.719 76.8827 106.479C76.9871 107.239 77.2912 107.956 77.7628 108.554C78.2344 109.153 78.8562 109.612 79.5627 109.882C80.2106 110.112 80.9095 110.149 81.5774 109.989C82.2453 109.829 82.8546 109.48 83.3338 108.981C83.6419 108.778 83.8651 108.467 83.9598 108.107C84.0545 107.746 84.014 107.363 83.8462 107.032C83.6785 106.7 83.3953 106.444 83.0519 106.313C82.7085 106.181 82.3293 106.184 81.988 106.321C81.1407 106.455 80.3781 106.919 79.8618 107.615C79.3455 108.31 79.1162 109.183 79.2226 110.047C79.3745 110.869 79.812 111.608 80.4554 112.129C81.0988 112.65 81.9051 112.919 82.7274 112.887C83.1563 112.887 82.8753 112.211 82.5648 112.181C82.038 112.163 81.5301 111.977 81.113 111.65C80.6958 111.322 80.3904 110.87 80.24 110.357C80.0896 109.844 80.1018 109.295 80.2748 108.79C80.4479 108.284 80.773 107.846 81.2042 107.538C81.5148 107.298 82.6831 106.682 82.9049 107.418C83.0232 107.854 82.476 108.47 82.1655 108.71C81.7689 108.981 81.3113 109.145 80.8354 109.187C80.3595 109.229 79.8809 109.148 79.4444 108.951C77.5219 108.094 77.4036 105.36 78.5423 103.812C78.8759 103.36 79.3191 103.003 79.8289 102.776C80.1495 102.638 80.4939 102.567 80.8419 102.567C81.1899 102.567 81.5344 102.638 81.8549 102.776C82.5943 103.271 81.5148 104.068 81.0859 104.278C80.5584 104.483 79.9863 104.54 79.4296 104.443C76.7381 104.038 75.8804 101.018 76.6346 98.6591C76.7233 98.4187 76.3536 97.968 76.1761 98.2986V98.3136Z" fill="#E0E0E0"/>
<path d="M69.0781 98.9448C69.0781 96.9917 72.864 91.538 73.6182 91.523C74.3724 91.508 78.0547 96.6161 78.1435 98.6894C78.1196 99.0961 77.9891 99.4888 77.7654 99.827C77.5418 100.165 77.2332 100.436 76.8717 100.613C75.8944 101.155 74.8045 101.454 73.6913 101.486C72.5781 101.517 71.4735 101.279 70.4682 100.793C70.0983 100.634 69.7754 100.38 69.5316 100.056C69.2878 99.7323 69.1315 99.3491 69.0781 98.9448Z" fill="#ED614A"/>
<path opacity="0.3" d="M69.0781 98.9448C69.0781 96.9917 72.864 91.538 73.6182 91.523C74.3724 91.508 78.0547 96.6161 78.1435 98.6894C78.1196 99.0961 77.9891 99.4888 77.7654 99.827C77.5418 100.165 77.2332 100.436 76.8717 100.613C75.8944 101.155 74.8045 101.454 73.6913 101.486C72.5781 101.517 71.4735 101.279 70.4682 100.793C70.0983 100.634 69.7754 100.38 69.5316 100.056C69.2878 99.7323 69.1315 99.3491 69.0781 98.9448Z" fill="black"/>
<path d="M46.1395 57.2831C46.524 72.1719 58.5323 90.6664 73.6757 93.8215C88.686 89.1039 99.6295 70.7296 99.2302 55.8258C98.8309 40.922 89.0262 27.2802 71.9159 27.746C54.8056 28.2117 45.7106 42.3793 46.1395 57.2831Z" fill="#ED614A"/>
<path opacity="0.1" d="M98.3004 63.5932C98.3004 63.5932 94.7216 78.0012 77.3451 79.6237C60.5898 81.1261 46.4519 62.8419 46.6294 50.4321C46.2438 52.6785 46.0803 54.9585 46.1414 57.238C46.5259 72.1268 58.5342 90.6213 73.6776 93.7763C86.1295 89.8701 95.7568 76.5739 98.4779 63.6532L98.3004 63.5932Z" fill="black"/>
</svg>
