<svg width="86" height="190" viewBox="0 0 86 190" fill="none" xmlns="http://www.w3.org/2000/svg">
<path d="M50.6985 71.3767C54.1644 78.6476 59.1165 85.1109 65.2349 90.3489C68.4168 93.1365 71.8634 95.6481 74.8218 98.6879C76.2533 100.128 77.5189 101.724 78.5948 103.447C79.6982 105.342 80.6032 107.346 81.2952 109.426C82.658 113.374 83.6921 117.415 85.253 121.303C86.6559 124.849 88.3818 128.258 90.4089 131.488C92.4682 134.79 94.9477 137.811 97.7849 140.474C100.593 143.008 103.736 145.143 107.125 146.822C109.106 147.762 110.994 148.89 112.761 150.19C114.609 151.694 116.143 153.546 117.276 155.642C119.646 159.746 121.038 164.265 123.893 168.049C124.221 168.475 125.053 167.927 124.701 167.459C122.117 164.026 120.714 159.937 118.72 156.176C117.823 154.403 116.703 152.75 115.389 151.259C114.074 149.87 112.557 148.688 110.89 147.754C107.54 145.788 104.03 144.257 100.941 141.867C97.8635 139.435 95.1515 136.573 92.8888 133.368C90.6309 130.191 88.7081 126.79 87.1512 123.217C85.6031 119.545 84.2727 115.786 83.167 111.958C82.1006 107.865 80.2847 104.005 77.8115 100.574C75.1464 97.4814 72.1564 94.6847 68.893 92.2322C61.7843 86.3619 55.4216 79.4863 51.5502 70.9808C51.2836 70.519 50.3963 70.8534 50.6279 71.3491L50.6985 71.3767Z" fill="#E0E0E0"/>
<path d="M50.7066 73.7119C51.2988 74.4242 51.5898 75.3395 51.5176 76.2629C51.4453 77.1862 51.0156 78.0447 50.3199 78.6556C49.7563 79.0768 48.2559 79.6283 47.7788 78.7545C47.4589 78.2003 48.3121 77.8308 48.7185 77.7057C48.9675 77.6372 49.228 77.6203 49.4838 77.6561C49.7396 77.6919 49.9855 77.7797 50.2062 77.914C50.5599 78.1061 50.8686 78.3713 51.1118 78.6921C51.355 79.0129 51.527 79.3819 51.6165 79.7743C51.7059 80.1668 51.7107 80.5738 51.6304 80.9682C51.5502 81.3626 51.3868 81.7353 51.1512 82.0614C50.8989 82.352 50.577 82.5737 50.2156 82.7057C49.8541 82.8378 49.4651 82.876 49.0848 82.8167C48.7368 82.7552 48.4253 82.563 48.214 82.2795C47.797 81.6993 48.4787 81.3879 49.0181 81.4459C49.4822 81.4884 49.9178 81.6888 50.2521 82.0137C50.5865 82.3385 50.7995 82.7682 50.8556 83.231C50.8774 83.7065 50.7479 84.1766 50.4858 84.5737C50.2237 84.9709 49.8425 85.2747 49.3968 85.4414C49.0892 85.619 49.392 85.9778 49.6694 85.9134C50.2106 85.7777 50.6938 85.4718 51.048 85.0407C51.4023 84.6096 51.6087 84.0761 51.637 83.5186C51.6297 82.9314 51.4278 82.363 51.063 81.9026C50.6983 81.4423 50.1912 81.1158 49.6212 80.9745C49.0703 80.7883 48.4684 80.8262 47.9454 81.0801C47.8262 81.147 47.7217 81.2373 47.6381 81.3456C47.5545 81.4539 47.4936 81.5779 47.459 81.7102C47.4244 81.8426 47.4168 81.9806 47.4366 82.116C47.4565 82.2513 47.5034 82.3813 47.5745 82.4982C48.167 83.5244 49.6073 83.6506 50.609 83.2775C51.1504 83.0877 51.6255 82.7457 51.9775 82.2925C52.3295 81.8394 52.5433 81.2943 52.5935 80.7225C52.6179 80.1121 52.4846 79.5056 52.2064 78.9616C51.9283 78.4176 51.5146 77.9544 51.0055 77.6167C50.4716 77.2668 49.842 77.092 49.2043 77.1168C48.5666 77.1417 47.9527 77.3648 47.4479 77.7551C47.3361 77.8382 47.242 77.9429 47.1713 78.063C47.1005 78.1831 47.0546 78.3162 47.0362 78.4543C47.0178 78.5925 47.0273 78.733 47.0642 78.8675C47.101 79.002 47.1644 79.1277 47.2507 79.2372C47.4464 79.455 47.6905 79.6238 47.9632 79.7301C48.236 79.8364 48.5298 79.8772 48.8211 79.8493C49.5234 79.8361 50.2059 79.615 50.7824 79.214C51.3589 78.813 51.8036 78.25 52.0602 77.5961C52.3112 76.9001 52.353 76.1456 52.1804 75.4259C52.0079 74.7062 51.6286 74.0526 51.0892 73.5457C50.9826 73.361 50.5703 73.4759 50.761 73.7352L50.7066 73.7119Z" fill="#E0E0E0"/>
<path d="M54.9826 70.2978C53.9781 69.1264 48.8222 68.0122 48.4096 68.3872C47.9971 68.7622 48.4924 73.8123 49.5044 75.0204C49.7331 75.2464 50.0184 75.4065 50.3302 75.4841C50.6421 75.5617 50.9691 75.5537 51.2768 75.4612C52.1427 75.2513 52.9461 74.8381 53.6206 74.256C54.2951 73.6739 54.8213 72.9394 55.1557 72.1134C55.2948 71.8233 55.3532 71.501 55.3245 71.1804C55.2959 70.8598 55.1813 70.5529 54.9929 70.2919L54.9826 70.2978Z" fill="#FFBA29"/>
<path opacity="0.3" d="M54.9826 70.2978C53.9781 69.1264 48.8222 68.0122 48.4096 68.3872C47.9971 68.7622 48.4924 73.8123 49.5044 75.0204C49.7331 75.2464 50.0184 75.4065 50.3302 75.4841C50.6421 75.5617 50.9691 75.5537 51.2768 75.4612C52.1427 75.2513 52.9461 74.8381 53.6206 74.256C54.2951 73.6739 54.8213 72.9394 55.1557 72.1134C55.2948 71.8233 55.3532 71.501 55.3245 71.1804C55.2959 70.8598 55.1813 70.5529 54.9929 70.2919L54.9826 70.2978Z" fill="white"/>
<path d="M46.4442 33.6467C54.1225 42.5404 56.8494 59.793 49.5464 69.8107C38.158 75.168 21.9223 70.3531 14.2441 61.4595C6.56585 52.5658 5.14337 39.349 15.4497 30.3885C25.7561 21.428 38.7542 24.7326 46.4442 33.6467Z" fill="#FFBA29"/>
<path opacity="0.5" d="M46.4442 33.6467C54.1225 42.5404 56.8494 59.793 49.5464 69.8107C38.158 75.168 21.9223 70.3531 14.2441 61.4595C6.56585 52.5658 5.14337 39.349 15.4497 30.3885C25.7561 21.428 38.7542 24.7326 46.4442 33.6467Z" fill="white"/>
<path opacity="0.05" d="M18.9421 65.4783C18.9421 65.4783 28.7083 71.9487 39.8633 63.5107C50.5967 55.3846 49.2119 37.0697 42.5307 29.9265C43.9607 31.0269 45.2719 32.2739 46.4428 33.6471C54.121 42.5407 56.8479 59.7933 49.545 69.811C40.112 74.2446 27.3701 71.6677 18.8766 65.6255L18.9421 65.4783Z" fill="black"/>
<path d="M85.9601 79.3534C94.7569 88.0527 92.6847 101.659 97.6116 112.182C98.8804 114.757 100.533 117.125 102.513 119.204C104.628 121.379 106.481 123.795 108.036 126.4C110.933 131.678 112.454 137.723 113.846 143.569C114.547 146.906 115.427 150.202 116.484 153.444C117.572 156.537 120.007 158.907 121.039 162.02C121.209 162.551 122.145 162.161 121.97 161.619C121.055 158.85 118.948 156.741 117.806 154.076C116.665 151.064 115.787 147.959 115.183 144.795C113.812 138.964 112.435 132.931 109.76 127.539C108.474 124.903 106.825 122.461 104.86 120.284C102.753 118.167 100.895 115.815 99.3224 113.274C96.4524 108.09 95.6207 102.126 94.5154 96.3742C93.2622 90.1061 91.4548 83.4464 86.4513 79.1382C86.2271 78.9393 85.743 79.0956 86.0308 79.381L85.9601 79.3534Z" fill="#E0E0E0"/>
<path d="M84.5805 82.0529C85.2456 82.5732 85.7039 83.3133 85.8733 84.1406C86.0428 84.9679 85.9123 85.8283 85.5052 86.5679C85.2955 86.9217 85.0074 87.2226 84.663 87.4475C84.3187 87.6724 83.9274 87.8152 83.5192 87.865C83.2078 87.8942 82.7331 87.8536 82.6402 87.4558C82.633 87.3382 82.6538 87.2206 82.7008 87.1126C82.7478 87.0047 82.8196 86.9093 82.9105 86.8345C83.127 86.604 83.3935 86.4263 83.6893 86.3147C83.9852 86.2032 84.3027 86.1609 84.6175 86.191C85.0407 86.2499 85.4449 86.4046 85.7994 86.6433C86.1538 86.8821 86.4491 87.1986 86.6628 87.5688C86.8765 87.9389 87.003 88.3529 87.0325 88.7792C87.0621 89.2056 86.994 89.633 86.8334 90.0289C86.6574 90.3666 86.4026 90.6569 86.0906 90.8752C85.7786 91.0934 85.4186 91.2332 85.041 91.2826C84.8521 91.3036 84.6609 91.2862 84.4789 91.2315C84.2969 91.1767 84.1278 91.0856 83.9818 90.9638C83.4859 90.4838 84.0393 90.0686 84.5325 89.9754C85.0161 89.9024 85.5097 90.0113 85.9179 90.281C86.3261 90.5506 86.6201 90.962 86.743 91.4356C86.8231 91.8944 86.7663 92.3666 86.5796 92.7931C86.393 93.2197 86.0848 93.5817 85.6936 93.8339C85.3961 94.0056 85.8635 94.3652 86.0908 94.2613C86.6433 93.9827 87.0766 93.5139 87.3111 92.9411C87.5457 92.3683 87.5657 91.73 87.3675 91.1435C87.1389 90.5872 86.7378 90.1189 86.2232 89.8075C85.7087 89.4962 85.1079 89.3583 84.5093 89.4141C83.4755 89.5184 82.4987 90.4792 83.43 91.4055C83.8918 91.7524 84.4553 91.9368 85.0327 91.9302C85.61 91.9235 86.1689 91.726 86.6222 91.3685C88.9036 89.7777 87.8742 86.4315 85.41 85.6924C84.7324 85.4779 84.0006 85.5123 83.3463 85.7893C83.0388 85.9013 82.7579 86.0759 82.5213 86.302C82.2847 86.5281 82.0975 86.8008 81.9715 87.1029C81.6547 88.4489 83.5006 88.6146 84.3484 88.3303C84.9873 88.1138 85.5513 87.7199 85.9745 87.1945C86.3976 86.6692 86.6624 86.0341 86.738 85.3635C86.7825 84.6479 86.63 83.9336 86.297 83.2984C85.964 82.6632 85.4633 82.1314 84.8494 81.7608C84.6402 81.6353 84.3929 81.8465 84.6112 82.0352L84.5805 82.0529Z" fill="#E0E0E0"/>
<path d="M89.9794 79.3044C89.2151 77.9806 84.4389 75.7715 83.904 76.0529C83.3691 76.3344 82.8416 81.3183 83.5977 82.77C83.7755 83.0373 84.021 83.2526 84.3093 83.3939C84.5975 83.5352 84.918 83.5974 85.238 83.5742C86.1291 83.5507 87.0019 83.3174 87.7858 82.8933C88.5697 82.4693 89.2426 81.8663 89.75 81.1335C89.9438 80.8749 90.0669 80.5702 90.1072 80.2495C90.1474 79.9287 90.1033 79.603 89.9794 79.3044Z" fill="#FFBA29"/>
<path opacity="0.3" d="M89.9794 79.3044C89.2151 77.9806 84.4389 75.7715 83.904 76.0529C83.3691 76.3344 82.8416 81.3183 83.5977 82.77C83.7755 83.0373 84.021 83.2526 84.3093 83.3939C84.5975 83.5352 84.918 83.5974 85.238 83.5742C86.1291 83.5507 87.0019 83.3174 87.7858 82.8933C88.5697 82.4693 89.2426 81.8663 89.75 81.1335C89.9438 80.8749 90.0669 80.5702 90.1072 80.2495C90.1474 79.9287 90.1033 79.603 89.9794 79.3044Z" fill="black"/>
<path d="M89.4513 41.6538C95.0619 51.9875 94.0273 69.4278 84.7693 77.6462C72.4948 80.4503 57.6876 72.3068 52.0695 61.9364C46.4514 51.5661 47.8893 38.3533 59.9391 31.8205C71.989 25.2877 83.8628 31.3348 89.4513 41.6538Z" fill="#FFBA29"/>
<path opacity="0.1" d="M55.7955 66.8997C55.7955 66.8997 63.9533 75.2976 76.644 69.4483C88.8565 63.7657 91.4509 45.6163 86.4341 37.2111C87.5923 38.5873 88.6052 40.0797 89.4564 41.6643C95.067 51.998 94.0323 69.4383 84.7744 77.6567C74.6087 79.9685 62.6785 74.7474 55.6962 67.0118L55.7955 66.8997Z" fill="black"/>
</svg>
