<svg width="117" height="241" viewBox="0 0 117 241" fill="none" xmlns="http://www.w3.org/2000/svg">
<path d="M40.5207 68.6467C41.6939 71.3148 43.0682 73.8903 44.6319 76.3513C46.2386 78.986 47.491 81.8199 48.3567 84.7802C49.8077 90.8795 50.4314 97.1452 50.2114 103.41C49.9896 109.531 50.5086 115.657 51.7569 121.654C53.1943 127.248 56.1773 132.025 59.2375 136.848C62.2977 141.671 65.2188 146.787 66.0534 152.673C66.9344 158.976 66.0534 165.34 65.5434 171.627C65.0323 177.276 65.4183 182.97 66.6871 188.5C68.0354 193.599 69.8193 198.574 72.0193 203.37C76.2232 213.062 81.2927 222.785 82.1891 233.479C82.2973 234.82 82.3282 236.145 82.3128 237.486C82.3128 238.21 83.6111 238.364 83.6265 237.64C83.8429 226.992 79.4999 217.115 75.2341 207.576C72.8949 202.634 70.831 197.567 69.0518 192.398C67.3009 187.086 66.4597 181.517 66.5635 175.926C66.718 169.639 67.7536 163.398 67.6145 157.111C67.5917 154.011 67.1286 150.929 66.2389 147.958C65.3967 145.365 64.2666 142.874 62.8696 140.531C60.0412 135.646 56.5327 131.116 54.369 125.861C52.0042 120.098 51.556 113.811 51.386 107.632C51.4666 101.503 51.1206 95.3762 50.3505 89.2951C49.9046 86.3495 49.1216 83.4645 48.0167 80.6967C46.7601 78.0138 45.287 75.4371 43.6118 72.9921C42.6714 71.5132 41.8398 69.9682 41.1235 68.3693C40.9844 68.0457 40.3662 68.0457 40.5207 68.4772V68.6467Z" fill="#E0E0E0"/>
<path d="M39.7623 71.8368C40.1111 72.906 40.0572 74.0653 39.6106 75.0978C39.1639 76.1302 38.3552 76.965 37.3357 77.4457C36.8278 77.673 36.2699 77.7668 35.7153 77.7183C35.1607 77.6697 34.6278 77.4804 34.1673 77.1684C33.8427 76.8756 33.6109 76.4596 33.92 76.0897C34.0521 75.9667 34.2079 75.8718 34.378 75.8109C34.548 75.75 34.7288 75.7242 34.9092 75.7353C35.2437 75.694 35.5832 75.7205 35.9072 75.8132C36.2312 75.9059 36.5331 76.0628 36.7948 76.2746C37.1762 76.6163 37.4834 77.0321 37.6974 77.4966C37.9115 77.9611 38.0279 78.4644 38.0395 78.9754C38.0511 79.4865 37.9576 79.9945 37.7648 80.4681C37.572 80.9418 37.2839 81.371 36.9184 81.7295C36.5252 82.0621 36.0547 82.2913 35.5499 82.3962C35.0451 82.5012 34.522 82.4786 34.0282 82.3305C33.5803 82.1981 33.1856 81.9285 32.8999 81.56C32.5599 81.0669 32.4208 80.127 33.3172 80.1732C33.9027 80.2687 34.4347 80.5696 34.8173 81.0217C35.1999 81.4737 35.4078 82.0472 35.4037 82.6387C35.3559 83.3853 35.0172 84.0837 34.4598 84.5847C33.9024 85.0857 33.1707 85.3495 32.4208 85.3199C31.9571 85.3199 32.2663 86.0133 32.5908 86.0595C33.3951 86.1557 34.207 85.957 34.8752 85.5006C35.5434 85.0442 36.0224 84.3611 36.2229 83.5786C36.3617 82.8442 36.2682 82.085 35.9553 81.4059C35.6424 80.7268 35.1256 80.1615 34.4764 79.788C34.1794 79.5728 33.8359 79.4301 33.4736 79.3712C33.1112 79.3124 32.7401 79.339 32.3899 79.4489C32.1095 79.5841 31.8835 79.8102 31.7487 80.0901C31.614 80.37 31.5785 80.6872 31.648 80.9899C31.864 81.699 32.3112 82.316 32.9187 82.7431C33.5263 83.1702 34.2594 83.3829 35.0019 83.3475C35.7777 83.313 36.5288 83.0649 37.1718 82.6308C37.8148 82.1968 38.3246 81.5936 38.6448 80.8882C38.9649 80.1828 39.0828 79.4028 38.9854 78.6347C38.888 77.8666 38.5792 77.1404 38.093 76.5366C37.5948 75.8426 36.8827 75.3299 36.0651 75.0768C35.2476 74.8236 34.3695 74.8439 33.5645 75.1344C33.2562 75.2704 33.0105 75.517 32.8759 75.8253C32.7414 76.1335 32.7279 76.4809 32.8381 76.7986C32.9937 77.1756 33.2354 77.5112 33.5439 77.7787C33.8525 78.0462 34.2194 78.2382 34.6155 78.3395C35.4466 78.6098 36.3373 78.6404 37.1851 78.4277C38.0328 78.2151 38.803 77.7678 39.4068 77.1376C40.0524 76.4003 40.4657 75.4895 40.5949 74.5193C40.7241 73.5491 40.5635 72.5624 40.1332 71.6827C39.9941 71.3745 39.5922 71.467 39.685 71.8214L39.7623 71.8368Z" fill="#E0E0E0"/>
<path d="M36.332 72.499C35.7447 70.5883 38.0785 64.1318 38.8359 63.9007C39.5932 63.6696 44.7554 67.676 45.3736 69.6946C45.4662 70.1037 45.4462 70.5303 45.3156 70.929C45.185 71.3278 44.9487 71.6839 44.6317 71.9597C43.7971 72.7688 42.7822 73.3693 41.67 73.7121C40.5579 74.055 39.3801 74.1304 38.2331 73.9321C37.8178 73.8809 37.4235 73.7215 37.0897 73.4699C36.756 73.2183 36.4946 72.8834 36.332 72.499Z" fill="#FFBA29"/>
<path opacity="0.4" d="M36.332 72.499C35.7447 70.5883 38.0785 64.1318 38.8359 63.9007C39.5932 63.6696 44.7554 67.676 45.3736 69.6946C45.4662 70.1037 45.4462 70.5303 45.3156 70.929C45.185 71.3278 44.9487 71.6839 44.6317 71.9597C43.7971 72.7688 42.7822 73.3693 41.67 73.7121C40.5579 74.055 39.3801 74.1304 38.2331 73.9321C37.8178 73.8809 37.4235 73.7215 37.0897 73.4699C36.756 73.2183 36.4946 72.8834 36.332 72.499Z" fill="black"/>
<path d="M1.66362 37.8131C6.20758 52.421 23.4097 67.3063 39.53 66.1506C53.3319 57.2595 59.2359 36.041 54.6919 21.4639C50.148 6.88675 36.4852 -3.85348 19.4067 1.43189C2.32821 6.71725 -2.88034 23.2205 1.66362 37.8131Z" fill="#FFBA29"/>
<path opacity="0.2" d="M1.66362 37.8131C6.20758 52.421 23.4097 67.3063 39.53 66.1506C53.3319 57.2595 59.2359 36.041 54.6919 21.4639C50.148 6.88675 36.4852 -3.85348 19.4067 1.43189C2.32821 6.71725 -2.88034 23.2205 1.66362 37.8131Z" fill="black"/>
<path opacity="0.1" d="M55.9138 29.415C55.9138 29.415 56.3311 44.6393 39.2835 51.142C22.8696 57.3982 3.53458 43.2525 0.273438 30.956C0.501274 33.283 0.967386 35.5807 1.66446 37.8131C6.20842 52.421 23.4106 67.3063 39.5308 66.1506C50.968 58.785 56.9648 42.9443 56.1147 29.4304L55.9138 29.415Z" fill="black"/>
<path d="M102.465 83.2085C103.298 93.9442 101.784 104.732 98.0295 114.828C96.283 119.775 94.1965 124.644 92.9291 129.76C91.6548 135.091 91.5756 140.636 92.6973 146.001C93.7173 151.24 95.1547 156.356 95.9275 161.641C96.6968 166.662 96.9815 171.745 96.7776 176.82C96.5608 186.976 93.3342 196.841 87.5042 205.173C85.8808 207.532 84.5375 210.071 83.5011 212.738C82.593 215.502 82.1645 218.399 82.2338 221.306C82.2338 227.362 83.5939 233.387 82.852 239.443C82.7593 240.151 84.073 240.321 84.1658 239.597C84.8304 234.188 83.8566 228.81 83.5939 223.386C83.4137 220.689 83.5904 217.979 84.1194 215.327C84.7654 212.792 85.8086 210.373 87.2105 208.162C88.5552 205.866 90.0853 203.709 91.4299 201.413C92.6815 199.282 93.7517 197.05 94.6292 194.74C96.3627 190.179 97.4701 185.405 97.9213 180.549C98.9568 170.255 97.334 160.178 95.0156 150.162C93.7328 144.599 92.7282 139.021 93.64 133.304C94.7074 128.024 96.2968 122.862 98.3849 117.895C102.512 106.815 105.015 94.9657 103.856 83.1006C103.856 82.4226 102.496 82.4535 102.573 83.1931L102.465 83.2085Z" fill="#E0E0E0"/>
<path d="M104.768 85.566C104.535 86.3662 104.512 87.2123 104.7 88.024C104.887 88.8358 105.28 89.5862 105.841 90.2038C106.402 90.8215 107.111 91.2859 107.903 91.553C108.694 91.8201 109.541 91.8809 110.363 91.7297C111.661 91.437 113.732 89.9731 112.388 88.5092C112.074 88.2504 111.701 88.0727 111.302 87.9921C110.903 87.9114 110.49 87.9303 110.1 88.0469C109.233 88.1833 108.45 88.6399 107.905 89.3259C107.422 89.9442 107.113 90.6799 107.01 91.457C106.907 92.234 107.014 93.0244 107.32 93.7467C107.625 94.4689 108.118 95.0968 108.748 95.5657C109.378 96.0346 110.122 96.3274 110.904 96.4141C111.641 96.4854 112.382 96.3265 113.024 95.9593C113.667 95.5921 114.179 95.0349 114.49 94.3647C114.611 94.056 114.635 93.7178 114.559 93.3951C114.483 93.0724 114.31 92.7805 114.063 92.5581C113.817 92.3356 113.508 92.1933 113.178 92.1499C112.849 92.1066 112.514 92.1642 112.218 92.3153C111.445 92.6873 110.836 93.3286 110.506 94.1179C110.175 94.9073 110.147 95.7899 110.425 96.599C110.752 97.3973 111.358 98.0506 112.131 98.4386C112.903 98.8265 113.79 98.923 114.629 98.7101C115.031 98.5868 114.629 97.955 114.273 97.9859C113.737 98.1105 113.176 98.0601 112.671 97.8421C112.166 97.6241 111.745 97.2501 111.469 96.7752C111.194 96.3003 111.079 95.7497 111.141 95.2047C111.204 94.6597 111.44 94.1491 111.816 93.7483C112.14 93.3631 112.789 92.8238 113.361 92.9933C113.64 93.0857 113.655 92.9933 113.655 93.3785C113.67 93.5013 113.67 93.6255 113.655 93.7483C113.582 94.0448 113.439 94.3196 113.238 94.5496C112.903 94.9159 112.481 95.1926 112.011 95.3541C111.542 95.5156 111.038 95.5569 110.548 95.4742C108.23 95.1197 107.457 92.1612 108.539 90.3275C108.811 89.801 109.238 89.3707 109.764 89.095C110.289 88.8193 110.887 88.7116 111.476 88.7866C112.357 88.9561 111.754 89.9114 111.337 90.3275C110.825 90.7269 110.207 90.968 109.559 91.0209C106.654 91.2828 105.062 88.4321 105.34 85.8588C105.34 85.6431 104.938 85.1962 104.845 85.5506L104.768 85.566Z" fill="#E0E0E0"/>
<path d="M98.1855 84.6418C98.5564 82.6848 103.672 78.0621 104.445 78.2162C105.218 78.3703 107.892 84.3799 107.536 86.4139C107.418 86.8119 107.198 87.1722 106.897 87.4588C106.596 87.7454 106.225 87.9483 105.821 88.0472C104.7 88.3902 103.514 88.4614 102.361 88.2551C101.208 88.0487 100.121 87.5706 99.1901 86.8607C98.8471 86.6211 98.5735 86.2954 98.3972 85.9166C98.2208 85.5379 98.1477 85.1194 98.1855 84.7034V84.6418Z" fill="#FFBA29"/>
<path opacity="0.3" d="M98.1855 84.6418C98.5564 82.6848 103.672 78.0621 104.445 78.2162C105.218 78.3703 107.892 84.3799 107.536 86.4139C107.418 86.8119 107.198 87.1722 106.897 87.4588C106.596 87.7454 106.225 87.9483 105.821 88.0472C104.7 88.3902 103.514 88.4614 102.361 88.2551C101.208 88.0487 100.121 87.5706 99.1901 86.8607C98.8471 86.6211 98.5735 86.2954 98.3972 85.9166C98.2208 85.5379 98.1477 85.1194 98.1855 84.7034V84.6418Z" fill="white"/>
<path d="M83.918 37.7821C81.0432 52.8061 89.2347 74.0092 104.01 80.5273C120.378 79.1559 135.602 63.1765 138.476 48.1679C141.351 33.1594 134.334 17.3495 116.761 13.9441C99.1882 10.5386 86.7927 22.7735 83.918 37.7821Z" fill="#FFBA29"/>
<path opacity="0.5" d="M83.918 37.7821C81.0432 52.8061 89.2347 74.0092 104.01 80.5273C120.378 79.1559 135.602 63.1765 138.476 48.1679C141.351 33.1594 134.334 17.3495 116.761 13.9441C99.1882 10.5386 86.7927 22.7735 83.918 37.7821Z" fill="white"/>
<path opacity="0.05" d="M135.772 55.7801C135.772 55.7801 128.956 69.4172 110.857 67.1675C93.4077 64.9948 83.037 43.4681 85.9272 31.0791C85.0374 33.2419 84.3644 35.4872 83.918 37.7821C81.0432 52.8061 89.2347 74.0092 104.01 80.5273C117.58 79.387 130.285 68.1999 135.957 55.8725L135.772 55.7801Z" fill="black"/>
<path d="M76.4547 98.9721C76.7839 101.274 76.9594 103.596 76.9801 105.922C76.8935 108.18 76.5881 110.425 76.0683 112.625C75.0752 116.817 74.4342 121.085 74.1518 125.383C73.8427 133.674 77.382 141.286 79.6695 149.083C80.9264 152.917 81.5477 156.93 81.5087 160.963C81.1187 165.483 80.2589 169.95 78.943 174.292C77.7584 178.642 77.1607 183.13 77.1656 187.637C77.2982 192.165 78.0681 196.651 79.4531 200.966C80.2585 203.364 80.9191 205.808 81.4314 208.285C81.8372 210.832 81.9719 213.415 81.8332 215.99C81.6632 221.013 81.0605 226.083 82.1269 231.045C82.2815 231.738 83.5952 231.645 83.4252 230.906C82.4515 226.391 82.8842 221.799 83.1006 217.222C83.374 212.887 82.9355 208.535 81.8023 204.34C80.3658 200.027 79.331 195.591 78.7112 191.088C78.2869 186.477 78.5946 181.828 79.6231 177.313C80.5813 172.936 81.9878 168.653 82.5905 164.199C83.0892 160.165 82.8325 156.074 81.8332 152.134C79.9786 144.321 76.2229 136.971 75.5274 128.912C75.3048 124.036 75.7836 119.153 76.9492 114.412C77.5433 111.994 77.9311 109.53 78.1084 107.047C78.0963 104.367 77.7958 101.696 77.212 99.0799C77.212 98.7564 76.501 98.556 76.5474 99.0799L76.4547 98.9721Z" fill="#E0E0E0"/>
<path d="M79.7138 100.899C79.3097 101.635 79.103 102.464 79.1137 103.303C79.1243 104.143 79.3519 104.966 79.7745 105.692C80.1971 106.419 80.8004 107.024 81.5261 107.45C82.2519 107.877 83.0756 108.109 83.9177 108.125C85.1851 108.125 87.3643 107.293 86.6842 105.629C86.0042 103.965 83.3304 104.366 82.1867 105.151C81.5527 105.62 81.057 106.25 80.7518 106.975C80.4466 107.7 80.3431 108.494 80.4522 109.273C80.5614 110.052 80.8791 110.788 81.372 111.402C81.8649 112.016 82.5147 112.486 83.2531 112.764C83.9303 112.999 84.6607 113.037 85.3587 112.873C86.0568 112.71 86.6935 112.351 87.1943 111.839C87.5164 111.632 87.7496 111.312 87.8486 110.943C87.9475 110.573 87.9052 110.18 87.7299 109.84C87.5545 109.5 87.2587 109.237 86.8997 109.103C86.5408 108.968 86.1445 108.971 85.7878 109.112C84.9023 109.249 84.1053 109.725 83.5657 110.438C83.0262 111.152 82.7865 112.047 82.8976 112.933C83.0564 113.776 83.5137 114.534 84.1861 115.068C84.8585 115.603 85.7012 115.879 86.5606 115.845C87.0088 115.845 86.7152 115.152 86.3906 115.121C85.8401 115.103 85.3093 114.912 84.8733 114.576C84.4373 114.241 84.1182 113.777 83.961 113.251C83.8038 112.724 83.8166 112.162 83.9974 111.643C84.1782 111.124 84.518 110.676 84.9687 110.36C85.2933 110.113 86.5142 109.481 86.7461 110.236C86.8697 110.683 86.2979 111.315 85.9733 111.562C85.5589 111.839 85.0806 112.007 84.5832 112.05C84.0859 112.094 83.5857 112.01 83.1295 111.808C81.1202 110.93 80.9966 108.125 82.1867 106.538C82.5353 106.074 82.9986 105.708 83.5313 105.475C83.8663 105.334 84.2263 105.261 84.59 105.261C84.9537 105.261 85.3137 105.334 85.6487 105.475C86.4215 105.984 85.2933 106.8 84.8451 107.016C84.2937 107.226 83.6958 107.285 83.114 107.185C80.3011 106.769 79.4047 103.672 80.1929 101.253C80.2856 101.006 79.8992 100.544 79.7138 100.883V100.899Z" fill="#E0E0E0"/>
<path d="M72.2969 101.546C72.2969 99.5426 76.2535 93.949 77.0417 93.9336C77.83 93.9182 81.6784 99.1574 81.7712 101.284C81.7462 101.701 81.6098 102.104 81.3761 102.451C81.1424 102.797 80.8199 103.076 80.442 103.256C79.4207 103.813 78.2815 104.119 77.1182 104.152C75.9548 104.184 74.8004 103.94 73.7497 103.441C73.3631 103.279 73.0256 103.018 72.7708 102.686C72.516 102.353 72.3527 101.96 72.2969 101.546Z" fill="#FFBA29"/>
<path opacity="0.3" d="M72.2969 101.546C72.2969 99.5426 76.2535 93.949 77.0417 93.9336C77.83 93.9182 81.6784 99.1574 81.7712 101.284C81.7462 101.701 81.6098 102.104 81.3761 102.451C81.1424 102.797 80.8199 103.076 80.442 103.256C79.4207 103.813 78.2815 104.119 77.1182 104.152C75.9548 104.184 74.8004 103.94 73.7497 103.441C73.3631 103.279 73.0256 103.018 72.7708 102.686C72.516 102.353 72.3527 101.96 72.2969 101.546Z" fill="black"/>
<path d="M48.3237 58.8157C48.7256 74.0862 61.2756 93.055 77.1022 96.2909C92.7897 91.4524 104.227 72.607 103.81 57.321C103.392 42.0351 93.1451 28.0435 75.263 28.5212C57.3808 28.9989 47.8755 43.5298 48.3237 58.8157Z" fill="#FFBA29"/>
<path opacity="0.1" d="M102.838 65.2875C102.838 65.2875 99.0974 80.065 80.937 81.7292C63.4257 83.2701 48.6501 64.5171 48.8356 51.7891C48.4325 54.0931 48.2617 56.4315 48.3255 58.7694C48.7274 74.04 61.2774 93.0087 77.104 96.2447C90.1176 92.2383 100.179 78.6011 103.023 65.3492L102.838 65.2875Z" fill="black"/>
</svg>
