<svg width="102" height="167" viewBox="0 0 102 167" fill="none" xmlns="http://www.w3.org/2000/svg">
<path d="M31.1919 48.2289C31.4672 50.006 31.8775 51.7603 32.4192 53.4765C32.9589 55.3032 33.255 57.1918 33.2999 59.0937C33.1936 62.9591 32.5663 66.7912 31.4349 70.4876C30.3254 74.0982 29.6578 77.8301 29.4467 81.6025C29.4129 85.1645 30.4332 88.4875 31.4923 91.8504C32.5513 95.2134 33.4805 98.7284 33.0398 102.368C32.5604 106.263 31.0182 109.913 29.71 113.576C28.5028 116.859 27.8247 120.313 27.7004 123.81C27.6923 127.063 27.9644 130.312 28.5138 133.521C29.4792 139.968 30.9569 146.571 29.7859 153.085C29.6365 153.9 29.4435 154.695 29.2203 155.491C29.1047 155.922 29.856 156.222 29.9808 155.793C31.8096 149.485 30.7905 142.906 29.7636 136.542C29.1544 133.223 28.7297 129.875 28.4914 126.511C28.293 123.066 28.679 119.614 29.6334 116.3C30.7292 112.58 32.3441 109.029 33.2644 105.262C33.7457 103.411 33.9607 101.501 33.9032 99.5893C33.8138 97.9099 33.536 96.245 33.0751 94.6257C32.1644 91.2632 30.7907 88.0029 30.3362 84.5265C29.8428 80.715 30.5784 76.8984 31.463 73.1906C32.4894 69.5528 33.2605 65.8478 33.7709 62.1023C33.9745 60.2763 33.967 58.4325 33.7485 56.6069C33.4257 54.8076 32.9566 53.0369 32.3457 51.3123C32.0197 50.2807 31.7693 49.2273 31.5964 48.1602C31.5649 47.9452 31.1955 47.8462 31.219 48.1279L31.1919 48.2289Z" fill="#E0E0E0"/>
<path d="M30.2263 50.0074C30.2641 50.7001 30.0469 51.382 29.6152 51.9255C29.1834 52.4689 28.5669 52.8367 27.8809 52.9598C27.5411 53.0138 27.1927 52.9804 26.869 52.8626C26.5453 52.7449 26.257 52.5468 26.0317 52.2872C25.8844 52.0608 25.8123 51.7759 26.056 51.6051C26.1546 51.553 26.2629 51.5214 26.3742 51.5124C26.4856 51.5033 26.5977 51.5169 26.7037 51.5524C26.9103 51.5814 27.1089 51.6515 27.2877 51.7586C27.4666 51.8657 27.6219 52.0075 27.7445 52.1756C27.9179 52.4402 28.0352 52.7371 28.089 53.048C28.1428 53.359 28.132 53.6774 28.0574 53.9837C27.9827 54.2899 27.8458 54.5775 27.6549 54.8288C27.4641 55.08 27.2235 55.2896 26.9478 55.4446C26.6597 55.5797 26.342 55.6409 26.0236 55.6226C25.7051 55.6043 25.3961 55.5071 25.1246 55.3398C24.8781 55.1892 24.6852 54.9654 24.5733 54.7002C24.4488 54.352 24.5157 53.7698 25.0441 53.9409C25.3787 54.0916 25.6486 54.356 25.8051 54.6865C25.9616 55.0171 25.9944 55.392 25.8975 55.7436C25.7498 56.1807 25.4358 56.5425 25.0228 56.7516C24.6097 56.9608 24.1303 57.0008 23.6869 56.863C23.4098 56.7888 23.4839 57.2513 23.6705 57.3308C24.1357 57.5169 24.6527 57.5286 25.1249 57.3637C25.5971 57.1988 25.9923 56.8686 26.237 56.4347C26.4372 56.0195 26.5025 55.5522 26.4239 55.0976C26.3453 54.643 26.1267 54.2235 25.7983 53.8971C25.6551 53.7214 25.4726 53.5814 25.2655 53.4883C25.0583 53.3952 24.8323 53.3516 24.6055 53.361C24.4163 53.3967 24.2452 53.4951 24.12 53.6403C23.9947 53.7854 23.9229 53.9687 23.9162 54.1601C23.932 54.6171 24.1008 55.0562 24.3957 55.4079C24.6906 55.7596 25.0948 56.0037 25.5442 56.1015C26.0134 56.2052 26.5018 56.1777 26.9554 56.0221C27.4089 55.8665 27.8099 55.5888 28.1138 55.2199C28.4177 54.851 28.6127 54.4053 28.6771 53.9322C28.7415 53.459 28.6728 52.977 28.4786 52.5395C28.2916 52.0463 27.9479 51.627 27.4997 51.3453C27.0515 51.0636 26.5235 50.935 25.9961 50.9791C25.7901 51.0108 25.6039 51.1183 25.4743 51.2804C25.3447 51.4424 25.2812 51.6472 25.2963 51.8541C25.3291 52.1036 25.42 52.3422 25.5617 52.5509C25.7034 52.7597 25.8921 52.9328 26.1126 53.0566C26.5661 53.3507 27.0936 53.5115 27.6342 53.5206C28.1747 53.5297 28.7064 53.3866 29.1678 53.1079C29.6713 52.7721 30.0637 52.2958 30.2957 51.7386C30.5278 51.1813 30.5893 50.5679 30.4726 49.975C30.4386 49.7691 30.1837 49.7599 30.1826 49.9858L30.2263 50.0074Z" fill="#E0E0E0"/>
<path d="M28.0694 49.8523C28.0233 48.6201 30.4486 45.148 30.938 45.1316C31.4275 45.1152 33.8731 48.3283 33.9204 49.6297C33.9105 49.8882 33.8304 50.1391 33.6887 50.3557C33.547 50.5723 33.349 50.7466 33.1155 50.8601C32.4876 51.2084 31.7852 51.4036 31.0659 51.4297C30.3465 51.4558 29.6306 51.3121 28.9768 51.0104C28.7368 50.9134 28.5265 50.7552 28.3672 50.5519C28.2079 50.3486 28.1052 50.1073 28.0694 49.8523Z" fill="#74B5CB"/>
<path opacity="0.4" d="M28.0694 49.8523C28.0233 48.6201 30.4486 45.148 30.938 45.1316C31.4275 45.1152 33.8731 48.3283 33.9204 49.6297C33.9105 49.8882 33.8304 50.1391 33.6887 50.3557C33.547 50.5723 33.349 50.7466 33.1155 50.8601C32.4876 51.2084 31.7852 51.4036 31.0659 51.4297C30.3465 51.4558 29.6306 51.3121 28.9768 51.0104C28.7368 50.9134 28.5265 50.7552 28.3672 50.5519C28.2079 50.3486 28.1052 50.1073 28.0694 49.8523Z" fill="black"/>
<path d="M12.8895 23.6403C13.2736 33.0692 21.1782 44.6904 30.9965 46.5833C40.6639 43.4974 47.5789 31.804 47.1899 22.3934C46.8009 12.9829 40.3499 4.39755 29.2998 4.81098C18.2498 5.2244 12.503 14.2206 12.8895 23.6403Z" fill="#74B5CB"/>
<path opacity="0.2" d="M12.8895 23.6403C13.2736 33.0692 21.1782 44.6904 30.9965 46.5833C40.6639 43.4974 47.5789 31.804 47.1899 22.3934C46.8009 12.9829 40.3499 4.39755 29.2998 4.81098C18.2498 5.2244 12.503 14.2206 12.8895 23.6403Z" fill="black"/>
<path opacity="0.1" d="M46.6509 27.3249C46.6509 27.3249 44.4704 36.4601 33.2445 37.6036C22.4367 38.7017 13.1393 27.1796 13.153 19.3329C12.9177 20.7555 12.8296 22.1987 12.8899 23.6401C13.2739 33.069 21.1786 44.6901 30.9968 46.5831C39.0076 44.0272 45.1196 35.552 46.7685 27.3662L46.6509 27.3249Z" fill="black"/>
<path d="M65.8875 66.8224C64.6715 73.3505 62.0453 79.534 58.1899 84.9465C56.3567 87.6132 54.3325 90.1795 52.7586 93.0238C51.1462 95.9951 50.2138 99.2856 50.0279 102.661C49.8013 105.945 49.8438 109.222 49.4621 112.494C49.1205 115.608 48.4794 118.681 47.5476 121.671C45.797 127.686 42.2942 133.046 37.4803 137.075C36.1336 138.22 34.9256 139.517 33.8804 140.941C32.8967 142.441 32.1782 144.098 31.7556 145.841C30.7891 149.448 30.6403 153.255 29.2304 156.743C29.0618 157.151 29.8199 157.462 29.9909 157.045C31.2513 153.93 31.5277 150.571 32.2364 147.298C32.5593 145.662 33.0974 144.076 33.8368 142.582C34.6275 141.175 35.6369 139.901 36.8277 138.809C37.9977 137.656 39.2565 136.616 40.4265 135.464C41.5146 134.395 42.5104 133.237 43.4034 132.002C45.1674 129.563 46.5911 126.897 47.6359 124.076C49.8976 118.11 50.5362 111.848 50.7493 105.51C50.8705 101.991 51.1604 98.5079 52.6178 95.2487C54.0984 92.2745 55.8721 89.4545 57.9129 86.83C62.1474 80.8914 65.535 74.234 66.736 66.9809C66.8442 66.577 66.0265 66.3776 65.9546 66.8305L65.8875 66.8224Z" fill="#E0E0E0"/>
<path d="M66.8857 68.5945C66.619 69.0339 66.4698 69.5341 66.4525 70.0477C66.4352 70.5613 66.5502 71.0712 66.7867 71.5289C67.0232 71.9866 67.3733 72.3769 67.8037 72.6627C68.234 72.9485 68.7304 73.1204 69.2456 73.1619C70.0682 73.1954 71.5396 72.6551 70.9696 71.5678C70.8235 71.3634 70.629 71.1979 70.4034 71.0859C70.1778 70.974 69.9281 70.9191 69.6764 70.9261C69.1367 70.8686 68.5955 71.0151 68.1606 71.3365C67.7732 71.6275 67.4712 72.0162 67.2856 72.4626C67.1001 72.9089 67.0377 73.3968 67.105 73.876C67.1723 74.3551 67.3668 74.8081 67.6685 75.1883C67.9702 75.5684 68.3681 75.862 68.8212 76.0388C69.2503 76.1993 69.7186 76.2233 70.1611 76.1074C70.6037 75.9916 70.9986 75.7417 71.2912 75.3922C71.413 75.2278 71.4813 75.0302 71.4873 74.8258C71.4933 74.6214 71.4366 74.4198 71.3247 74.2478C71.2129 74.0758 71.0512 73.9416 70.8611 73.863C70.671 73.7844 70.4616 73.7651 70.2606 73.8077C69.7395 73.9056 69.2732 74.19 68.9498 74.6073C68.6264 75.0246 68.4683 75.5457 68.5054 76.0722C68.5737 76.6001 68.8315 77.0863 69.2313 77.4411C69.6311 77.7959 70.1459 77.9954 70.6808 78.0029C70.9407 77.9938 70.8013 77.5531 70.584 77.5145C70.2439 77.503 69.9162 77.383 69.6492 77.1723C69.3823 76.9616 69.1902 76.6713 69.1014 76.3444C69.0127 76.0174 69.0318 75.671 69.1561 75.3564C69.2804 75.0417 69.5032 74.7755 69.7917 74.5969C70.0471 74.4194 70.5211 74.2021 70.8358 74.3947C70.9873 74.4943 71.0113 74.4417 70.9499 74.6712C70.9392 74.7467 70.9193 74.8207 70.8908 74.8914C70.7999 75.0564 70.6706 75.1971 70.5136 75.3019C70.2551 75.4665 69.9589 75.5637 69.6523 75.5847C69.3457 75.6057 69.0385 75.5497 68.7588 75.422C67.4299 74.8396 67.4403 72.9536 68.3795 72.0346C68.6257 71.7645 68.9499 71.5766 69.3079 71.4965C69.6659 71.4164 70.0404 71.448 70.3804 71.587C70.8798 71.829 70.3671 72.3016 70.0513 72.4825C69.6818 72.6385 69.274 72.6832 68.8784 72.611C67.1001 72.3017 66.6037 70.3488 67.1807 68.8605C67.2151 68.732 67.0463 68.4015 66.9343 68.5977L66.8857 68.5945Z" fill="#E0E0E0"/>
<path d="M63.1012 66.9904C63.6352 65.8842 67.4304 63.9498 67.8676 64.1653C68.3049 64.3809 68.9436 68.3887 68.4066 69.5433C68.2727 69.7616 68.0835 69.9409 67.8578 70.0634C67.6322 70.1859 67.378 70.2473 67.1206 70.2415C66.3965 70.2664 65.6763 70.119 65.02 69.8113C64.3637 69.5037 63.7903 69.0449 63.3475 68.473C63.1807 68.2753 63.0692 68.0376 63.0242 67.7837C62.9793 67.5298 63.0024 67.2688 63.0914 67.0271L63.1012 66.9904Z" fill="#74B5CB"/>
<path opacity="0.3" d="M63.1012 66.9904C63.6352 65.8842 67.4304 63.9498 67.8676 64.1653C68.3049 64.3809 68.9436 68.3887 68.4066 69.5433C68.2727 69.7616 68.0835 69.9409 67.8578 70.0634C67.6322 70.1859 67.378 70.2473 67.1206 70.2415C66.3965 70.2664 65.6763 70.119 65.02 69.8113C64.3637 69.5037 63.7903 69.0449 63.3475 68.473C63.1807 68.2753 63.0692 68.0376 63.0242 67.7837C62.9793 67.5298 63.0024 67.2688 63.0914 67.0271L63.1012 66.9904Z" fill="white"/>
<path d="M62.0505 36.7933C57.9346 45.2821 59.4459 59.2235 67.2358 65.4721C77.2363 67.2762 88.8848 60.1959 92.9983 51.7163C97.1117 43.2367 95.4416 32.6958 85.4831 27.8534C75.5245 23.0109 66.164 28.3137 62.0505 36.7933Z" fill="#74B5CB"/>
<path opacity="0.5" d="M62.0505 36.7933C57.9346 45.2821 59.4459 59.2235 67.2358 65.4721C77.2363 67.2762 88.8848 60.1959 92.9983 51.7163C97.1117 43.2367 95.4416 32.6958 85.4831 27.8534C75.5245 23.0109 66.164 28.3137 62.0505 36.7933Z" fill="white"/>
<path opacity="0.05" d="M90.1652 55.8175C90.1652 55.8175 83.9153 62.8491 73.4583 58.6109C63.3769 54.5225 60.6148 40.0393 64.3194 33.1225C63.4424 34.2683 62.6819 35.498 62.0488 36.7935C57.9329 45.2822 59.4442 59.2237 67.2341 65.4723C75.5259 66.9661 84.9039 62.3368 90.2613 55.9023L90.1652 55.8175Z" fill="black"/>
<path d="M47.8265 72.0468C47.6558 73.4709 47.3902 74.8819 47.0314 76.2705C46.6192 77.6018 46.0784 78.8901 45.4166 80.1171C44.154 82.4554 43.0897 84.8948 42.2349 87.4101C40.727 92.2987 41.6273 97.3996 41.7498 102.41C41.8891 104.895 41.6199 107.385 40.9528 109.781C39.9984 112.411 38.7716 114.934 37.2921 117.31C35.89 119.711 34.8165 122.289 34.1001 124.974C33.4566 127.692 33.2007 130.488 33.3397 133.28C33.4383 134.837 33.443 136.399 33.3538 137.956C33.1899 139.539 32.8582 141.098 32.3643 142.61C31.4609 145.575 30.2916 148.498 30.137 151.625C30.1187 152.062 30.9185 152.218 30.935 151.75C31.0737 148.905 32.0652 146.239 32.925 143.547C33.7804 141.008 34.2128 138.346 34.2051 135.666C34.035 132.867 34.1247 130.059 34.4729 127.278C34.9552 124.463 35.8812 121.743 37.2165 119.218C38.4877 116.765 40.0119 114.438 41.0829 111.882C42.0247 109.559 42.5242 107.081 42.556 104.574C42.6945 99.6236 41.6231 94.644 42.4938 89.7323C43.1391 86.7921 44.2045 83.9602 45.6578 81.3229C46.3988 79.9776 47.0238 78.572 47.5261 77.1212C47.9466 75.523 48.1933 73.884 48.2619 72.2323C48.3136 72.0396 47.9206 71.8064 47.8647 72.1259L47.8265 72.0468Z" fill="#E0E0E0"/>
<path d="M49.4667 73.7163C49.1076 74.0905 48.8519 74.5508 48.7242 75.0527C48.5965 75.5545 48.6012 76.0811 48.7378 76.5814C48.8744 77.0818 49.1383 77.5391 49.504 77.9092C49.8697 78.2793 50.3249 78.5497 50.8256 78.6943C51.583 78.8972 53.0181 78.7505 52.8773 77.6503C52.7365 76.5502 51.0747 76.3606 50.2657 76.6456C49.8121 76.823 49.4153 77.1188 49.1172 77.502C48.819 77.8852 48.6304 78.3415 48.5713 78.823C48.5122 79.3046 48.5848 79.7934 48.7813 80.2382C48.9778 80.683 49.2911 81.0673 49.6881 81.3506C50.0552 81.5992 50.4857 81.7389 50.929 81.7531C51.3723 81.7674 51.8101 81.6556 52.191 81.431C52.4166 81.3589 52.607 81.206 52.7251 81.0018C52.8432 80.7976 52.8806 80.5568 52.8301 80.3262C52.7796 80.0956 52.6447 79.8916 52.4517 79.7539C52.2587 79.6162 52.0214 79.5546 51.7858 79.5811C51.2347 79.5212 50.6824 79.677 50.2461 80.0155C49.8098 80.354 49.5237 80.8487 49.4486 81.3946C49.409 81.922 49.5614 82.4466 49.8779 82.8727C50.1944 83.2988 50.654 83.5981 51.1729 83.7159C51.4408 83.7877 51.3759 83.3276 51.1869 83.2573C50.8608 83.1581 50.574 82.9596 50.3671 82.6899C50.1601 82.4201 50.0434 82.0927 50.0334 81.754C50.0235 81.4153 50.1209 81.0824 50.3117 80.8024C50.5026 80.5224 50.7773 80.3093 51.0971 80.1934C51.3304 80.0986 52.1609 79.9178 52.1789 80.4046C52.1815 80.6906 51.7389 80.9754 51.5056 81.0702C51.2136 81.1692 50.901 81.1927 50.5969 81.1388C50.2928 81.0848 50.0071 80.9551 49.7667 80.7617C48.7061 79.9168 49.0799 78.2265 50.0444 77.4717C50.3268 77.251 50.6621 77.107 51.0177 77.0537C51.2404 77.0232 51.4672 77.0376 51.6845 77.0958C51.9019 77.1541 52.1054 77.255 52.2831 77.3927C52.6638 77.8194 51.8592 78.1252 51.5569 78.1819C51.1938 78.2188 50.8271 78.1579 50.4953 78.0057C48.8806 77.3074 48.8392 75.319 49.6964 74.0041C49.7912 73.8721 49.6341 73.5349 49.4691 73.7071L49.4667 73.7163Z" fill="#E0E0E0"/>
<path d="M44.9301 72.9136C45.2498 71.7204 48.5071 69.0222 48.9807 69.1392C49.4542 69.2563 50.9179 72.9932 50.6339 74.2747C50.5525 74.5192 50.4067 74.7373 50.2116 74.9064C50.0166 75.0756 49.7795 75.1896 49.5248 75.2368C48.8256 75.4046 48.0959 75.405 47.3955 75.2378C46.6951 75.0707 46.044 74.7408 45.4958 74.2752C45.2907 74.1165 45.1306 73.9074 45.0314 73.6686C44.9321 73.4298 44.8972 73.1696 44.9301 72.9136Z" fill="#74B5CB"/>
<path opacity="0.3" d="M44.9301 72.9136C45.2498 71.7204 48.5071 69.0222 48.9807 69.1392C49.4542 69.2563 50.9179 72.9932 50.6339 74.2747C50.5525 74.5192 50.4067 74.7373 50.2116 74.9064C50.0166 75.0756 49.7795 75.1896 49.5248 75.2368C48.8256 75.4046 48.0959 75.405 47.3955 75.2378C46.6951 75.0707 46.044 74.7408 45.4958 74.2752C45.2907 74.1165 45.1306 73.9074 45.0314 73.6686C44.9321 73.4298 44.8972 73.1696 44.9301 72.9136Z" fill="black"/>
<path d="M37.4264 43.6234C35.2293 52.7837 39.702 66.0922 48.6438 70.5541C58.7913 70.1841 68.6342 60.7902 70.8245 51.6182C73.0149 42.4462 69.1241 32.4712 58.361 29.8922C47.598 27.3132 39.5982 34.4465 37.4264 43.6234Z" fill="#74B5CB"/>
<path opacity="0.1" d="M68.9667 56.2072C68.9667 56.2072 64.3729 64.4105 53.2542 62.4938C42.5431 60.6075 36.706 47.0711 38.8482 39.5193C38.2397 40.8272 37.7643 42.1927 37.4293 43.5955C35.2322 52.7558 39.7049 66.0643 48.6468 70.5262C57.0635 70.2237 65.2531 63.7118 69.0677 56.2736L68.9667 56.2072Z" fill="black"/>
</svg>
