<svg width="116" height="263" viewBox="0 0 116 263" fill="none" xmlns="http://www.w3.org/2000/svg">
<path d="M19.9528 83.6684C13.6226 92.8742 9.29324 103.305 7.24447 114.287C6.10281 120.043 5.4761 125.925 3.87639 131.586C3.13916 134.305 2.0995 136.932 0.776914 139.419C-0.734308 142.058 -2.51385 144.535 -4.53344 146.81C-8.32987 151.184 -12.4671 155.229 -16.0546 159.8C-19.3411 163.945 -22.2398 168.382 -24.7139 173.057C-27.2523 177.821 -29.1612 182.894 -30.3926 188.15C-31.4878 193.28 -31.8738 198.536 -31.5399 203.77C-31.2946 206.803 -31.3403 209.853 -31.6764 212.877C-32.2016 216.139 -33.3629 219.267 -35.0941 222.082C-38.3811 227.775 -42.8439 232.581 -45.4093 238.634C-45.6937 239.324 -44.4577 239.943 -44.1404 239.196C-41.8079 233.71 -37.8702 229.19 -34.7351 224.187C-33.2269 221.878 -32.0182 219.388 -31.1384 216.774C-30.3821 214.232 -30.0145 211.591 -30.0481 208.94C-30.0106 203.553 -30.6052 198.275 -29.877 192.907C-29.0899 187.523 -27.5321 182.28 -25.2516 177.34C-23.0019 172.425 -20.2492 167.756 -17.0374 163.408C-13.7008 159.002 -10.1075 154.797 -6.27615 150.814C-2.09934 146.694 1.27789 141.836 3.68425 136.486C5.55076 131.14 6.83652 125.608 7.51928 119.987C9.64068 107.377 13.4871 94.966 21.0191 84.4169C21.3889 83.7764 20.3719 82.9425 19.937 83.5644L19.9528 83.6684Z" fill="#E0E0E0"/>
<path d="M17.1543 85.2972C16.7095 86.5026 15.8118 87.4869 14.6526 88.0405C13.4933 88.5942 12.1641 88.6734 10.9478 88.2613C10.051 87.8763 8.34799 86.4566 9.06673 85.2775C9.51049 84.5088 10.5461 85.2776 10.9783 85.6789C11.2333 85.9305 11.4342 86.2316 11.5686 86.5638C11.703 86.8959 11.7681 87.2521 11.7598 87.6104C11.7744 88.1685 11.6698 88.7233 11.4531 89.2379C11.2364 89.7525 10.9126 90.215 10.5032 90.5946C10.0937 90.9742 9.60816 91.2622 9.07879 91.4394C8.54943 91.6165 7.98845 91.6787 7.43325 91.6219C6.90927 91.5203 6.41969 91.2873 6.01038 90.9448C5.60107 90.6023 5.28542 90.1614 5.09296 89.6635C4.92541 89.2028 4.94019 88.6953 5.13427 88.245C5.54198 87.3417 6.38887 87.9445 6.69333 88.6327C6.96407 89.2197 7.0254 89.8818 6.86708 90.5088C6.70876 91.1357 6.34036 91.6895 5.82335 92.0778C5.26728 92.4338 4.61281 92.6043 3.95397 92.5649C3.29512 92.5255 2.66582 92.2782 2.15649 91.8586C1.72973 91.6122 1.50882 92.2248 1.77848 92.5133C2.31681 93.0693 3.01944 93.4376 3.78295 93.5641C4.54646 93.6906 5.33052 93.5686 6.01974 93.216C6.72009 92.7999 7.26278 92.1633 7.56281 91.4059C7.86284 90.6484 7.90326 89.8129 7.67773 89.0302C7.51935 88.2393 7.05639 87.5427 6.3888 87.0905C6.22566 86.9937 6.04468 86.9307 5.85666 86.9054C5.66864 86.8801 5.47743 86.893 5.29444 86.9432C5.11145 86.9934 4.94043 87.0799 4.79157 87.1977C4.64272 87.3154 4.51909 87.4619 4.42804 87.6285C3.60627 89.0518 4.45357 90.8695 5.59637 91.8139C6.19994 92.3326 6.94028 92.6662 7.72871 92.7747C8.51713 92.8832 9.32024 92.7621 10.0418 92.4258C10.792 92.0318 11.428 91.451 11.8886 90.7396C12.3492 90.0282 12.6187 89.2101 12.6712 88.3643C12.7213 87.4803 12.4945 86.6028 12.0225 85.8541C11.5505 85.1053 10.8567 84.5226 10.0377 84.187C9.86034 84.1102 9.66935 84.0698 9.47604 84.0681C9.28273 84.0665 9.09103 84.1036 8.91228 84.1774C8.73354 84.2511 8.57139 84.3599 8.4354 84.4974C8.29942 84.6349 8.19237 84.7983 8.1206 84.9779C7.99482 85.3641 7.96132 85.7743 8.02278 86.1756C8.08424 86.5769 8.23895 86.9582 8.47449 87.2888C8.97735 88.1232 9.71624 88.7897 10.5978 89.2041C11.4793 89.6185 12.464 89.7622 13.4274 89.617C14.4376 89.4358 15.3728 88.9627 16.1177 88.2563C16.8626 87.5499 17.3846 86.641 17.6194 85.6416C17.7673 85.3854 17.3433 84.9698 17.1641 85.3788L17.1543 85.2972Z" fill="#E0E0E0"/>
<path d="M24.2216 88.0686C24.932 86.0496 22.6947 79.0835 21.9582 78.848C21.2217 78.6125 15.4988 82.7099 14.7495 84.7634C14.6367 85.1947 14.6421 85.6485 14.7653 86.0769C14.8884 86.5053 15.1247 86.8926 15.4492 87.198C16.3019 88.0926 17.3553 88.7711 18.5224 89.1776C19.6894 89.5841 20.9366 89.7068 22.1607 89.5356C22.6057 89.5016 23.0333 89.3481 23.3985 89.0914C23.7637 88.8347 24.053 88.4841 24.2358 88.0768L24.2216 88.0686Z" fill="#0F5980"/>
<path opacity="0.3" d="M24.2216 88.0686C24.932 86.0496 22.6947 79.0835 21.9582 78.848C21.2217 78.6125 15.4988 82.7099 14.7495 84.7634C14.6367 85.1947 14.6421 85.6485 14.7653 86.0769C14.8884 86.5053 15.1247 86.8926 15.4492 87.198C16.3019 88.0926 17.3553 88.7711 18.5224 89.1776C19.6894 89.5841 20.9366 89.7068 22.1607 89.5356C22.6057 89.5016 23.0333 89.3481 23.3985 89.0914C23.7637 88.8347 24.053 88.4841 24.2358 88.0768L24.2216 88.0686Z" fill="white"/>
<path d="M62.3259 52.3936C56.9678 67.7847 38.135 83.0253 21.0369 81.2004C6.70356 71.236 1.2275 48.3942 6.58562 33.0031C11.9437 17.6121 26.8335 6.73723 44.7445 12.903C62.6556 19.0689 67.7005 36.9741 62.3259 52.3936Z" fill="#0F5980"/>
<path opacity="0.5" d="M62.3259 52.3936C56.9678 67.7847 38.135 83.0253 21.0369 81.2004C6.70356 71.236 1.2275 48.3942 6.58562 33.0031C11.9437 17.6121 26.8335 6.73723 44.7445 12.903C62.6556 19.0689 67.7005 36.9741 62.3259 52.3936Z" fill="white"/>
<path opacity="0.05" d="M5.01864 41.435C5.01864 41.435 4.01939 57.6536 21.8914 65.2012C39.0964 72.4586 60.136 58.0936 64.0829 45.114C63.7528 47.595 63.1643 50.0348 62.3268 52.3935C56.9687 67.7846 38.1359 83.0252 21.0378 81.2003C9.17023 72.9441 3.42876 55.8513 4.79642 41.4585L5.01864 41.435Z" fill="black"/>
<path d="M34.8275 131.559C30.4784 148.159 12.6973 155.106 3.47368 168.323C1.26015 171.633 -0.43751 175.26 -1.5611 179.08C-2.70839 183.129 -4.32422 187.03 -6.37579 190.705C-10.7069 197.845 -16.9135 203.864 -22.97 209.591C-26.4916 212.747 -29.8405 216.091 -33.0018 219.608C-35.9626 223.06 -37.1211 227.629 -40.1447 231.027C-40.665 231.599 -39.5462 232.454 -39.0177 231.867C-36.3259 228.847 -35.2537 224.855 -32.8443 221.634C-30.0179 218.174 -26.8966 214.967 -23.5154 212.047C-17.4611 206.357 -11.1698 200.519 -6.54816 193.566C-4.27378 190.193 -2.48406 186.518 -1.23144 182.648C-0.149464 178.648 1.38718 174.785 3.34841 171.135C7.58529 164.092 14.1729 158.957 20.3151 153.64C26.9753 147.788 33.7215 140.998 35.4265 132C35.5099 131.593 34.9864 131.12 34.8433 131.663L34.8275 131.559Z" fill="#E0E0E0"/>
<path d="M30.6269 131.772C30.4632 132.932 29.8921 133.996 29.0158 134.773C28.1396 135.55 27.0155 135.99 25.8449 136.014C25.2744 136.008 24.7131 135.87 24.2042 135.613C23.6953 135.355 23.2523 134.984 22.9094 134.528C22.6584 134.174 22.3779 133.576 22.7914 133.188C22.9276 133.098 23.0833 133.042 23.2456 133.023C23.4079 133.005 23.5722 133.025 23.7251 133.082C24.1521 133.183 24.5504 133.379 24.8896 133.657C25.2288 133.935 25.4998 134.287 25.682 134.687C25.9047 135.236 25.9992 135.829 25.9582 136.42C25.9172 137.011 25.7418 137.585 25.4454 138.099C25.149 138.612 24.7394 139.051 24.2478 139.382C23.7561 139.714 23.1955 139.928 22.6085 140.01C22.0808 140.033 21.5554 139.928 21.0769 139.705C20.5984 139.481 20.1808 139.146 19.8596 138.726C19.7033 138.514 19.5916 138.272 19.5312 138.016C19.4707 137.759 19.4628 137.493 19.5079 137.233C19.7405 136.304 20.6231 136.681 21.0771 137.209C21.5001 137.739 21.7117 138.408 21.6709 139.085C21.6301 139.762 21.3398 140.401 20.8561 140.877C20.3605 141.291 19.754 141.551 19.1122 141.622C18.4704 141.694 17.8218 141.575 17.2475 141.28C16.8349 141.041 16.7272 141.852 17.0095 142.053C17.7274 142.524 18.591 142.719 19.4417 142.603C20.2924 142.488 21.073 142.069 21.6401 141.424C22.1498 140.764 22.4342 139.957 22.4513 139.123C22.4684 138.289 22.2174 137.472 21.7352 136.792C20.893 135.622 19.0614 135.115 18.5947 136.876C18.4983 137.672 18.6675 138.477 19.0759 139.165C19.4844 139.854 20.1091 140.389 20.8529 140.685C24.346 142.323 27.6516 138.765 26.8304 135.293C26.6181 134.33 26.0694 133.475 25.2829 132.881C24.9351 132.589 24.5305 132.373 24.0948 132.246C23.6591 132.118 23.2017 132.082 22.7515 132.141C20.9149 132.693 21.9962 135.026 22.9256 135.847C23.6287 136.464 24.493 136.869 25.4176 137.012C26.3421 137.156 27.2886 137.034 28.1465 136.66C29.037 136.217 29.7892 135.538 30.3213 134.698C30.8534 133.857 31.145 132.887 31.1643 131.893C31.17 131.554 30.7448 131.404 30.6696 131.797L30.6269 131.772Z" fill="#E0E0E0"/>
<path d="M37.6762 136.353C38.7363 134.517 38.0776 127.248 37.3685 126.8C36.6595 126.353 30.3069 129.176 29.0875 131.091C28.8897 131.49 28.8014 131.934 28.8315 132.378C28.8617 132.823 29.0092 133.251 29.259 133.619C29.9053 134.673 30.7909 135.56 31.8439 136.207C32.8969 136.855 34.0878 137.245 35.32 137.346C35.7651 137.4 36.2164 137.336 36.6296 137.162C37.0427 136.988 37.4035 136.709 37.6762 136.353Z" fill="#0F5980"/>
<path opacity="0.3" d="M37.6762 136.353C38.7363 134.517 38.0776 127.248 37.3685 126.8C36.6595 126.353 30.3069 129.176 29.0875 131.091C28.8897 131.49 28.8014 131.934 28.8315 132.378C28.8617 132.823 29.0092 133.251 29.259 133.619C29.9053 134.673 30.7909 135.56 31.8439 136.207C32.8969 136.855 34.0878 137.245 35.32 137.346C35.7651 137.4 36.2164 137.336 36.6296 137.162C37.0427 136.988 37.4035 136.709 37.6762 136.353Z" fill="black"/>
<path d="M82.5351 109.608C74.0133 123.514 52.3462 134.367 36.0537 128.946C24.1728 116.146 23.6858 92.7117 32.2465 78.7712C40.8072 64.8306 57.6757 57.3945 73.8798 67.3383C90.0838 77.282 91.0547 95.7388 82.5351 109.608Z" fill="#0F5980"/>
<path opacity="0.1" d="M28.87 86.6897C28.87 86.6897 24.44 102.313 40.2674 113.501C55.563 124.229 79.1635 114.759 85.7806 102.903C84.9308 105.249 83.8406 107.501 82.5274 109.622C74.0056 123.528 52.3386 134.381 36.046 128.96C26.219 118.352 24.2167 100.4 28.6665 86.6481L28.87 86.6897Z" fill="black"/>
</svg>
