<svg width="322" height="267" viewBox="0 0 322 267" fill="none" xmlns="http://www.w3.org/2000/svg">
<path d="M321.509 36.7747H16.4961V266.153H321.509V36.7747Z" fill="#EBEBEB"/>
<path d="M0.405106 266.153H16.4961L16.4961 36.7748H0.405106L0.405106 266.153Z" fill="#DBDBDB"/>
<path d="M321.509 12.0288H16.4961V36.7743H321.509V12.0288Z" fill="#FFC727"/>
<path d="M79.2326 86.1484H49.0156V116.334H79.2326V86.1484Z" fill="#FFC727"/>
<path opacity="0.8" d="M79.2326 86.1484H49.0156V116.334H79.2326V86.1484Z" fill="white"/>
<path d="M114.174 86.1484H83.957V116.334H114.174V86.1484Z" fill="white"/>
<path d="M149.154 86.1484H118.938V116.334H149.154V86.1484Z" fill="white"/>
<path d="M184.108 86.1484H153.891V116.334H184.108V86.1484Z" fill="white"/>
<path d="M219.069 86.1484H188.852V116.334H219.069V86.1484Z" fill="white"/>
<path d="M254.022 86.1484H223.805V116.334H254.022V86.1484Z" fill="white"/>
<path d="M288.983 86.1484H258.766V116.334H288.983V86.1484Z" fill="white"/>
<path d="M79.2326 120.287H49.0156V150.473H79.2326V120.287Z" fill="#FFC727"/>
<path opacity="0.8" d="M79.2326 120.287H49.0156V150.473H79.2326V120.287Z" fill="white"/>
<path d="M114.194 120.287H83.9766V150.473H114.194V120.287Z" fill="white"/>
<path d="M149.147 120.287H118.93V150.473H149.147V120.287Z" fill="white"/>
<path d="M184.108 120.287H153.891V150.473H184.108V120.287Z" fill="white"/>
<path d="M219.069 120.287H188.852V150.473H219.069V120.287Z" fill="white"/>
<path d="M254.029 120.287H223.812V150.473H254.029V120.287Z" fill="white"/>
<path d="M288.983 120.287H258.766V150.473H288.983V120.287Z" fill="white"/>
<path d="M79.2326 154.425H49.0156V184.611H79.2326V154.425Z" fill="#FFC727"/>
<path opacity="0.8" d="M79.2326 154.425H49.0156V184.611H79.2326V154.425Z" fill="white"/>
<path d="M114.194 154.425H83.9766V184.611H114.194V154.425Z" fill="#B54813"/>
<path d="M149.154 154.425H118.938V184.611H149.154V154.425Z" fill="white"/>
<path d="M184.108 154.425H153.891V184.611H184.108V154.425Z" fill="white"/>
<path d="M219.069 154.425H188.852V184.611H219.069V154.425Z" fill="white"/>
<path d="M254.022 154.425H223.805V184.611H254.022V154.425Z" fill="white"/>
<path d="M288.983 154.425H258.766V184.611H288.983V154.425Z" fill="white"/>
<path d="M79.2326 188.562H49.0156V218.749H79.2326V188.562Z" fill="#FFC727"/>
<path opacity="0.8" d="M79.2326 188.562H49.0156V218.749H79.2326V188.562Z" fill="white"/>
<path d="M114.194 188.562H83.9766V218.749H114.194V188.562Z" fill="white"/>
<path d="M149.147 188.562H118.93V218.749H149.147V188.562Z" fill="white"/>
<path d="M184.108 188.562H153.891V218.749H184.108V188.562Z" fill="white"/>
<path d="M219.069 188.562H188.852V218.749H219.069V188.562Z" fill="white"/>
<path d="M254.029 188.562H223.812V218.749H254.029V188.562Z" fill="white"/>
<path d="M288.983 188.562H258.766V218.749H288.983V188.562Z" fill="white"/>
<path d="M79.2326 222.701H49.0156V252.887H79.2326V222.701Z" fill="#FFC727"/>
<path opacity="0.8" d="M79.2326 222.701H49.0156V252.887H79.2326V222.701Z" fill="white"/>
<path d="M114.194 222.707H83.9766V252.893H114.194V222.707Z" fill="white"/>
<path d="M149.147 222.701H118.93V252.887H149.147V222.701Z" fill="white"/>
<path d="M184.108 222.701H153.891V252.887H184.108V222.701Z" fill="white"/>
<path d="M219.069 222.701H188.852V252.887H219.069V222.701Z" fill="white"/>
<path d="M254.022 222.701H223.805V252.887H254.022V222.701Z" fill="white"/>
<path d="M288.983 222.701H258.766V252.887H288.983V222.701Z" fill="white"/>
<path d="M108.782 92.1221H89.3594V93.6301H108.782V92.1221Z" fill="#C7C7C7"/>
<path d="M100.349 95.4307H89.3594V96.9387H100.349V95.4307Z" fill="#C7C7C7"/>
<path d="M143.442 228.603H124.02V230.111H143.442V228.603Z" fill="#C7C7C7"/>
<path d="M135.009 231.905H124.02V233.413H135.009V231.905Z" fill="#C7C7C7"/>
<path d="M213.204 193.86H193.781V195.368H213.204V193.86Z" fill="#C7C7C7"/>
<path d="M203.951 200.477H193.781V201.985H203.951V200.477Z" fill="#C7C7C7"/>
<path d="M207.784 197.168H193.781V198.676H207.784V197.168Z" fill="#C7C7C7"/>
<path d="M133.693 166.684H123.523V168.192H133.693V166.684Z" fill="#C7C7C7"/>
<path d="M137.526 163.381H123.523V164.889H137.526V163.381Z" fill="#C7C7C7"/>
<path d="M16.4894 12.0288H0.398438V36.7743H16.4894V12.0288Z" fill="#FFC727"/>
<path opacity="0.1" d="M16.4894 12.0288H0.398438V36.7743H16.4894V12.0288Z" fill="black"/>
<path d="M1.79799 38.5312H1.47266V266.153H1.79799V38.5312Z" fill="#C7C7C7"/>
<path d="M3.7433 38.5312H3.41797V266.153H3.7433V38.5312Z" fill="#C7C7C7"/>
<path d="M5.68861 38.5312H5.36328V266.153H5.68861V38.5312Z" fill="#C7C7C7"/>
<path d="M7.63393 38.5312H7.30859V266.153H7.63393V38.5312Z" fill="#C7C7C7"/>
<path d="M9.58705 38.5312H9.26172V266.153H9.58705V38.5312Z" fill="#C7C7C7"/>
<path d="M11.5324 38.5312H11.207V266.153H11.5324V38.5312Z" fill="#C7C7C7"/>
<path d="M13.4777 38.5312H13.1523V266.153H13.4777V38.5312Z" fill="#C7C7C7"/>
<path d="M15.4269 38.5312H15.1016V266.153H15.4269V38.5312Z" fill="#C7C7C7"/>
<path opacity="0.1" d="M45.7568 22.5914C45.7568 23.4283 45.5084 24.2464 45.043 24.9423C44.5775 25.6381 43.916 26.1805 43.142 26.5008C42.368 26.821 41.5163 26.9048 40.6946 26.7416C39.873 26.5783 39.1182 26.1753 38.5258 25.5835C37.9334 24.9917 37.53 24.2377 37.3665 23.4169C37.2031 22.5961 37.287 21.7452 37.6076 20.972C37.9282 20.1988 38.4711 19.538 39.1677 19.073C39.8643 18.608 40.6832 18.3599 41.521 18.3599C42.0775 18.359 42.6287 18.4679 43.143 18.6802C43.6573 18.8926 44.1246 19.2042 44.5181 19.5973C44.9116 19.9904 45.2236 20.4573 45.4361 20.971C45.6487 21.4848 45.7577 22.0354 45.7568 22.5914Z" fill="black"/>
<path d="M44.0726 22.5913C44.0726 23.0978 43.9222 23.5929 43.6405 24.0141C43.3588 24.4352 42.9584 24.7635 42.49 24.9573C42.0216 25.1512 41.5061 25.2019 41.0088 25.1031C40.5115 25.0043 40.0547 24.7603 39.6962 24.4022C39.3377 24.044 39.0935 23.5877 38.9946 23.0909C38.8957 22.5941 38.9464 22.0792 39.1405 21.6112C39.3345 21.1433 39.6631 20.7433 40.0847 20.4619C40.5062 20.1805 41.0019 20.0303 41.5089 20.0303C41.8458 20.0294 42.1796 20.0951 42.491 20.2235C42.8024 20.3519 43.0854 20.5405 43.3236 20.7785C43.5618 21.0164 43.7506 21.2991 43.8792 21.6102C44.0077 21.9213 44.0734 22.2547 44.0726 22.5913Z" fill="#204355"/>
<path opacity="0.1" d="M63.6226 26.8229C65.962 26.8229 67.8584 24.9284 67.8584 22.5914C67.8584 20.2544 65.962 18.3599 63.6226 18.3599C61.2832 18.3599 59.3867 20.2544 59.3867 22.5914C59.3867 24.9284 61.2832 26.8229 63.6226 26.8229Z" fill="black"/>
<path d="M66.1937 22.5913C66.1937 23.0978 66.0433 23.5929 65.7616 24.0141C65.4799 24.4352 65.0795 24.7635 64.6111 24.9573C64.1427 25.1512 63.6272 25.2019 63.1299 25.1031C62.6326 25.0043 62.1758 24.7603 61.8173 24.4022C61.4587 24.044 61.2146 23.5877 61.1157 23.0909C61.0167 22.5941 61.0675 22.0792 61.2616 21.6112C61.4556 21.1433 61.7842 20.7433 62.2058 20.4619C62.6273 20.1805 63.123 20.0303 63.63 20.0303C63.9669 20.0294 64.3007 20.0951 64.6121 20.2235C64.9235 20.3519 65.2065 20.5405 65.4447 20.7785C65.6829 21.0164 65.8717 21.2991 66.0003 21.6102C66.1288 21.9213 66.1945 22.2547 66.1937 22.5913Z" fill="#204355"/>
<path opacity="0.1" d="M89.9639 22.5914C89.9639 23.4283 89.7154 24.2464 89.25 24.9423C88.7846 25.6381 88.123 26.1805 87.349 26.5008C86.575 26.821 85.7233 26.9048 84.9017 26.7416C84.08 26.5783 83.3252 26.1753 82.7328 25.5835C82.1404 24.9917 81.737 24.2377 81.5736 23.4169C81.4101 22.5961 81.494 21.7452 81.8146 20.972C82.1352 20.1988 82.6781 19.538 83.3747 19.073C84.0713 18.608 84.8903 18.3599 85.728 18.3599C86.8514 18.3599 87.9288 18.8057 88.7232 19.5992C89.5176 20.3928 89.9639 21.4691 89.9639 22.5914Z" fill="black"/>
<path d="M88.3148 22.5916C88.3147 23.0964 88.1653 23.59 87.8853 24.0102C87.6053 24.4305 87.2072 24.7587 86.741 24.9537C86.2748 25.1486 85.7614 25.2015 85.2652 25.1058C84.769 25.0101 84.3122 24.7701 83.9521 24.4158C83.5921 24.0615 83.3449 23.6089 83.2416 23.1147C83.1383 22.6205 83.1836 22.1068 83.3716 21.6382C83.5597 21.1697 83.8822 20.767 84.2986 20.481C84.715 20.195 85.2068 20.0383 85.7121 20.0306C86.052 20.0254 86.3896 20.0878 86.7051 20.2142C87.0207 20.3406 87.3079 20.5284 87.5501 20.7667C87.7923 21.0051 87.9847 21.2891 88.116 21.6024C88.2472 21.9157 88.3148 22.2519 88.3148 22.5916Z" fill="#204355"/>
<path opacity="0.1" d="M112.124 22.5914C112.124 23.4283 111.876 24.2464 111.41 24.9423C110.945 25.6381 110.283 26.1805 109.509 26.5008C108.735 26.821 107.883 26.9048 107.062 26.7416C106.24 26.5783 105.485 26.1753 104.893 25.5835C104.301 24.9917 103.897 24.2377 103.734 23.4169C103.57 22.5961 103.654 21.7452 103.975 20.972C104.295 20.1988 104.838 19.538 105.535 19.073C106.231 18.608 107.05 18.3599 107.888 18.3599C108.445 18.359 108.996 18.4679 109.51 18.6802C110.024 18.8926 110.492 19.2042 110.885 19.5973C111.279 19.9904 111.591 20.4573 111.803 20.971C112.016 21.4848 112.125 22.0354 112.124 22.5914Z" fill="black"/>
<path d="M110.44 22.5913C110.44 23.0978 110.289 23.5929 110.008 24.0141C109.726 24.4352 109.326 24.7635 108.857 24.9573C108.389 25.1512 107.873 25.2019 107.376 25.1031C106.879 25.0043 106.422 24.7603 106.063 24.4022C105.705 24.044 105.461 23.5877 105.362 23.0909C105.263 22.5941 105.314 22.0792 105.508 21.6112C105.702 21.1433 106.03 20.7433 106.452 20.4619C106.873 20.1805 107.369 20.0303 107.876 20.0303C108.213 20.0294 108.547 20.0951 108.858 20.2235C109.17 20.3519 109.453 20.5405 109.691 20.7785C109.929 21.0164 110.118 21.2991 110.246 21.6102C110.375 21.9213 110.441 22.2547 110.44 22.5913Z" fill="#204355"/>
<path opacity="0.1" d="M130.068 26.8229C132.407 26.8229 134.304 24.9284 134.304 22.5914C134.304 20.2544 132.407 18.3599 130.068 18.3599C127.728 18.3599 125.832 20.2544 125.832 22.5914C125.832 24.9284 127.728 26.8229 130.068 26.8229Z" fill="black"/>
<path d="M132.635 22.5913C132.635 23.0978 132.485 23.5929 132.203 24.0141C131.921 24.4352 131.521 24.7635 131.052 24.9573C130.584 25.1512 130.069 25.2019 129.571 25.1031C129.074 25.0042 128.617 24.7603 128.259 24.4022C127.9 24.044 127.656 23.5877 127.557 23.0909C127.458 22.5941 127.509 22.0792 127.703 21.6112C127.897 21.1433 128.226 20.7433 128.647 20.4619C129.069 20.1805 129.564 20.0303 130.071 20.0303C130.751 20.0303 131.403 20.3001 131.884 20.7804C132.365 21.2607 132.635 21.9121 132.635 22.5913Z" fill="#204355"/>
<path opacity="0.1" d="M152.123 26.8229C154.462 26.8229 156.358 24.9284 156.358 22.5914C156.358 20.2544 154.462 18.3599 152.123 18.3599C149.783 18.3599 147.887 20.2544 147.887 22.5914C147.887 24.9284 149.783 26.8229 152.123 26.8229Z" fill="black"/>
<path d="M154.686 22.5913C154.686 23.0978 154.535 23.5929 154.254 24.0141C153.972 24.4352 153.572 24.7635 153.103 24.9573C152.635 25.1512 152.119 25.2019 151.622 25.1031C151.125 25.0043 150.668 24.7603 150.309 24.4022C149.951 24.044 149.707 23.5877 149.608 23.0909C149.509 22.5941 149.56 22.0792 149.754 21.6112C149.948 21.1433 150.276 20.7433 150.698 20.4619C151.12 20.1805 151.615 20.0303 152.122 20.0303C152.459 20.0294 152.793 20.0951 153.104 20.2235C153.416 20.3519 153.699 20.5405 153.937 20.7785C154.175 21.0164 154.364 21.2991 154.492 21.6102C154.621 21.9213 154.687 22.2547 154.686 22.5913Z" fill="#204355"/>
<path opacity="0.1" d="M174.244 26.8229C176.583 26.8229 178.48 24.9284 178.48 22.5914C178.48 20.2544 176.583 18.3599 174.244 18.3599C171.904 18.3599 170.008 20.2544 170.008 22.5914C170.008 24.9284 171.904 26.8229 174.244 26.8229Z" fill="black"/>
<path d="M176.807 22.5913C176.807 23.0978 176.657 23.5929 176.375 24.0141C176.093 24.4352 175.693 24.7635 175.224 24.9573C174.756 25.1512 174.24 25.2019 173.743 25.1031C173.246 25.0042 172.789 24.7603 172.431 24.4022C172.072 24.044 171.828 23.5877 171.729 23.0909C171.63 22.5941 171.681 22.0792 171.875 21.6112C172.069 21.1433 172.397 20.7433 172.819 20.4619C173.241 20.1805 173.736 20.0303 174.243 20.0303C174.923 20.0303 175.575 20.3001 176.056 20.7804C176.537 21.2607 176.807 21.9121 176.807 22.5913Z" fill="#204355"/>
<path opacity="0.1" d="M196.439 26.8229C198.778 26.8229 200.675 24.9284 200.675 22.5914C200.675 20.2544 198.778 18.3599 196.439 18.3599C194.1 18.3599 192.203 20.2544 192.203 22.5914C192.203 24.9284 194.1 26.8229 196.439 26.8229Z" fill="black"/>
<path d="M199.002 22.5913C199.002 23.0978 198.852 23.5929 198.57 24.0141C198.289 24.4352 197.888 24.7635 197.42 24.9573C196.951 25.1512 196.436 25.2019 195.938 25.1031C195.441 25.0042 194.984 24.7603 194.626 24.4022C194.267 24.044 194.023 23.5877 193.924 23.0909C193.825 22.5941 193.876 22.0792 194.07 21.6112C194.264 21.1433 194.593 20.7433 195.014 20.4619C195.436 20.1805 195.932 20.0303 196.439 20.0303C197.119 20.0303 197.771 20.3001 198.251 20.7804C198.732 21.2607 199.002 21.9121 199.002 22.5913Z" fill="#204355"/>
<path opacity="0.1" d="M222.737 22.5914C222.737 23.4283 222.489 24.2464 222.023 24.9423C221.558 25.6381 220.896 26.1805 220.122 26.5008C219.348 26.821 218.497 26.9048 217.675 26.7416C216.853 26.5783 216.099 26.1753 215.506 25.5835C214.914 24.9917 214.51 24.2377 214.347 23.4169C214.184 22.5961 214.267 21.7452 214.588 20.972C214.909 20.1988 215.452 19.538 216.148 19.073C216.845 18.608 217.664 18.3599 218.501 18.3599C219.625 18.3599 220.702 18.8057 221.497 19.5992C222.291 20.3928 222.737 21.4691 222.737 22.5914Z" fill="black"/>
<path d="M221.053 22.5913C221.053 23.0978 220.903 23.5929 220.621 24.0141C220.339 24.4352 219.939 24.7635 219.47 24.9573C219.002 25.1512 218.487 25.2019 217.989 25.1031C217.492 25.0042 217.035 24.7603 216.677 24.4022C216.318 24.044 216.074 23.5877 215.975 23.0909C215.876 22.5941 215.927 22.0792 216.121 21.6112C216.315 21.1433 216.644 20.7433 217.065 20.4619C217.487 20.1805 217.982 20.0303 218.489 20.0303C219.169 20.0303 219.821 20.3001 220.302 20.7804C220.783 21.2607 221.053 21.9121 221.053 22.5913Z" fill="#204355"/>
<path opacity="0.1" d="M244.894 22.5914C244.894 23.4283 244.645 24.2464 244.18 24.9423C243.714 25.6381 243.053 26.1805 242.279 26.5008C241.505 26.821 240.653 26.9048 239.831 26.7416C239.01 26.5783 238.255 26.1753 237.663 25.5835C237.07 24.9917 236.667 24.2377 236.503 23.4169C236.34 22.5961 236.424 21.7452 236.744 20.972C237.065 20.1988 237.608 19.538 238.304 19.073C239.001 18.608 239.82 18.3599 240.658 18.3599C241.214 18.359 241.765 18.4679 242.28 18.6802C242.794 18.8926 243.261 19.2042 243.655 19.5973C244.048 19.9904 244.36 20.4573 244.573 20.971C244.785 21.4848 244.894 22.0354 244.894 22.5914Z" fill="black"/>
<path d="M243.221 22.5913C243.221 23.0978 243.071 23.5929 242.789 24.0141C242.507 24.4352 242.107 24.7635 241.638 24.9573C241.17 25.1512 240.655 25.2019 240.157 25.1031C239.66 25.0043 239.203 24.7603 238.845 24.4022C238.486 24.044 238.242 23.5877 238.143 23.0909C238.044 22.5941 238.095 22.0792 238.289 21.6112C238.483 21.1433 238.812 20.7433 239.233 20.4619C239.655 20.1805 240.15 20.0303 240.657 20.0303C240.994 20.0294 241.328 20.0951 241.639 20.2235C241.951 20.3519 242.234 20.5405 242.472 20.7785C242.71 21.0164 242.899 21.2991 243.028 21.6102C243.156 21.9213 243.222 22.2547 243.221 22.5913Z" fill="#204355"/>
<path opacity="0.1" d="M266.956 22.5914C266.956 23.4283 266.708 24.2464 266.242 24.9423C265.777 25.6381 265.115 26.1805 264.341 26.5008C263.567 26.821 262.716 26.9048 261.894 26.7416C261.072 26.5783 260.317 26.1753 259.725 25.5835C259.133 24.9917 258.729 24.2377 258.566 23.4169C258.402 22.5961 258.486 21.7452 258.807 20.972C259.127 20.1988 259.67 19.538 260.367 19.073C261.063 18.608 261.882 18.3599 262.72 18.3599C263.277 18.359 263.828 18.4679 264.342 18.6802C264.857 18.8926 265.324 19.2042 265.717 19.5973C266.111 19.9904 266.423 20.4573 266.635 20.971C266.848 21.4848 266.957 22.0354 266.956 22.5914Z" fill="black"/>
<path d="M265.299 22.5912C265.299 23.096 265.15 23.5896 264.87 24.0099C264.59 24.4301 264.192 24.7584 263.725 24.9533C263.259 25.1482 262.746 25.2012 262.25 25.1055C261.753 25.0098 261.297 24.7697 260.936 24.4154C260.576 24.0612 260.329 23.6085 260.226 23.1143C260.123 22.6201 260.168 22.1064 260.356 21.6379C260.544 21.1693 260.867 20.7667 261.283 20.4806C261.699 20.1946 262.191 20.0379 262.696 20.0302C263.037 20.0241 263.375 20.086 263.691 20.212C264.006 20.3381 264.294 20.5259 264.536 20.7644C264.779 21.0029 264.971 21.2873 265.102 21.601C265.233 21.9147 265.3 22.2513 265.299 22.5912Z" fill="#204355"/>
<path opacity="0.1" d="M289.112 22.5914C289.112 23.4283 288.864 24.2464 288.398 24.9423C287.933 25.6381 287.271 26.1805 286.497 26.5008C285.723 26.821 284.872 26.9048 284.05 26.7416C283.228 26.5783 282.474 26.1753 281.881 25.5835C281.289 24.9917 280.885 24.2377 280.722 23.4169C280.559 22.5961 280.642 21.7452 280.963 20.972C281.284 20.1988 281.827 19.538 282.523 19.073C283.22 18.608 284.039 18.3599 284.876 18.3599C285.433 18.359 285.984 18.4679 286.498 18.6802C287.013 18.8926 287.48 19.2042 287.874 19.5973C288.267 19.9904 288.579 20.4573 288.792 20.971C289.004 21.4848 289.113 22.0354 289.112 22.5914Z" fill="black"/>
<path d="M287.42 22.5913C287.42 23.0978 287.27 23.5929 286.988 24.0141C286.706 24.4352 286.306 24.7635 285.838 24.9573C285.369 25.1512 284.854 25.2019 284.356 25.1031C283.859 25.0043 283.402 24.7603 283.044 24.4022C282.685 24.044 282.441 23.5877 282.342 23.0909C282.243 22.5941 282.294 22.0792 282.488 21.6112C282.682 21.1433 283.011 20.7433 283.432 20.4619C283.854 20.1805 284.35 20.0303 284.857 20.0303C285.194 20.0294 285.527 20.0951 285.839 20.2235C286.15 20.3519 286.433 20.5405 286.671 20.7785C286.91 21.0164 287.098 21.2991 287.227 21.6102C287.355 21.9213 287.421 22.2547 287.42 22.5913Z" fill="#204355"/>
<path opacity="0.1" d="M306.986 26.8229C309.325 26.8229 311.222 24.9284 311.222 22.5914C311.222 20.2544 309.325 18.3599 306.986 18.3599C304.646 18.3599 302.75 20.2544 302.75 22.5914C302.75 24.9284 304.646 26.8229 306.986 26.8229Z" fill="black"/>
<path d="M309.541 22.5913C309.541 23.0978 309.391 23.5929 309.109 24.0141C308.828 24.4352 308.427 24.7635 307.959 24.9573C307.49 25.1512 306.975 25.2019 306.478 25.1031C305.98 25.0043 305.523 24.7603 305.165 24.4022C304.806 24.044 304.562 23.5877 304.463 23.0909C304.364 22.5941 304.415 22.0792 304.609 21.6112C304.803 21.1433 305.132 20.7433 305.553 20.4619C305.975 20.1805 306.471 20.0303 306.978 20.0303C307.315 20.0294 307.648 20.0951 307.96 20.2235C308.271 20.3519 308.554 20.5405 308.792 20.7785C309.031 21.0164 309.219 21.2991 309.348 21.6102C309.476 21.9213 309.542 22.2547 309.541 22.5913Z" fill="#204355"/>
<path d="M43.6023 13.6474C43.6023 15.7599 43.368 22.6369 43.368 22.6369C43.368 25.0289 39.6658 25.0224 39.6658 22.6369V12.1459C39.6658 6.8549 37.3559 4.9504 35.0655 4.9504C32.2026 4.9504 30.5109 8.3954 30.5109 12.0224H26.7891C26.7891 3.7869 30.7321 0.608398 34.7858 0.608398C40.9476 0.608398 43.6023 4.7164 43.6023 13.6474Z" fill="#0F5980"/>
<path d="M65.7247 13.6474C65.7247 15.7599 65.4904 22.6369 65.4904 22.6369C65.4904 25.0289 61.7947 25.0224 61.7947 22.6369C61.7947 20.2514 61.7947 16.0264 61.7947 12.1459C61.7947 6.8549 59.4913 4.9504 57.1944 4.9504C54.3315 4.9504 52.6398 8.3954 52.6398 12.0224H48.918C48.918 3.7869 52.861 0.608398 56.9147 0.608398C63.07 0.608398 65.7247 4.7164 65.7247 13.6474Z" fill="#0F5980"/>
<path d="M87.8549 13.6474C87.8549 15.7599 87.6206 22.6369 87.6206 22.6369C87.6206 25.0289 83.9184 25.0224 83.9184 22.6369V12.1459C83.9184 6.8549 81.6085 4.9504 79.3116 4.9504C76.4487 4.9504 74.757 8.3954 74.757 12.0224H71.0352C71.0352 3.7869 74.9782 0.608398 79.0318 0.608398C85.1937 0.608398 87.8549 4.7164 87.8549 13.6474Z" fill="#0F5980"/>
<path d="M109.977 13.6474C109.977 15.7599 109.743 22.6369 109.743 22.6369C109.743 25.0289 106.041 25.0224 106.041 22.6369V12.1459C106.041 6.8549 103.731 4.9504 101.441 4.9504C98.5776 4.9504 96.8859 8.3954 96.8859 12.0224H93.1641C93.1641 3.7869 97.1071 0.608398 101.161 0.608398C107.323 0.608398 109.977 4.7164 109.977 13.6474Z" fill="#0F5980"/>
<path d="M132.098 13.6474C132.098 15.7599 131.864 22.6369 131.864 22.6369C131.864 25.0289 128.162 25.0224 128.162 22.6369V12.1459C128.162 6.8549 125.858 4.9504 123.562 4.9504C120.699 4.9504 119.007 8.3954 119.007 12.0224H115.285C115.285 3.7869 119.228 0.608398 123.282 0.608398C129.444 0.608398 132.098 4.7164 132.098 13.6474Z" fill="#0F5980"/>
<path d="M154.23 13.6474C154.23 15.7599 153.989 22.6369 153.989 22.6369C153.989 25.0289 150.293 25.0224 150.293 22.6369V12.1459C150.293 6.8549 147.983 4.9504 145.687 4.9504C142.824 4.9504 141.132 8.3954 141.132 12.0224H137.41C137.41 3.7869 141.347 0.608398 145.407 0.608398C151.569 0.608398 154.23 4.7164 154.23 13.6474Z" fill="#0F5980"/>
<path d="M176.351 13.6474C176.351 15.7599 176.117 22.6369 176.117 22.6369C176.117 25.0289 172.414 25.0224 172.414 22.6369V12.1459C172.414 6.8549 170.105 4.9504 167.808 4.9504C164.945 4.9504 163.253 8.3954 163.253 12.0224H159.531C159.531 3.7869 163.474 0.608398 167.528 0.608398C173.696 0.608398 176.351 4.7164 176.351 13.6474Z" fill="#0F5980"/>
<path d="M198.473 13.6474C198.473 15.7599 198.239 22.6369 198.239 22.6369C198.239 25.0289 194.537 25.0224 194.537 22.6369V12.1459C194.537 6.8549 192.233 4.9504 189.937 4.9504C187.074 4.9504 185.382 8.3954 185.382 12.0224H181.66C181.66 3.7869 185.603 0.608398 189.657 0.608398C195.819 0.608398 198.473 4.7164 198.473 13.6474Z" fill="#0F5980"/>
<path d="M220.605 13.6474C220.605 15.7599 220.364 22.6369 220.364 22.6369C220.364 25.0289 216.668 25.0224 216.668 22.6369C216.668 20.2514 216.668 16.0264 216.668 12.1459C216.668 6.8549 214.365 4.9504 212.068 4.9504C209.205 4.9504 207.513 8.3954 207.513 12.0224H203.785C203.785 3.7869 207.728 0.608398 211.788 0.608398C217.944 0.608398 220.605 4.7164 220.605 13.6474Z" fill="#0F5980"/>
<path d="M242.726 13.6474C242.726 15.7599 242.492 22.6369 242.492 22.6369C242.492 25.0289 238.789 25.0224 238.789 22.6369V12.1459C238.789 6.8549 236.48 4.9504 234.183 4.9504C231.32 4.9504 229.628 8.3954 229.628 12.0224H225.906C225.906 3.7869 229.849 0.608398 233.903 0.608398C240.071 0.608398 242.726 4.7164 242.726 13.6474Z" fill="#0F5980"/>
<path d="M264.848 13.6474C264.848 15.7599 264.614 22.6369 264.614 22.6369C264.614 25.0289 260.912 25.0224 260.912 22.6369V12.1459C260.912 6.8549 258.608 4.9504 256.312 4.9504C253.449 4.9504 251.757 8.3954 251.757 12.0224H248.035C248.035 3.7869 251.978 0.608398 256.032 0.608398C262.194 0.608398 264.848 4.7164 264.848 13.6474Z" fill="#0F5980"/>
<path d="M286.98 13.6474C286.98 15.7599 286.739 22.6369 286.739 22.6369C286.739 25.0289 283.043 25.0224 283.043 22.6369C283.043 20.2514 283.043 16.0264 283.043 12.1459C283.043 6.8549 280.74 4.9504 278.443 4.9504C275.58 4.9504 273.889 8.3954 273.889 12.0224H270.16C270.16 3.7869 274.103 0.608398 278.157 0.608398C284.319 0.608398 286.98 4.7164 286.98 13.6474Z" fill="#0F5980"/>
<path d="M309.101 13.6474C309.101 15.7599 308.867 22.6369 308.867 22.6369C308.867 25.0289 305.164 25.0224 305.164 22.6369V12.1459C305.164 6.8549 302.855 4.9504 300.558 4.9504C297.695 4.9504 296.003 8.3954 296.003 12.0224H292.281C292.281 3.7869 296.224 0.608398 300.278 0.608398C306.446 0.608398 309.101 4.7164 309.101 13.6474Z" fill="#0F5980"/>
<path d="M56.921 76.7088C57.5397 76.7088 58.0703 76.8208 58.513 77.0448C58.9557 77.2688 59.2943 77.5914 59.529 78.0128C59.7637 78.4341 59.881 78.9354 59.881 79.5168C59.881 80.0928 59.7637 80.5914 59.529 81.0128C59.2943 81.4288 58.9557 81.7488 58.513 81.9728C58.0703 82.1914 57.5397 82.3008 56.921 82.3008H55.265V76.7088H56.921ZM56.921 81.8368C57.6997 81.8368 58.2917 81.6341 58.697 81.2288C59.1077 80.8181 59.313 80.2474 59.313 79.5168C59.313 78.7808 59.1077 78.2074 58.697 77.7968C58.2917 77.3808 57.6997 77.1728 56.921 77.1728H55.825V81.8368H56.921ZM63.4254 82.3568C62.9081 82.3568 62.4388 82.2368 62.0174 81.9968C61.5961 81.7514 61.2628 81.4128 61.0174 80.9808C60.7774 80.5434 60.6574 80.0501 60.6574 79.5008C60.6574 78.9514 60.7774 78.4608 61.0174 78.0288C61.2628 77.5914 61.5961 77.2528 62.0174 77.0128C62.4388 76.7674 62.9081 76.6448 63.4254 76.6448C63.9481 76.6448 64.4201 76.7674 64.8414 77.0128C65.2628 77.2528 65.5934 77.5914 65.8334 78.0288C66.0734 78.4608 66.1934 78.9514 66.1934 79.5008C66.1934 80.0501 66.0734 80.5434 65.8334 80.9808C65.5934 81.4128 65.2628 81.7514 64.8414 81.9968C64.4201 82.2368 63.9481 82.3568 63.4254 82.3568ZM63.4254 81.8688C63.8414 81.8688 64.2148 81.7728 64.5454 81.5808C64.8761 81.3888 65.1374 81.1141 65.3294 80.7568C65.5214 80.3941 65.6174 79.9754 65.6174 79.5008C65.6174 79.0261 65.5214 78.6101 65.3294 78.2528C65.1374 77.8954 64.8761 77.6208 64.5454 77.4288C64.2148 77.2368 63.8414 77.1408 63.4254 77.1408C63.0094 77.1408 62.6361 77.2368 62.3054 77.4288C61.9748 77.6208 61.7134 77.8954 61.5214 78.2528C61.3294 78.6101 61.2334 79.0261 61.2334 79.5008C61.2334 79.9754 61.3294 80.3941 61.5214 80.7568C61.7134 81.1141 61.9748 81.3888 62.3054 81.5808C62.6361 81.7728 63.0094 81.8688 63.4254 81.8688ZM72.6821 76.7808V82.3008H72.1221V77.8928L70.1541 82.3008H69.7461L67.7781 77.9088V82.3008H67.2181V76.7808H67.8101L69.9461 81.5648L72.0821 76.7808H72.6821Z" fill="#0F5980"/>
<path d="M94.2462 82.3568C93.8782 82.3568 93.5528 82.2928 93.2702 82.1648C92.9928 82.0368 92.7742 81.8581 92.6142 81.6288C92.4542 81.3994 92.3688 81.1434 92.3582 80.8608H92.9502C92.9768 81.1328 93.0968 81.3728 93.3102 81.5808C93.5235 81.7834 93.8355 81.8848 94.2462 81.8848C94.6248 81.8848 94.9235 81.7888 95.1422 81.5968C95.3662 81.3994 95.4782 81.1514 95.4782 80.8528C95.4782 80.6128 95.4168 80.4208 95.2942 80.2768C95.1715 80.1274 95.0195 80.0181 94.8382 79.9488C94.6568 79.8741 94.4062 79.7941 94.0862 79.7088C93.7128 79.6074 93.4168 79.5088 93.1982 79.4128C92.9795 79.3168 92.7928 79.1674 92.6382 78.9648C92.4835 78.7621 92.4062 78.4874 92.4062 78.1408C92.4062 77.8528 92.4808 77.5968 92.6302 77.3728C92.7795 77.1434 92.9902 76.9648 93.2622 76.8368C93.5342 76.7088 93.8462 76.6448 94.1982 76.6448C94.7155 76.6448 95.1315 76.7728 95.4462 77.0288C95.7662 77.2794 95.9502 77.6048 95.9982 78.0048H95.3902C95.3528 77.7754 95.2275 77.5728 95.0142 77.3968C94.8008 77.2154 94.5128 77.1248 94.1502 77.1248C93.8142 77.1248 93.5342 77.2154 93.3102 77.3968C93.0862 77.5728 92.9742 77.8154 92.9742 78.1248C92.9742 78.3594 93.0355 78.5488 93.1582 78.6928C93.2808 78.8368 93.4328 78.9461 93.6142 79.0208C93.8008 79.0954 94.0515 79.1754 94.3662 79.2608C94.7288 79.3621 95.0222 79.4634 95.2462 79.5648C95.4702 79.6608 95.6595 79.8101 95.8142 80.0128C95.9688 80.2154 96.0462 80.4874 96.0462 80.8288C96.0462 81.0901 95.9768 81.3381 95.8382 81.5728C95.6995 81.8074 95.4942 81.9968 95.2222 82.1408C94.9502 82.2848 94.6248 82.3568 94.2462 82.3568ZM97.6883 77.1648V79.2528H99.8083V79.7168H97.6883V81.8368H100.048V82.3008H97.1283V76.7008H100.048V77.1648H97.6883ZM105.552 78.3408C105.392 77.9728 105.146 77.6848 104.816 77.4768C104.49 77.2634 104.106 77.1568 103.664 77.1568C103.248 77.1568 102.874 77.2528 102.544 77.4448C102.213 77.6368 101.952 77.9114 101.76 78.2688C101.568 78.6208 101.472 79.0314 101.472 79.5008C101.472 79.9701 101.568 80.3834 101.76 80.7408C101.952 81.0981 102.213 81.3728 102.544 81.5648C102.874 81.7568 103.248 81.8528 103.664 81.8528C104.053 81.8528 104.402 81.7701 104.712 81.6048C105.026 81.4341 105.277 81.1941 105.464 80.8848C105.656 80.5701 105.765 80.2048 105.792 79.7888H103.44V79.3328H106.384V79.7408C106.357 80.2314 106.224 80.6768 105.984 81.0768C105.744 81.4714 105.421 81.7834 105.016 82.0128C104.616 82.2421 104.165 82.3568 103.664 82.3568C103.146 82.3568 102.677 82.2368 102.256 81.9968C101.834 81.7514 101.501 81.4128 101.256 80.9808C101.016 80.5434 100.896 80.0501 100.896 79.5008C100.896 78.9514 101.016 78.4608 101.256 78.0288C101.501 77.5914 101.834 77.2528 102.256 77.0128C102.677 76.7674 103.146 76.6448 103.664 76.6448C104.261 76.6448 104.784 76.7941 105.232 77.0928C105.68 77.3914 106.005 77.8074 106.208 78.3408H105.552Z" fill="#0F5980"/>
<path d="M131.451 76.7088V77.1728H129.899V82.3008H129.339V77.1728H127.779V76.7088H131.451ZM132.895 77.1648V79.2528H135.015V79.7168H132.895V81.8368H135.255V82.3008H132.335V76.7008H135.255V77.1648H132.895ZM139.335 82.3008L137.951 79.9648H136.919V82.3008H136.359V76.7088H138.039C138.663 76.7088 139.135 76.8581 139.455 77.1568C139.78 77.4554 139.943 77.8474 139.943 78.3328C139.943 78.7381 139.825 79.0848 139.591 79.3728C139.361 79.6554 139.02 79.8394 138.567 79.9248L140.007 82.3008H139.335ZM136.919 79.5088H138.047C138.484 79.5088 138.812 79.4021 139.031 79.1888C139.255 78.9754 139.367 78.6901 139.367 78.3328C139.367 77.9648 139.26 77.6821 139.047 77.4848C138.833 77.2821 138.497 77.1808 138.039 77.1808H136.919V79.5088Z" fill="#0F5980"/>
<path d="M165.436 83.3968L164.188 82.2368C163.916 82.3168 163.63 82.3568 163.332 82.3568C162.814 82.3568 162.345 82.2368 161.924 81.9968C161.502 81.7514 161.169 81.4128 160.924 80.9808C160.684 80.5434 160.564 80.0501 160.564 79.5008C160.564 78.9514 160.684 78.4608 160.924 78.0288C161.169 77.5914 161.502 77.2528 161.924 77.0128C162.345 76.7674 162.814 76.6448 163.332 76.6448C163.854 76.6448 164.326 76.7674 164.748 77.0128C165.169 77.2528 165.5 77.5914 165.74 78.0288C165.98 78.4608 166.1 78.9514 166.1 79.5008C166.1 80.0661 165.974 80.5701 165.724 81.0128C165.473 81.4501 165.129 81.7861 164.692 82.0208L166.188 83.3968H165.436ZM161.14 79.5008C161.14 79.9754 161.236 80.3941 161.428 80.7568C161.62 81.1141 161.881 81.3888 162.212 81.5808C162.542 81.7728 162.916 81.8688 163.332 81.8688C163.748 81.8688 164.121 81.7728 164.452 81.5808C164.782 81.3888 165.044 81.1141 165.236 80.7568C165.428 80.3941 165.524 79.9754 165.524 79.5008C165.524 79.0261 165.428 78.6101 165.236 78.2528C165.044 77.8954 164.782 77.6208 164.452 77.4288C164.121 77.2368 163.748 77.1408 163.332 77.1408C162.916 77.1408 162.542 77.2368 162.212 77.4288C161.881 77.6208 161.62 77.8954 161.428 78.2528C161.236 78.6101 161.14 79.0261 161.14 79.5008ZM167.668 76.7088V80.2288C167.668 80.7834 167.799 81.1941 168.06 81.4608C168.327 81.7274 168.69 81.8608 169.148 81.8608C169.607 81.8608 169.964 81.7301 170.22 81.4688C170.482 81.2021 170.612 80.7888 170.612 80.2288V76.7088H171.172V80.2208C171.172 80.9301 170.983 81.4634 170.604 81.8208C170.231 82.1781 169.743 82.3568 169.14 82.3568C168.538 82.3568 168.047 82.1781 167.668 81.8208C167.295 81.4634 167.108 80.9301 167.108 80.2208V76.7088H167.668ZM175.661 80.9728H173.117L172.629 82.3008H172.037L174.077 76.7808H174.709L176.741 82.3008H176.149L175.661 80.9728ZM175.493 80.5088L174.389 77.4848L173.285 80.5088H175.493Z" fill="#0F5980"/>
<path d="M202.217 83.3968L200.969 82.2368C200.697 82.3168 200.412 82.3568 200.113 82.3568C199.596 82.3568 199.126 82.2368 198.705 81.9968C198.284 81.7514 197.95 81.4128 197.705 80.9808C197.465 80.5434 197.345 80.0501 197.345 79.5008C197.345 78.9514 197.465 78.4608 197.705 78.0288C197.95 77.5914 198.284 77.2528 198.705 77.0128C199.126 76.7674 199.596 76.6448 200.113 76.6448C200.636 76.6448 201.108 76.7674 201.529 77.0128C201.95 77.2528 202.281 77.5914 202.521 78.0288C202.761 78.4608 202.881 78.9514 202.881 79.5008C202.881 80.0661 202.756 80.5701 202.505 81.0128C202.254 81.4501 201.91 81.7861 201.473 82.0208L202.969 83.3968H202.217ZM197.921 79.5008C197.921 79.9754 198.017 80.3941 198.209 80.7568C198.401 81.1141 198.662 81.3888 198.993 81.5808C199.324 81.7728 199.697 81.8688 200.113 81.8688C200.529 81.8688 200.902 81.7728 201.233 81.5808C201.564 81.3888 201.825 81.1141 202.017 80.7568C202.209 80.3941 202.305 79.9754 202.305 79.5008C202.305 79.0261 202.209 78.6101 202.017 78.2528C201.825 77.8954 201.564 77.6208 201.233 77.4288C200.902 77.2368 200.529 77.1408 200.113 77.1408C199.697 77.1408 199.324 77.2368 198.993 77.4288C198.662 77.6208 198.401 77.8954 198.209 78.2528C198.017 78.6101 197.921 79.0261 197.921 79.5008ZM204.449 76.7088V80.2288C204.449 80.7834 204.58 81.1941 204.841 81.4608C205.108 81.7274 205.471 81.8608 205.929 81.8608C206.388 81.8608 206.745 81.7301 207.001 81.4688C207.263 81.2021 207.393 80.7888 207.393 80.2288V76.7088H207.953V80.2208C207.953 80.9301 207.764 81.4634 207.385 81.8208C207.012 82.1781 206.524 82.3568 205.921 82.3568C205.319 82.3568 204.828 82.1781 204.449 81.8208C204.076 81.4634 203.889 80.9301 203.889 80.2208V76.7088H204.449ZM209.763 76.7088V82.3008H209.203V76.7088H209.763Z" fill="#0F5980"/>
<path d="M233.828 82.3568C233.46 82.3568 233.135 82.2928 232.852 82.1648C232.575 82.0368 232.356 81.8581 232.196 81.6288C232.036 81.3994 231.951 81.1434 231.94 80.8608H232.532C232.559 81.1328 232.679 81.3728 232.892 81.5808C233.106 81.7834 233.418 81.8848 233.828 81.8848C234.207 81.8848 234.506 81.7888 234.724 81.5968C234.948 81.3994 235.06 81.1514 235.06 80.8528C235.06 80.6128 234.999 80.4208 234.876 80.2768C234.754 80.1274 234.602 80.0181 234.42 79.9488C234.239 79.8741 233.988 79.7941 233.668 79.7088C233.295 79.6074 232.999 79.5088 232.78 79.4128C232.562 79.3168 232.375 79.1674 232.22 78.9648C232.066 78.7621 231.988 78.4874 231.988 78.1408C231.988 77.8528 232.063 77.5968 232.212 77.3728C232.362 77.1434 232.572 76.9648 232.844 76.8368C233.116 76.7088 233.428 76.6448 233.78 76.6448C234.298 76.6448 234.714 76.7728 235.028 77.0288C235.348 77.2794 235.532 77.6048 235.58 78.0048H234.972C234.935 77.7754 234.81 77.5728 234.596 77.3968C234.383 77.2154 234.095 77.1248 233.732 77.1248C233.396 77.1248 233.116 77.2154 232.892 77.3968C232.668 77.5728 232.556 77.8154 232.556 78.1248C232.556 78.3594 232.618 78.5488 232.74 78.6928C232.863 78.8368 233.015 78.9461 233.196 79.0208C233.383 79.0954 233.634 79.1754 233.948 79.2608C234.311 79.3621 234.604 79.4634 234.828 79.5648C235.052 79.6608 235.242 79.8101 235.396 80.0128C235.551 80.2154 235.628 80.4874 235.628 80.8288C235.628 81.0901 235.559 81.3381 235.42 81.5728C235.282 81.8074 235.076 81.9968 234.804 82.1408C234.532 82.2848 234.207 82.3568 233.828 82.3568ZM237.27 77.1648V79.2528H239.39V79.7168H237.27V81.8368H239.63V82.3008H236.71V76.7008H239.63V77.1648H237.27ZM242.75 79.5088L244.446 82.3008H243.822L242.398 79.9648L241.046 82.3008H240.422L242.11 79.4848L240.422 76.7088H241.046L242.462 79.0368L243.83 76.7088H244.454L242.75 79.5088Z" fill="#0F5980"/>
<path d="M268.965 82.3568C268.597 82.3568 268.272 82.2928 267.989 82.1648C267.712 82.0368 267.493 81.8581 267.333 81.6288C267.173 81.3994 267.088 81.1434 267.077 80.8608H267.669C267.696 81.1328 267.816 81.3728 268.029 81.5808C268.242 81.7834 268.554 81.8848 268.965 81.8848C269.344 81.8848 269.642 81.7888 269.861 81.5968C270.085 81.3994 270.197 81.1514 270.197 80.8528C270.197 80.6128 270.136 80.4208 270.013 80.2768C269.89 80.1274 269.738 80.0181 269.557 79.9488C269.376 79.8741 269.125 79.7941 268.805 79.7088C268.432 79.6074 268.136 79.5088 267.917 79.4128C267.698 79.3168 267.512 79.1674 267.357 78.9648C267.202 78.7621 267.125 78.4874 267.125 78.1408C267.125 77.8528 267.2 77.5968 267.349 77.3728C267.498 77.1434 267.709 76.9648 267.981 76.8368C268.253 76.7088 268.565 76.6448 268.917 76.6448C269.434 76.6448 269.85 76.7728 270.165 77.0288C270.485 77.2794 270.669 77.6048 270.717 78.0048H270.109C270.072 77.7754 269.946 77.5728 269.733 77.3968C269.52 77.2154 269.232 77.1248 268.869 77.1248C268.533 77.1248 268.253 77.2154 268.029 77.3968C267.805 77.5728 267.693 77.8154 267.693 78.1248C267.693 78.3594 267.754 78.5488 267.877 78.6928C268 78.8368 268.152 78.9461 268.333 79.0208C268.52 79.0954 268.77 79.1754 269.085 79.2608C269.448 79.3621 269.741 79.4634 269.965 79.5648C270.189 79.6608 270.378 79.8101 270.533 80.0128C270.688 80.2154 270.765 80.4874 270.765 80.8288C270.765 81.0901 270.696 81.3381 270.557 81.5728C270.418 81.8074 270.213 81.9968 269.941 82.1408C269.669 82.2848 269.344 82.3568 268.965 82.3568ZM275.087 80.9728H272.543L272.055 82.3008H271.463L273.503 76.7808H274.135L276.167 82.3008H275.575L275.087 80.9728ZM274.919 80.5088L273.815 77.4848L272.711 80.5088H274.919ZM279.682 79.4128C279.996 79.4714 280.263 79.6314 280.482 79.8928C280.7 80.1541 280.81 80.4581 280.81 80.8048C280.81 81.0874 280.738 81.3434 280.594 81.5728C280.455 81.7968 280.25 81.9754 279.978 82.1088C279.706 82.2368 279.38 82.3008 279.002 82.3008H277.066V76.7088H278.946C279.511 76.7088 279.94 76.8394 280.234 77.1008C280.532 77.3621 280.682 77.7008 280.682 78.1168C280.682 78.4634 280.588 78.7461 280.402 78.9648C280.215 79.1781 279.975 79.3274 279.682 79.4128ZM277.626 79.1808H278.93C279.308 79.1808 279.599 79.0928 279.802 78.9168C280.01 78.7354 280.114 78.4874 280.114 78.1728C280.114 77.8634 280.01 77.6208 279.802 77.4448C279.599 77.2688 279.3 77.1808 278.906 77.1808H277.626V79.1808ZM278.962 81.8288C279.367 81.8288 279.682 81.7328 279.906 81.5408C280.135 81.3488 280.25 81.0848 280.25 80.7488C280.25 80.4128 280.13 80.1461 279.89 79.9488C279.655 79.7461 279.338 79.6448 278.938 79.6448H277.626V81.8288H278.962Z" fill="#0F5980"/>
</svg>
