<svg width="320" height="321" viewBox="0 0 320 321" fill="none" xmlns="http://www.w3.org/2000/svg">
<path d="M240.645 132.129H78.8359V191.885H240.645V132.129Z" fill="#FFD780"/>
<path opacity="0.5" d="M240.645 132.129H78.8359V191.885H240.645V132.129Z" fill="black"/>
<path d="M78.8389 191.885L240.648 191.885V161.645L78.8389 161.645V191.885Z" fill="#FFD780"/>
<path opacity="0.4" d="M78.8389 191.885L240.648 191.885V161.645L78.8389 161.645V191.885Z" fill="black"/>
<g opacity="0.2">
<path d="M231.871 163.278C229.319 163.278 229.319 167.258 231.871 167.258C234.423 167.258 234.423 163.278 231.871 163.278Z" fill="black"/>
<path d="M171.904 152.391C171.814 152.186 171.712 151.988 171.597 151.796C171.518 151.662 171.406 151.551 171.271 151.474C171.136 151.397 170.984 151.356 170.829 151.356C170.673 151.356 170.521 151.397 170.386 151.474C170.251 151.551 170.139 151.662 170.06 151.796C169.946 151.989 169.841 152.188 169.747 152.391C168.624 154.746 173.033 154.746 171.904 152.391Z" fill="black"/>
<path d="M112.122 145.415C110.176 145.415 110.17 148.455 112.122 148.455C114.074 148.455 114.081 145.415 112.122 145.415Z" fill="black"/>
<path d="M194.739 179.559C192.793 179.559 192.787 182.599 194.739 182.599C196.691 182.599 196.698 179.559 194.739 179.559Z" fill="black"/>
<path d="M226.365 172.884C224.413 172.884 224.406 175.924 226.365 175.924C228.324 175.924 228.317 172.884 226.365 172.884Z" fill="black"/>
<path d="M87.1649 172.884C85.219 172.884 85.2127 175.924 87.1649 175.924C89.1172 175.924 89.1236 172.884 87.1649 172.884Z" fill="black"/>
<path d="M140.934 180.372C138.989 180.372 138.982 183.412 140.934 183.412C142.887 183.412 142.893 180.372 140.934 180.372Z" fill="black"/>
<path d="M99.665 168.007C99.2709 167.616 98.739 167.397 98.1848 167.397C97.6306 167.397 97.0988 167.616 96.7047 168.007C96.3408 168.379 96.0823 168.841 95.9556 169.346C95.8288 169.851 95.8386 170.381 95.9837 170.881C96.3857 173.07 99.9904 173.07 100.392 170.881C100.535 170.38 100.542 169.85 100.415 169.346C100.287 168.841 100.028 168.379 99.665 168.007Z" fill="black"/>
<path d="M192.919 154.535C192.525 154.144 191.993 153.925 191.439 153.925C190.885 153.925 190.353 154.144 189.959 154.535C189.595 154.907 189.336 155.369 189.209 155.874C189.083 156.379 189.092 156.909 189.238 157.409C189.64 159.597 193.244 159.597 193.64 157.409C193.784 156.909 193.794 156.379 193.667 155.874C193.54 155.369 193.282 154.907 192.919 154.535Z" fill="black"/>
</g>
<path opacity="0.1" d="M240.645 132.129C229.283 167.405 230.801 189.133 78.8359 189.133V191.892H240.645V132.129Z" fill="black"/>
<path d="M239.657 118.138C240.872 118.134 242.059 118.51 243.05 119.214C244.042 119.919 244.79 120.917 245.189 122.068C245.463 122.852 245.608 123.676 245.616 124.506V180.993C245.638 181.571 245.544 182.148 245.339 182.689C245.133 183.23 244.821 183.724 244.421 184.141C244.021 184.558 243.542 184.889 243.011 185.116C242.48 185.343 241.909 185.46 241.332 185.46C240.755 185.46 240.184 185.343 239.653 185.116C239.122 184.889 238.642 184.558 238.242 184.141C237.842 183.724 237.53 183.23 237.325 182.689C237.12 182.148 237.025 181.571 237.048 180.993V164.353C237.048 163.482 236.703 162.647 236.089 162.031C235.475 161.416 234.643 161.07 233.775 161.07C232.907 161.07 232.074 161.416 231.46 162.031C230.847 162.647 230.502 163.482 230.502 164.353V168.756C230.502 169.897 230.05 170.991 229.246 171.797C228.442 172.604 227.352 173.057 226.214 173.057C225.077 173.057 223.987 172.604 223.183 171.797C222.379 170.991 221.927 169.897 221.927 168.756V153.466C221.927 152.518 221.551 151.608 220.883 150.937C220.214 150.266 219.307 149.889 218.361 149.889H214.533C213.629 149.889 212.763 150.249 212.124 150.89C211.485 151.531 211.126 152.4 211.126 153.306V176.206C211.126 177.346 210.674 178.44 209.87 179.247C209.066 180.053 207.976 180.506 206.838 180.506C205.701 180.506 204.611 180.053 203.807 179.247C203.003 178.44 202.551 177.346 202.551 176.206V154.356C202.551 153.168 202.081 152.028 201.243 151.188C200.405 150.348 199.27 149.876 198.085 149.876H148.895C146.292 149.876 144.187 151.156 144.187 153.761V154.554C144.209 155.133 144.115 155.71 143.909 156.251C143.704 156.791 143.392 157.285 142.992 157.702C142.592 158.119 142.112 158.451 141.581 158.678C141.051 158.904 140.48 159.021 139.903 159.021C139.326 159.021 138.755 158.904 138.224 158.678C137.693 158.451 137.213 158.119 136.813 157.702C136.413 157.285 136.101 156.791 135.896 156.251C135.691 155.71 135.596 155.133 135.618 154.554V152.89C135.618 152.091 135.302 151.324 134.738 150.759C134.175 150.194 133.41 149.876 132.614 149.876H132.39C131.593 149.876 130.829 150.194 130.265 150.759C129.702 151.324 129.385 152.091 129.385 152.89V176.11C129.342 177.221 128.872 178.272 128.074 179.043C127.275 179.814 126.21 180.245 125.101 180.245C123.993 180.245 122.927 179.814 122.128 179.043C121.33 178.272 120.86 177.221 120.817 176.11V166.638C120.817 165.297 120.286 164.011 119.341 163.063C118.395 162.114 117.113 161.582 115.777 161.582H116.198C114.861 161.582 113.579 162.114 112.634 163.063C111.689 164.011 111.158 165.297 111.158 166.638V167.834C111.158 168.975 110.706 170.069 109.902 170.876C109.098 171.682 108.007 172.135 106.87 172.135C105.733 172.135 104.643 171.682 103.839 170.876C103.035 170.069 102.583 168.975 102.583 167.834V152.769C102.583 152.005 102.28 151.273 101.742 150.732C101.204 150.192 100.473 149.889 99.7119 149.889H85.9693C85.033 149.889 84.135 150.262 83.4723 150.925C82.8096 151.589 82.4365 152.489 82.4348 153.428V162.804C82.4571 163.382 82.3627 163.959 82.1574 164.5C81.9522 165.041 81.6402 165.535 81.2402 165.952C80.8402 166.369 80.3603 166.701 79.8295 166.927C79.2986 167.154 78.7276 167.271 78.1506 167.271C77.5737 167.271 77.0027 167.154 76.4718 166.927C75.9409 166.701 75.4611 166.369 75.0611 165.952C74.6611 165.535 74.3491 165.041 74.1438 164.5C73.9386 163.959 73.8442 163.382 73.8665 162.804V124.506C73.8665 120.986 76.7056 118.138 83.8448 118.138H239.657Z" fill="#FFD780"/>
<path d="M144.04 166.26C144.041 167.102 143.794 167.926 143.328 168.626C142.863 169.327 142.201 169.874 141.425 170.197C140.65 170.52 139.797 170.605 138.974 170.441C138.15 170.278 137.394 169.873 136.8 169.278C136.206 168.683 135.801 167.925 135.637 167.099C135.472 166.273 135.556 165.417 135.877 164.639C136.198 163.861 136.742 163.196 137.44 162.728C138.137 162.26 138.958 162.01 139.797 162.01C140.922 162.01 142 162.458 142.795 163.255C143.591 164.052 144.038 165.132 144.04 166.26Z" fill="#FFD780"/>
<path d="M76.8033 135.406C76.4649 135.406 76.1404 135.271 75.9011 135.031C75.6618 134.791 75.5273 134.465 75.5273 134.126V124.859C75.5273 123.501 76.0651 122.198 77.0223 121.238C77.9795 120.278 79.2777 119.739 80.6313 119.739H113.208C113.546 119.739 113.871 119.873 114.11 120.113C114.349 120.353 114.484 120.679 114.484 121.019C114.484 121.358 114.349 121.684 114.11 121.924C113.871 122.164 113.546 122.299 113.208 122.299H80.6313C79.9545 122.299 79.3054 122.568 78.8268 123.048C78.3482 123.528 78.0793 124.18 78.0793 124.859V134.126C78.0793 134.465 77.9449 134.791 77.7056 135.031C77.4663 135.271 77.1418 135.406 76.8033 135.406Z" fill="white"/>
<path d="M124.128 122.318H119.483C119.145 122.318 118.82 122.183 118.581 121.943C118.341 121.703 118.207 121.377 118.207 121.038C118.207 120.698 118.341 120.373 118.581 120.132C118.82 119.892 119.145 119.758 119.483 119.758H124.128C124.466 119.758 124.791 119.892 125.03 120.132C125.269 120.373 125.404 120.698 125.404 121.038C125.404 121.377 125.269 121.703 125.03 121.943C124.791 122.183 124.466 122.318 124.128 122.318Z" fill="white"/>
<path d="M76.9088 163.45C76.5704 163.45 76.2458 163.316 76.0065 163.076C75.7672 162.836 75.6328 162.51 75.6328 162.17V156.609C75.6328 156.269 75.7672 155.944 76.0065 155.704C76.2458 155.464 76.5704 155.329 76.9088 155.329C77.2472 155.329 77.5718 155.464 77.8111 155.704C78.0504 155.944 78.1848 156.269 78.1848 156.609V162.17C78.1848 162.51 78.0504 162.836 77.8111 163.076C77.5718 163.316 77.2472 163.45 76.9088 163.45Z" fill="white"/>
<path d="M123.452 176.942C123.113 176.942 122.789 176.807 122.55 176.567C122.31 176.327 122.176 176.001 122.176 175.662V170.1C122.176 169.761 122.31 169.435 122.55 169.195C122.789 168.955 123.113 168.82 123.452 168.82C123.79 168.82 124.115 168.955 124.354 169.195C124.593 169.435 124.728 169.761 124.728 170.1V175.662C124.728 176.001 124.593 176.327 124.354 176.567C124.115 176.807 123.79 176.942 123.452 176.942Z" fill="white"/>
<path d="M105.307 168.852C104.969 168.852 104.644 168.717 104.405 168.477C104.166 168.237 104.031 167.912 104.031 167.572V155.227C104.031 154.887 104.166 154.561 104.405 154.321C104.644 154.081 104.969 153.947 105.307 153.947C105.646 153.947 105.97 154.081 106.21 154.321C106.449 154.561 106.583 154.887 106.583 155.227V167.572C106.583 167.912 106.449 168.237 106.21 168.477C105.97 168.717 105.646 168.852 105.307 168.852Z" fill="white"/>
<path d="M205.042 177.409C204.703 177.409 204.379 177.274 204.139 177.034C203.9 176.794 203.766 176.468 203.766 176.129V163.79C203.766 163.45 203.9 163.124 204.139 162.884C204.379 162.644 204.703 162.51 205.042 162.51C205.38 162.51 205.705 162.644 205.944 162.884C206.183 163.124 206.318 163.45 206.318 163.79V176.129C206.318 176.468 206.183 176.794 205.944 177.034C205.705 177.274 205.38 177.409 205.042 177.409Z" fill="white"/>
<path d="M138.096 155.969C137.758 155.969 137.433 155.834 137.194 155.594C136.955 155.354 136.82 155.028 136.82 154.689V152.014C136.82 151.674 136.955 151.349 137.194 151.109C137.433 150.868 137.758 150.734 138.096 150.734C138.435 150.734 138.759 150.868 138.999 151.109C139.238 151.349 139.372 151.674 139.372 152.014V154.689C139.372 155.028 139.238 155.354 138.999 155.594C138.759 155.834 138.435 155.969 138.096 155.969Z" fill="white"/>
<path d="M138.096 167.886C137.758 167.886 137.433 167.751 137.194 167.511C136.955 167.271 136.82 166.945 136.82 166.606V165.934C136.82 165.594 136.955 165.269 137.194 165.028C137.433 164.788 137.758 164.654 138.096 164.654C138.435 164.654 138.759 164.788 138.999 165.028C139.238 165.269 139.372 165.594 139.372 165.934V166.606C139.372 166.945 139.238 167.271 138.999 167.511C138.759 167.751 138.435 167.886 138.096 167.886Z" fill="white"/>
<path d="M262.977 214.273H56.5078V303.553H262.977V214.273Z" fill="#FFD780"/>
<path opacity="0.5" d="M262.977 214.273H56.5078V303.553H262.977V214.273Z" fill="black"/>
<path d="M262.977 243.789H56.5078V274.029H262.977V243.789Z" fill="#FFD780"/>
<path opacity="0.4" d="M262.977 243.789H56.5078V274.029H262.977V243.789Z" fill="black"/>
<g opacity="0.2">
<path d="M91.4086 287.296C93.9606 287.296 93.9606 283.316 91.4086 283.316C88.8566 283.316 88.8502 287.296 91.4086 287.296Z" fill="black"/>
<path d="M168.555 291.31C168.649 291.513 168.753 291.712 168.868 291.905C168.947 292.039 169.059 292.15 169.194 292.227C169.329 292.304 169.481 292.345 169.636 292.345C169.792 292.345 169.944 292.304 170.079 292.227C170.214 292.15 170.326 292.039 170.405 291.905C170.52 291.713 170.622 291.514 170.711 291.31C171.866 288.948 167.432 288.948 168.555 291.31Z" fill="black"/>
<path d="M80.3197 290.765C82.272 290.765 82.272 287.725 80.3197 287.725C78.3674 287.725 78.3674 290.765 80.3197 290.765Z" fill="black"/>
<path d="M227.07 283.911C229.022 283.911 229.022 280.871 227.07 280.871C225.117 280.871 225.117 283.911 227.07 283.911Z" fill="black"/>
<path d="M103.535 252.538C105.487 252.538 105.487 249.492 103.535 249.492C101.582 249.492 101.582 252.538 103.535 252.538Z" fill="black"/>
<path d="M152.533 236.039C154.485 236.039 154.492 232.999 152.533 232.999C150.574 232.999 150.581 236.039 152.533 236.039Z" fill="black"/>
<path d="M67.4564 260.161C69.4087 260.161 69.4087 257.121 67.4564 257.121C65.5041 257.121 65.5041 260.161 67.4564 260.161Z" fill="black"/>
<path d="M252.031 265.857C253.983 265.857 253.983 262.817 252.031 262.817C250.078 262.817 250.078 265.857 252.031 265.857Z" fill="black"/>
<path d="M209.507 241.313C211.421 241.313 211.459 238.273 209.507 238.273C207.554 238.273 207.535 241.313 209.507 241.313Z" fill="black"/>
<path d="M239.532 261.325C239.927 261.717 240.46 261.936 241.015 261.936C241.571 261.936 242.103 261.717 242.499 261.325C242.861 260.953 243.119 260.491 243.246 259.986C243.372 259.482 243.363 258.952 243.22 258.452C242.818 256.263 239.213 256.263 238.811 258.452C238.667 258.952 238.657 259.482 238.784 259.987C238.911 260.492 239.169 260.954 239.532 261.325Z" fill="black"/>
<path d="M134.41 231.073C134.805 231.462 135.336 231.68 135.89 231.68C136.443 231.68 136.975 231.462 137.37 231.073C137.734 230.701 137.992 230.239 138.119 229.734C138.246 229.229 138.236 228.699 138.091 228.199C137.689 226.01 134.084 226.01 133.682 228.199C133.541 228.7 133.533 229.229 133.661 229.734C133.789 230.238 134.047 230.7 134.41 231.073Z" fill="black"/>
</g>
<path opacity="0.1" d="M262.977 214.273C248.495 259.284 250.415 300.033 56.5078 300.033V303.565H262.977V214.273Z" fill="black"/>
<path d="M57.4973 191.892C56.282 191.887 55.0957 192.263 54.1039 192.968C53.1122 193.672 52.3647 194.67 51.9658 195.821C51.6913 196.603 51.5468 197.425 51.5383 198.253V254.746C51.5161 255.325 51.6104 255.901 51.8157 256.442C52.021 256.983 52.333 257.477 52.733 257.894C53.133 258.311 53.6128 258.643 54.1437 258.87C54.6746 259.096 55.2456 259.213 55.8225 259.213C56.3995 259.213 56.9705 259.096 57.5013 258.87C58.0322 258.643 58.512 258.311 58.912 257.894C59.3121 257.477 59.6241 256.983 59.8293 256.442C60.0346 255.901 60.1289 255.325 60.1067 254.746V238.106C60.105 237.672 60.1892 237.241 60.3546 236.84C60.5199 236.438 60.763 236.074 61.0698 235.767C61.3766 235.461 61.741 235.218 62.1418 235.054C62.5427 234.89 62.9721 234.807 63.4051 234.81C64.2721 234.81 65.1036 235.155 65.7172 235.77C66.3308 236.384 66.6764 237.217 66.6781 238.087V242.497C66.6781 243.637 67.1298 244.731 67.9338 245.538C68.7379 246.344 69.8284 246.797 70.9654 246.797C72.1025 246.797 73.193 246.344 73.9971 245.538C74.8011 244.731 75.2528 243.637 75.2528 242.497V227.213C75.2528 226.744 75.3451 226.279 75.5244 225.845C75.7037 225.412 75.9665 225.018 76.2978 224.686C76.629 224.354 77.0222 224.091 77.4549 223.912C77.8876 223.733 78.3512 223.641 78.8192 223.642H156.177C157.079 223.642 157.945 224.001 158.584 224.641C159.222 225.281 159.582 226.148 159.584 227.053V249.927C159.584 251.068 160.035 252.162 160.839 252.968C161.643 253.775 162.734 254.228 163.871 254.228C165.008 254.228 166.099 253.775 166.903 252.968C167.707 252.162 168.158 251.068 168.158 249.927V228.109C168.158 226.921 168.629 225.782 169.466 224.942C170.304 224.101 171.44 223.629 172.624 223.629H175.693C178.29 223.629 180.395 224.909 180.395 227.514V228.308C180.373 228.886 180.467 229.463 180.673 230.004C180.878 230.545 181.19 231.039 181.59 231.456C181.99 231.873 182.47 232.205 183.001 232.431C183.531 232.658 184.102 232.775 184.679 232.775C185.256 232.775 185.827 232.658 186.358 232.431C186.889 232.205 187.369 231.873 187.769 231.456C188.169 231.039 188.481 230.545 188.686 230.004C188.891 229.463 188.986 228.886 188.964 228.308V226.637C188.964 226.242 189.041 225.85 189.192 225.485C189.344 225.12 189.565 224.788 189.844 224.508C190.123 224.229 190.455 224.007 190.819 223.857C191.184 223.706 191.574 223.629 191.969 223.629H192.192C192.586 223.629 192.977 223.706 193.341 223.857C193.706 224.007 194.037 224.229 194.316 224.508C194.595 224.788 194.817 225.12 194.968 225.485C195.119 225.85 195.197 226.242 195.197 226.637V249.869C195.24 250.981 195.71 252.032 196.508 252.803C197.307 253.574 198.373 254.004 199.481 254.004C200.589 254.004 201.655 253.574 202.454 252.803C203.252 252.032 203.722 250.981 203.765 249.869V240.385C203.767 239.045 204.299 237.76 205.244 236.814C206.189 235.867 207.47 235.335 208.805 235.335H208.384C209.72 235.335 211.001 235.867 211.946 236.814C212.891 237.76 213.423 239.045 213.424 240.385V241.581C213.424 242.722 213.876 243.816 214.68 244.623C215.484 245.429 216.575 245.882 217.712 245.882C218.849 245.882 219.939 245.429 220.743 244.623C221.547 243.816 221.999 242.722 221.999 241.581V226.522C221.998 226.144 222.072 225.769 222.216 225.419C222.36 225.069 222.571 224.752 222.838 224.484C223.105 224.216 223.422 224.004 223.771 223.86C224.119 223.715 224.493 223.641 224.87 223.642H255.858C256.322 223.641 256.781 223.732 257.21 223.91C257.639 224.087 258.028 224.348 258.357 224.677C258.685 225.005 258.945 225.396 259.123 225.826C259.301 226.255 259.392 226.716 259.392 227.181V236.557C259.37 237.136 259.464 237.713 259.67 238.254C259.875 238.794 260.187 239.288 260.587 239.705C260.987 240.122 261.467 240.454 261.998 240.681C262.529 240.907 263.1 241.024 263.677 241.024C264.253 241.024 264.824 240.907 265.355 240.681C265.886 240.454 266.366 240.122 266.766 239.705C267.166 239.288 267.478 238.794 267.683 238.254C267.889 237.713 267.983 237.136 267.961 236.557V198.253C267.961 194.74 265.122 191.892 257.982 191.892H57.4973Z" fill="#FFD780"/>
<path d="M54.3971 212.045C54.0587 212.045 53.7341 211.91 53.4948 211.67C53.2555 211.43 53.1211 211.105 53.1211 210.765V198.33C53.1211 197.139 53.5906 195.996 54.4272 195.151C55.2638 194.306 56.3997 193.827 57.5871 193.818H128.297C128.635 193.818 128.96 193.953 129.199 194.193C129.438 194.433 129.573 194.759 129.573 195.098C129.573 195.438 129.438 195.763 129.199 196.003C128.96 196.243 128.635 196.378 128.297 196.378H57.6126C57.3586 196.378 57.107 196.429 56.8727 196.527C56.6384 196.626 56.426 196.77 56.2478 196.952C56.0697 197.133 55.9293 197.349 55.8351 197.586C55.7408 197.822 55.6944 198.075 55.6986 198.33V210.765C55.6986 210.936 55.6648 211.104 55.5991 211.261C55.5334 211.418 55.4371 211.56 55.3159 211.68C55.1947 211.799 55.051 211.893 54.8932 211.955C54.7355 212.018 54.5668 212.049 54.3971 212.045Z" fill="white"/>
<path d="M146.343 196.378H135.561C135.223 196.378 134.898 196.243 134.659 196.003C134.42 195.763 134.285 195.438 134.285 195.098C134.285 194.759 134.42 194.433 134.659 194.193C134.898 193.953 135.223 193.818 135.561 193.818H146.343C146.682 193.818 147.006 193.953 147.246 194.193C147.485 194.433 147.619 194.759 147.619 195.098C147.619 195.438 147.485 195.763 147.246 196.003C147.006 196.243 146.682 196.378 146.343 196.378Z" fill="white"/>
<path d="M161.964 251.085C161.625 251.085 161.301 250.95 161.061 250.71C160.822 250.47 160.688 250.145 160.688 249.805V244.237C160.688 243.898 160.822 243.572 161.061 243.332C161.301 243.092 161.625 242.957 161.964 242.957C162.302 242.957 162.626 243.092 162.866 243.332C163.105 243.572 163.24 243.898 163.24 244.237V249.805C163.24 250.145 163.105 250.47 162.866 250.71C162.626 250.95 162.302 251.085 161.964 251.085Z" fill="white"/>
<path d="M198.131 250.772C197.793 250.772 197.468 250.637 197.229 250.397C196.99 250.157 196.855 249.831 196.855 249.492V237.153C196.855 236.813 196.99 236.488 197.229 236.248C197.468 236.008 197.793 235.873 198.131 235.873C198.47 235.873 198.794 236.008 199.034 236.248C199.273 236.488 199.407 236.813 199.407 237.153V249.492C199.407 249.831 199.273 250.157 199.034 250.397C198.794 250.637 198.47 250.772 198.131 250.772Z" fill="white"/>
<path d="M54.3971 255.405C54.0587 255.405 53.7341 255.27 53.4948 255.03C53.2555 254.79 53.1211 254.465 53.1211 254.125V241.786C53.1211 241.447 53.2555 241.121 53.4948 240.881C53.7341 240.641 54.0587 240.506 54.3971 240.506C54.7355 240.506 55.0601 240.641 55.2994 240.881C55.5387 241.121 55.6731 241.447 55.6731 241.786V254.125C55.6731 254.465 55.5387 254.79 55.2994 255.03C55.0601 255.27 54.7355 255.405 54.3971 255.405Z" fill="white"/>
<path d="M182.858 230.164C182.52 230.164 182.195 230.029 181.956 229.789C181.716 229.549 181.582 229.223 181.582 228.884V226.208C181.582 225.869 181.716 225.543 181.956 225.303C182.195 225.063 182.52 224.928 182.858 224.928C183.196 224.928 183.521 225.063 183.76 225.303C184 225.543 184.134 225.869 184.134 226.208V228.884C184.134 229.223 184 229.549 183.76 229.789C183.521 230.029 183.196 230.164 182.858 230.164Z" fill="white"/>
<path d="M161.964 263.994C161.625 263.994 161.301 263.859 161.061 263.619C160.822 263.379 160.688 263.054 160.688 262.714V262.247C160.688 261.908 160.822 261.582 161.061 261.342C161.301 261.102 161.625 260.967 161.964 260.967C162.302 260.967 162.626 261.102 162.866 261.342C163.105 261.582 163.24 261.908 163.24 262.247V262.714C163.24 263.054 163.105 263.379 162.866 263.619C162.626 263.859 162.302 263.994 161.964 263.994Z" fill="white"/>
<path d="M69.0299 243.751C68.6915 243.751 68.3669 243.616 68.1276 243.376C67.8883 243.136 67.7539 242.811 67.7539 242.471V239.79C67.7539 239.45 67.8883 239.124 68.1276 238.884C68.3669 238.644 68.6915 238.51 69.0299 238.51C69.3683 238.51 69.6929 238.644 69.9322 238.884C70.1715 239.124 70.3059 239.45 70.3059 239.79V242.471C70.3059 242.811 70.1715 243.136 69.9322 243.376C69.6929 243.616 69.3683 243.751 69.0299 243.751Z" fill="white"/>
<path d="M168.095 262.08C168.096 262.922 167.848 263.746 167.383 264.447C166.917 265.147 166.255 265.694 165.48 266.017C164.705 266.34 163.852 266.425 163.028 266.262C162.205 266.098 161.448 265.693 160.854 265.099C160.26 264.504 159.856 263.745 159.691 262.919C159.527 262.094 159.611 261.238 159.932 260.46C160.253 259.682 160.796 259.016 161.494 258.549C162.192 258.081 163.013 257.831 163.852 257.831C164.976 257.831 166.054 258.278 166.85 259.075C167.645 259.872 168.093 260.953 168.095 262.08Z" fill="#FFD780"/>
<path d="M49.0569 261.003L47.3516 261.874L66.4074 299.391L68.1128 298.519L49.0569 261.003Z" fill="#263238"/>
<path d="M44.1555 253.844L49.9294 257.364L56.5008 255.77L54.9441 262.369L58.4914 268.135L51.7541 268.692L47.3774 273.857L44.768 267.604L38.5156 265.025L43.6451 260.602L44.1555 253.844Z" fill="#FFD780"/>
<path d="M45.1142 255.79C45.209 257.607 45.1791 259.429 45.0249 261.242C43.6609 262.436 42.2155 263.533 40.6992 264.526C41.8902 263.205 43.1692 261.967 44.5272 260.82L44.4188 261.038C44.5364 259.265 44.7751 257.503 45.1333 255.764L45.1142 255.79Z" fill="white"/>
<path d="M42.7408 265.652C43.8267 265.86 44.8937 266.157 45.9308 266.541C46.2689 267.328 46.5688 268.116 46.8686 268.928C48.5274 273.837 46.0584 268.685 45.4204 266.906L45.5926 267.079C44.605 266.677 43.6495 266.2 42.7344 265.652H42.7408Z" fill="white"/>
<path opacity="0.1" d="M47.3789 273.857L50.4222 266.849L54.8818 265.953L52.4382 262.509L53.7015 257.735L49.9309 257.364L56.5023 255.77L54.9456 262.369L58.4929 268.135L51.7556 268.692L47.3789 273.857Z" fill="black"/>
<path d="M271.104 264.785L249.516 298.454L251.125 299.493L272.714 265.824L271.104 264.785Z" fill="#263238"/>
<path d="M276.795 258.477L276.444 265.249L280.967 270.285L274.434 272.045L271.053 277.914L267.371 272.231L260.762 270.816L265.011 265.549L264.309 258.804L270.619 261.229L276.795 258.477Z" fill="#FFD780"/>
<path d="M275.545 260.25C273.994 261.194 272.38 262.03 270.715 262.753C269.013 262.118 267.357 261.368 265.758 260.506C267.479 260.921 269.17 261.456 270.817 262.106H270.575C272.187 261.372 273.848 260.75 275.545 260.244V260.25Z" fill="white"/>
<path d="M265.766 262.829C266.098 263.889 266.343 264.974 266.499 266.074C265.97 266.746 265.434 267.405 264.853 268.033C262.882 270.138 262.735 270.036 264.426 267.681C264.904 267.041 265.415 266.401 265.938 265.793L265.874 266.029C265.752 264.967 265.715 263.897 265.766 262.829Z" fill="white"/>
<path opacity="0.1" d="M260.762 270.817L268.36 270.177L271.257 273.69L273.12 269.902L277.911 268.75L276.444 265.249L280.967 270.286L274.434 272.046L271.053 277.914L267.371 272.231L260.762 270.817Z" fill="black"/>
<path d="M70.6266 265.411L68.7539 298.907L70.6649 299.015L72.5376 265.519L70.6266 265.411Z" fill="#263238"/>
<path d="M72.4908 257.12L75.5085 263.188L81.9141 265.344L77.0972 270.093L77.0334 276.877L71.0425 273.748L64.5924 275.783L65.7089 269.095L61.7852 263.572L68.465 262.567L72.4908 257.12Z" fill="#FFD780"/>
<path d="M72.2647 259.284C71.38 260.872 70.3866 262.397 69.2916 263.847C67.4996 264.137 65.6897 264.301 63.875 264.34C65.5793 263.854 67.3144 263.484 69.0683 263.233L68.8578 263.361C69.9014 261.927 71.0396 260.565 72.2647 259.284Z" fill="white"/>
<path d="M65.0234 266.356C65.8305 267.118 66.5771 267.941 67.2564 268.82C67.1225 269.665 66.9757 270.509 66.7843 271.341C66.6052 272.135 66.3729 272.915 66.0889 273.677C66.1061 272.057 66.2878 270.442 66.6312 268.858L66.6886 269.095C66.0608 268.228 65.5039 267.312 65.0234 266.356Z" fill="white"/>
<path opacity="0.1" d="M64.5898 275.783L70.8869 271.476L75.136 273.095L74.8935 268.877L78.4982 265.511L75.506 263.188L81.9115 265.345L77.0946 270.093L77.0308 276.877L71.04 273.748L64.5898 275.783Z" fill="black"/>
<path d="M253.653 243.596L248.754 298.879L250.66 299.049L255.559 243.766L253.653 243.596Z" fill="#263238"/>
<path d="M256.041 236.032L258.765 242.234L265.062 244.698L260.015 249.21L259.626 255.981L253.789 252.564L247.255 254.285L248.685 247.661L245.035 241.952L251.76 241.274L256.041 236.032Z" fill="#FFD780"/>
<path d="M255.716 238.177C254.756 239.721 253.69 241.197 252.526 242.593C250.721 242.794 248.905 242.871 247.09 242.823C248.814 242.416 250.564 242.132 252.328 241.972L252.117 242.087C253.225 240.702 254.428 239.395 255.716 238.177Z" fill="white"/>
<path d="M248.137 244.89C248.91 245.685 249.618 246.542 250.255 247.45C250.083 248.289 249.891 249.121 249.655 249.94C248.213 254.919 249.132 249.3 249.623 247.45L249.668 247.693C249.083 246.798 248.571 245.856 248.137 244.877V244.89Z" fill="white"/>
<path opacity="0.1" d="M247.258 254.285L253.759 250.285L257.919 252.116L257.881 247.892L261.645 244.698L258.767 242.234L265.064 244.698L260.018 249.21L259.629 255.981L253.791 252.564L247.258 254.285Z" fill="black"/>
<path d="M231.159 261.001L229.453 261.873L248.509 299.389L250.214 298.518L231.159 261.001Z" fill="#263238"/>
<path d="M226.265 253.844L232.039 257.364L238.604 255.77L237.047 262.369L240.594 268.135L233.857 268.692L229.48 273.857L226.877 267.604L220.625 265.025L225.748 260.602L226.265 253.844Z" fill="#FFD780"/>
<path d="M227.224 255.789C227.319 257.607 227.287 259.429 227.128 261.242C225.767 262.445 224.324 263.551 222.809 264.551C223.999 263.23 225.278 261.992 226.637 260.845L226.528 261.063C226.651 259.291 226.892 257.529 227.249 255.789H227.224Z" fill="white"/>
<path d="M224.817 265.652C225.903 265.859 226.97 266.157 228.007 266.541C228.346 267.328 228.645 268.116 228.945 268.928C230.598 273.837 228.129 268.685 227.497 266.906L227.669 267.079C226.68 266.677 225.722 266.2 224.805 265.652H224.817Z" fill="white"/>
<path opacity="0.1" d="M229.48 273.857L232.53 266.849L236.983 265.953L234.54 262.509L235.809 257.735L232.039 257.364L238.604 255.77L237.047 262.369L240.594 268.135L233.857 268.692L229.48 273.857Z" fill="black"/>
<path d="M62.2571 303.565H40.4375C40.4375 300.666 41.5856 297.886 43.6292 295.836C45.6728 293.786 48.4445 292.634 51.3345 292.634C54.2246 292.634 56.9963 293.786 59.0399 295.836C61.0835 297.886 62.2316 300.666 62.2316 303.565H62.2571Z" fill="#FFD780"/>
<path d="M107.988 303.565H90.4492C90.5109 301.273 91.4618 299.096 93.0996 297.497C94.7375 295.898 96.9329 295.003 99.2185 295.003C101.504 295.003 103.7 295.898 105.337 297.497C106.975 299.096 107.926 301.273 107.988 303.565Z" fill="#FFD780"/>
<path d="M93.8823 303.566H57.4844C57.5736 298.783 59.5303 294.226 62.9335 290.876C66.3368 287.525 70.9148 285.648 75.6833 285.648C80.4518 285.648 85.0299 287.525 88.4331 290.876C91.8364 294.226 93.793 298.783 93.8823 303.566Z" fill="#FFD780"/>
<path d="M71.06 290.573C71.06 291.097 70.9051 291.61 70.6148 292.045C70.3246 292.481 69.9121 292.821 69.4295 293.021C68.9468 293.222 68.4157 293.274 67.9034 293.172C67.391 293.07 66.9204 292.818 66.551 292.447C66.1816 292.076 65.93 291.604 65.8281 291.09C65.7262 290.576 65.7785 290.044 65.9784 289.559C66.1783 289.075 66.5169 288.662 66.9512 288.37C67.3856 288.079 67.8963 287.924 68.4187 287.924C68.7655 287.924 69.109 287.992 69.4295 288.126C69.7499 288.259 70.0411 288.454 70.2864 288.7C70.5316 288.946 70.7262 289.238 70.8589 289.559C70.9917 289.881 71.06 290.225 71.06 290.573Z" fill="white"/>
<path d="M48.2011 297.005C49.0996 297.005 49.828 296.275 49.828 295.373C49.828 294.472 49.0996 293.741 48.2011 293.741C47.3026 293.741 46.5742 294.472 46.5742 295.373C46.5742 296.275 47.3026 297.005 48.2011 297.005Z" fill="white"/>
<path d="M96.0175 299.956C96.916 299.956 97.6444 299.225 97.6444 298.324C97.6444 297.422 96.916 296.692 96.0175 296.692C95.119 296.692 94.3906 297.422 94.3906 298.324C94.3906 299.225 95.119 299.956 96.0175 299.956Z" fill="white"/>
<path d="M73.708 287.821C73.708 288.05 73.6403 288.274 73.5134 288.465C73.3865 288.655 73.2061 288.804 72.9951 288.891C72.7841 288.979 72.5519 289.002 72.3279 288.957C72.1039 288.913 71.8982 288.802 71.7367 288.64C71.5752 288.478 71.4652 288.272 71.4206 288.047C71.3761 287.823 71.3989 287.59 71.4863 287.378C71.5737 287.166 71.7218 286.985 71.9117 286.858C72.1016 286.731 72.3248 286.663 72.5532 286.663C72.8595 286.663 73.1532 286.785 73.3698 287.002C73.5863 287.219 73.708 287.514 73.708 287.821Z" fill="white"/>
<path d="M100.474 296.57C100.474 296.799 100.406 297.023 100.279 297.214C100.152 297.404 99.9718 297.553 99.7608 297.64C99.5497 297.728 99.3176 297.751 99.0936 297.706C98.8695 297.662 98.6638 297.551 98.5023 297.389C98.3408 297.227 98.2308 297.021 98.1863 296.796C98.1417 296.572 98.1646 296.339 98.252 296.127C98.3394 295.915 98.4874 295.734 98.6773 295.607C98.8672 295.48 99.0904 295.412 99.3188 295.412C99.6251 295.412 99.9188 295.534 100.135 295.751C100.352 295.968 100.474 296.263 100.474 296.57Z" fill="white"/>
<path d="M247.396 303.565H225.602C225.602 300.666 226.75 297.886 228.793 295.836C230.837 293.786 233.609 292.634 236.499 292.634C239.389 292.634 242.16 293.786 244.204 295.836C246.248 297.886 247.396 300.666 247.396 303.565Z" fill="#FFD780"/>
<path d="M279.05 303.565H242.684C242.86 298.846 244.853 294.379 248.243 291.103C251.634 287.826 256.159 285.996 260.867 285.996C265.574 285.996 270.099 287.826 273.49 291.103C276.88 294.379 278.873 298.846 279.05 303.565Z" fill="#FFD780"/>
<path d="M256.177 290.573C256.177 291.098 256.022 291.61 255.732 292.046C255.441 292.482 255.028 292.821 254.545 293.022C254.062 293.222 253.531 293.274 253.018 293.171C252.506 293.069 252.035 292.816 251.666 292.444C251.297 292.073 251.046 291.601 250.945 291.086C250.843 290.572 250.897 290.039 251.097 289.555C251.298 289.071 251.638 288.657 252.073 288.367C252.508 288.077 253.02 287.922 253.542 287.924C253.889 287.924 254.232 287.992 254.552 288.125C254.872 288.259 255.163 288.454 255.408 288.7C255.652 288.946 255.846 289.238 255.978 289.56C256.11 289.881 256.178 290.226 256.177 290.573Z" fill="white"/>
<path d="M233.35 297.005C234.248 297.005 234.976 296.275 234.976 295.373C234.976 294.472 234.248 293.741 233.35 293.741C232.451 293.741 231.723 294.472 231.723 295.373C231.723 296.275 232.451 297.005 233.35 297.005Z" fill="white"/>
<path d="M258.849 287.821C258.849 288.05 258.781 288.274 258.654 288.465C258.527 288.655 258.347 288.804 258.136 288.891C257.925 288.979 257.693 289.002 257.469 288.957C257.245 288.913 257.039 288.802 256.877 288.64C256.716 288.478 256.606 288.272 256.561 288.047C256.517 287.823 256.54 287.59 256.627 287.378C256.714 287.166 256.862 286.985 257.052 286.858C257.242 286.731 257.465 286.663 257.694 286.663C258 286.663 258.294 286.785 258.51 287.002C258.727 287.219 258.849 287.514 258.849 287.821Z" fill="white"/>
<path d="M100.952 118.138L99.8672 74.4197H108.295L107.019 118.138H100.952Z" fill="#37474F"/>
<path d="M108.295 74.4197L108.148 79.3605L100.115 84.4613L99.9688 78.6309L106.598 74.4197H108.295Z" fill="#455A64"/>
<path d="M107.989 84.9797L107.81 91.0149L100.397 95.7317L100.25 89.8949L107.989 84.9797Z" fill="#455A64"/>
<path d="M107.641 96.6409L107.469 102.676L100.674 106.996L100.527 101.159L107.641 96.6409Z" fill="#455A64"/>
<path d="M107.303 108.295L107.125 114.337L101.147 118.138H100.949L100.809 112.423L107.303 108.295Z" fill="#455A64"/>
<path d="M104.083 71.9685C92.4525 64.6341 104.083 50.7205 104.083 50.7205C104.083 50.7205 115.72 64.6341 104.083 71.9685Z" fill="#FFD780"/>
<path opacity="0.1" d="M104.083 71.9688C96.5484 67.2136 104.083 58.2024 104.083 58.2024C104.083 58.2024 111.612 67.2136 104.083 71.9688Z" fill="black"/>
<path d="M125.589 118.138L124.504 74.4197H132.932L131.656 118.138H125.589Z" fill="#37474F"/>
<path d="M132.931 74.4197L132.785 79.3605L124.752 84.4613L124.605 78.6309L131.234 74.4197H132.931Z" fill="#455A64"/>
<path d="M132.626 84.9797L132.447 91.0149L125.033 95.7317L124.887 89.8949L132.626 84.9797Z" fill="#455A64"/>
<path d="M132.282 96.6409L132.109 102.676L125.315 106.996L125.168 101.159L132.282 96.6409Z" fill="#455A64"/>
<path d="M131.944 108.295L131.765 114.337L125.787 118.138H125.59L125.449 112.423L131.944 108.295Z" fill="#455A64"/>
<path d="M128.724 71.9685C117.093 64.6341 128.724 50.7205 128.724 50.7205C128.724 50.7205 140.348 64.6341 128.724 71.9685Z" fill="#FFD780"/>
<path opacity="0.1" d="M128.724 71.9688C121.189 67.2136 128.724 58.2024 128.724 58.2024C128.724 58.2024 136.252 67.2136 128.724 71.9688Z" fill="black"/>
<path d="M187.608 118.138L186.523 74.4197H194.951L193.675 118.138H187.608Z" fill="#37474F"/>
<path d="M194.955 74.4197L194.808 79.3605L186.776 84.4613L186.629 78.6309L193.258 74.4197H194.955Z" fill="#455A64"/>
<path d="M194.645 84.9797L194.467 91.0149L187.053 95.7317L186.906 89.8949L194.645 84.9797Z" fill="#455A64"/>
<path d="M194.301 96.6409L194.129 102.676L187.334 106.996L187.188 101.159L194.301 96.6409Z" fill="#455A64"/>
<path d="M193.964 108.295L193.785 114.337L187.807 118.138H187.609L187.469 112.423L193.964 108.295Z" fill="#455A64"/>
<path d="M190.743 71.9685C179.113 64.6341 190.743 50.7205 190.743 50.7205C190.743 50.7205 202.368 64.6341 190.743 71.9685Z" fill="#FFD780"/>
<path opacity="0.1" d="M190.743 71.9688C183.209 67.2136 190.743 58.2024 190.743 58.2024C190.743 58.2024 198.272 67.2136 190.743 71.9688Z" fill="black"/>
<path d="M212.249 118.138L211.164 74.4197H219.592L218.316 118.138H212.249Z" fill="#37474F"/>
<path d="M219.592 74.4197L219.445 79.3605L211.412 84.4613L211.266 78.6309L217.894 74.4197H219.592Z" fill="#455A64"/>
<path d="M219.286 84.9797L219.107 91.0149L211.694 95.7317L211.547 89.8949L219.286 84.9797Z" fill="#455A64"/>
<path d="M218.942 96.6406L218.77 102.676L211.975 106.996L211.828 101.159L218.942 96.6406Z" fill="#455A64"/>
<path d="M218.604 108.295L218.426 114.337L212.448 118.138H212.25L212.109 112.423L218.604 108.295Z" fill="#455A64"/>
<path d="M215.38 71.9685C203.749 64.6341 215.38 50.7205 215.38 50.7205C215.38 50.7205 227.005 64.6341 215.38 71.9685Z" fill="#FFD780"/>
<path opacity="0.1" d="M215.38 71.9688C207.845 67.2136 215.38 58.2024 215.38 58.2024C215.38 58.2024 222.902 67.2136 215.38 71.9688Z" fill="black"/>
<path d="M231.967 176.692C242.217 168.8 244.148 154.067 236.28 143.786C228.413 133.504 213.726 131.567 203.476 139.459C193.227 147.352 191.296 162.084 199.163 172.366C207.031 182.648 221.718 184.585 231.967 176.692Z" fill="#FFD780"/>
<path opacity="0.7" d="M231.967 176.692C242.217 168.8 244.148 154.067 236.28 143.786C228.413 133.504 213.726 131.567 203.476 139.459C193.227 147.352 191.296 162.084 199.163 172.366C207.031 182.648 221.718 184.585 231.967 176.692Z" fill="white"/>
<path opacity="0.2" d="M216.38 153.854C221.217 148.884 222.288 142.065 218.773 138.623C215.259 135.181 208.488 136.42 203.652 141.39C198.815 146.36 197.744 153.179 201.259 156.621C204.773 160.063 211.544 158.824 216.38 153.854Z" fill="white"/>
<g opacity="0.3">
<path d="M209.916 148.768C214.184 148.423 218.593 140.519 215.524 138.176C213.01 136.256 209.291 137.626 207.466 139.13C205.641 140.634 204.117 143.54 205.169 145.792C206.063 147.693 208.353 148.896 209.916 148.768Z" fill="white"/>
<path d="M203.593 150.989C204.99 150.765 205.507 148.096 204.505 147.015C203.503 145.933 201.436 146.733 201.136 147.815C200.837 148.896 202.336 151.188 203.593 150.989Z" fill="white"/>
</g>
<path d="M218.574 180.417C218.768 184.377 217.956 188.321 216.213 191.879H216.175V196.046C216.186 196.809 215.924 197.551 215.437 198.138C214.951 198.725 214.271 199.118 213.521 199.246C213.075 199.315 212.619 199.287 212.185 199.162C211.751 199.038 211.349 198.821 211.006 198.526C210.663 198.231 210.389 197.865 210.201 197.454C210.012 197.042 209.915 196.595 209.916 196.142V194.791C209.916 194.017 209.61 193.275 209.064 192.728C208.518 192.18 207.778 191.873 207.007 191.873H202.668C201.897 191.873 201.157 192.18 200.611 192.728C200.066 193.275 199.759 194.017 199.759 194.791V197.966C199.771 198.726 199.512 199.466 199.029 200.052C198.546 200.639 197.871 201.033 197.124 201.166C196.676 201.237 196.219 201.21 195.782 201.087C195.346 200.964 194.942 200.747 194.597 200.452C194.252 200.157 193.974 199.791 193.784 199.378C193.594 198.966 193.495 198.516 193.494 198.062V196.11C193.495 195.697 193.414 195.288 193.257 194.906C193.1 194.525 192.869 194.178 192.578 193.886C192.287 193.594 191.942 193.362 191.561 193.205C191.181 193.047 190.773 192.966 190.361 192.967C189.531 192.967 188.734 193.298 188.146 193.888C187.559 194.477 187.229 195.276 187.229 196.11V209.716C187.242 210.472 186.987 211.208 186.511 211.794C186.034 212.38 185.366 212.777 184.626 212.916C184.176 212.992 183.716 212.969 183.276 212.849C182.836 212.729 182.428 212.513 182.079 212.219C181.731 211.924 181.45 211.556 181.258 211.142C181.065 210.727 180.965 210.276 180.964 209.819V194.798C180.964 194.024 180.657 193.281 180.111 192.734C179.566 192.187 178.826 191.879 178.054 191.879H174.188C172.658 188.749 171.841 185.316 171.799 181.83C171.756 178.344 172.488 174.892 173.941 171.726C175.394 168.559 177.533 165.756 180.2 163.522C182.868 161.287 185.999 159.677 189.364 158.808C192.73 157.939 196.247 157.832 199.658 158.497C203.07 159.161 206.291 160.58 209.089 162.649C211.886 164.718 214.188 167.386 215.829 170.46C217.469 173.533 218.407 176.935 218.574 180.417Z" fill="#FFD780"/>
<path d="M218.083 184.084H172.319C170.24 184.084 168.555 185.774 168.555 187.86V188.129C168.555 190.214 170.24 191.905 172.319 191.905H218.083C220.162 191.905 221.847 190.214 221.847 188.129V187.86C221.847 185.774 220.162 184.084 218.083 184.084Z" fill="#FFD780"/>
<g opacity="0.3">
<path d="M218.574 180.417C218.768 184.377 217.956 188.321 216.213 191.879H216.175V196.046C216.186 196.809 215.924 197.551 215.437 198.138C214.951 198.725 214.271 199.118 213.521 199.246C213.075 199.315 212.619 199.287 212.185 199.162C211.751 199.038 211.349 198.821 211.006 198.526C210.663 198.231 210.389 197.865 210.201 197.454C210.012 197.042 209.915 196.595 209.916 196.142V194.791C209.916 194.017 209.61 193.275 209.064 192.728C208.518 192.18 207.778 191.873 207.007 191.873H202.668C201.897 191.873 201.157 192.18 200.611 192.728C200.066 193.275 199.759 194.017 199.759 194.791V197.966C199.771 198.726 199.512 199.466 199.029 200.052C198.546 200.639 197.871 201.033 197.124 201.166C196.676 201.237 196.219 201.21 195.782 201.087C195.346 200.964 194.942 200.747 194.597 200.452C194.252 200.157 193.974 199.791 193.784 199.378C193.594 198.966 193.495 198.516 193.494 198.062V196.11C193.495 195.697 193.414 195.288 193.257 194.906C193.1 194.525 192.869 194.178 192.578 193.886C192.287 193.594 191.942 193.362 191.561 193.205C191.181 193.047 190.773 192.966 190.361 192.967C189.531 192.967 188.734 193.298 188.146 193.888C187.559 194.477 187.229 195.276 187.229 196.11V209.716C187.242 210.472 186.987 211.208 186.511 211.794C186.034 212.38 185.366 212.777 184.626 212.916C184.176 212.992 183.716 212.969 183.276 212.849C182.836 212.729 182.428 212.513 182.079 212.219C181.731 211.924 181.45 211.556 181.258 211.142C181.065 210.727 180.965 210.276 180.964 209.819V194.798C180.964 194.024 180.657 193.281 180.111 192.734C179.566 192.187 178.826 191.879 178.054 191.879H174.188C172.658 188.749 171.841 185.316 171.799 181.83C171.756 178.344 172.488 174.892 173.941 171.726C175.394 168.559 177.533 165.756 180.2 163.522C182.868 161.287 185.999 159.677 189.364 158.808C192.73 157.939 196.247 157.832 199.658 158.497C203.07 159.161 206.291 160.58 209.089 162.649C211.886 164.718 214.188 167.386 215.829 170.46C217.469 173.533 218.407 176.935 218.574 180.417Z" fill="white"/>
<path d="M218.083 184.084H172.319C170.24 184.084 168.555 185.775 168.555 187.86V188.129C168.555 190.214 170.24 191.905 172.319 191.905H218.083C220.162 191.905 221.847 190.214 221.847 188.129V187.86C221.847 185.775 220.162 184.084 218.083 184.084Z" fill="white"/>
</g>
<path opacity="0.2" d="M194.099 176.677C198.935 171.707 200.007 164.888 196.492 161.446C192.977 158.004 186.207 159.243 181.371 164.213C176.534 169.183 175.463 176.002 178.977 179.444C182.492 182.886 189.262 181.647 194.099 176.677Z" fill="white"/>
<g opacity="0.3">
<path d="M187.627 171.604C191.895 171.252 196.304 163.348 193.235 161.006C190.721 159.086 187.002 160.455 185.177 161.959C183.352 163.463 181.828 166.369 182.88 168.622C183.327 169.504 184.005 170.248 184.841 170.773C185.677 171.299 186.64 171.586 187.627 171.604Z" fill="white"/>
<path d="M181.308 173.818C182.705 173.594 183.222 170.926 182.22 169.844C181.218 168.762 179.151 169.562 178.851 170.644C178.551 171.726 180.051 174.023 181.308 173.818Z" fill="white"/>
<path d="M173.707 186.196C173.293 184.846 170.587 184.705 169.662 185.857C168.737 187.009 169.815 188.942 170.938 189.057C172.061 189.172 174.09 187.418 173.707 186.196Z" fill="white"/>
<path d="M194.647 196.807C193.594 197.447 194.009 199.764 195.189 200.314C196.369 200.865 197.741 199.546 197.652 198.58C197.562 197.614 195.597 196.238 194.647 196.807Z" fill="white"/>
<path d="M182.417 207.566C181.211 208.289 181.715 210.932 183.055 211.559C184.395 212.187 185.983 210.689 185.862 209.588C185.741 208.487 183.501 206.926 182.417 207.566Z" fill="white"/>
</g>
<path d="M213.831 181.556C213.827 185.135 214.644 188.667 216.217 191.879H221.959C222.177 191.878 222.393 191.921 222.595 192.004C222.796 192.087 222.979 192.21 223.134 192.365C223.288 192.519 223.41 192.703 223.493 192.905C223.576 193.108 223.618 193.324 223.618 193.543V204.148C223.618 204.561 223.699 204.969 223.856 205.351C224.013 205.732 224.244 206.078 224.535 206.37C224.826 206.662 225.171 206.893 225.551 207.051C225.931 207.209 226.339 207.29 226.75 207.29C227.161 207.29 227.569 207.209 227.949 207.051C228.329 206.893 228.674 206.662 228.965 206.37C229.256 206.078 229.487 205.732 229.644 205.351C229.802 204.969 229.883 204.561 229.883 204.148V193.543C229.882 193.325 229.924 193.109 230.007 192.907C230.089 192.705 230.211 192.522 230.364 192.367C230.518 192.212 230.7 192.09 230.901 192.006C231.102 191.922 231.318 191.879 231.535 191.879C231.753 191.879 231.968 191.922 232.169 192.006C232.37 192.09 232.552 192.212 232.706 192.367C232.859 192.522 232.981 192.705 233.064 192.907C233.146 193.109 233.188 193.325 233.188 193.543V194.465C233.188 194.877 233.269 195.286 233.426 195.666C233.584 196.047 233.814 196.393 234.105 196.685C234.396 196.976 234.742 197.207 235.122 197.364C235.502 197.521 235.909 197.602 236.32 197.601C236.731 197.602 237.138 197.521 237.518 197.364C237.898 197.207 238.244 196.976 238.535 196.685C238.826 196.393 239.057 196.047 239.214 195.666C239.372 195.286 239.453 194.877 239.453 194.465V193.543C239.452 193.324 239.494 193.108 239.577 192.905C239.66 192.703 239.782 192.519 239.937 192.365C240.091 192.21 240.274 192.087 240.476 192.004C240.677 191.921 240.893 191.878 241.111 191.879H244.908C245.125 191.879 245.341 191.922 245.541 192.006C245.742 192.09 245.925 192.212 246.078 192.367C246.232 192.522 246.353 192.705 246.436 192.907C246.519 193.109 246.561 193.325 246.56 193.543V199.246C246.56 199.658 246.641 200.067 246.798 200.448C246.956 200.829 247.187 201.176 247.478 201.468C247.768 201.759 248.114 201.991 248.494 202.149C248.874 202.307 249.281 202.388 249.693 202.388C250.104 202.388 250.511 202.307 250.891 202.149C251.271 201.991 251.617 201.759 251.908 201.468C252.199 201.176 252.429 200.829 252.587 200.448C252.744 200.067 252.825 199.658 252.825 199.246V193.537C252.824 193.319 252.866 193.102 252.949 192.901C253.032 192.699 253.153 192.515 253.307 192.361C253.46 192.206 253.643 192.083 253.844 192C254.045 191.916 254.26 191.873 254.478 191.873H258.235C259.787 188.7 260.605 185.216 260.627 181.681C260.65 178.146 259.876 174.652 258.364 171.46C256.852 168.267 254.641 165.458 251.896 163.242C249.15 161.026 245.941 159.461 242.509 158.663C239.076 157.865 235.508 157.855 232.071 158.634C228.634 159.413 225.417 160.96 222.659 163.16C219.901 165.36 217.674 168.157 216.145 171.341C214.615 174.525 213.822 178.015 213.824 181.55L213.831 181.556Z" fill="#FFD780"/>
<path d="M260.114 184.084H214.35C212.271 184.084 210.586 185.774 210.586 187.86V188.129C210.586 190.214 212.271 191.905 214.35 191.905H260.114C262.193 191.905 263.878 190.214 263.878 188.129V187.86C263.878 185.774 262.193 184.084 260.114 184.084Z" fill="#FFD780"/>
<g opacity="0.5">
<path d="M213.835 181.556C213.831 185.135 214.647 188.667 216.221 191.879H221.963C222.181 191.878 222.397 191.921 222.598 192.004C222.8 192.087 222.983 192.21 223.137 192.365C223.292 192.519 223.414 192.703 223.497 192.905C223.58 193.108 223.622 193.324 223.621 193.543V204.148C223.621 204.561 223.702 204.969 223.86 205.351C224.017 205.732 224.248 206.078 224.539 206.37C224.83 206.662 225.175 206.893 225.555 207.051C225.935 207.209 226.343 207.29 226.754 207.29C227.165 207.29 227.573 207.209 227.953 207.051C228.333 206.893 228.678 206.662 228.969 206.37C229.26 206.078 229.491 205.732 229.648 205.351C229.806 204.969 229.887 204.561 229.887 204.148V193.543C229.886 193.325 229.928 193.109 230.011 192.907C230.093 192.705 230.215 192.522 230.368 192.367C230.522 192.212 230.704 192.09 230.905 192.006C231.106 191.922 231.321 191.879 231.539 191.879C231.757 191.879 231.972 191.922 232.173 192.006C232.374 192.09 232.556 192.212 232.71 192.367C232.863 192.522 232.985 192.705 233.067 192.907C233.15 193.109 233.192 193.325 233.191 193.543V194.465C233.191 194.877 233.273 195.286 233.43 195.666C233.588 196.047 233.818 196.393 234.109 196.685C234.4 196.976 234.746 197.207 235.126 197.364C235.506 197.521 235.913 197.602 236.324 197.601C236.735 197.602 237.142 197.521 237.522 197.364C237.902 197.207 238.248 196.976 238.539 196.685C238.83 196.393 239.061 196.047 239.218 195.666C239.376 195.286 239.457 194.877 239.457 194.465V193.543C239.456 193.324 239.498 193.108 239.581 192.905C239.664 192.703 239.786 192.519 239.941 192.365C240.095 192.21 240.278 192.087 240.48 192.004C240.681 191.921 240.897 191.878 241.115 191.879H244.911C245.129 191.879 245.344 191.922 245.545 192.006C245.746 192.09 245.929 192.212 246.082 192.367C246.236 192.522 246.357 192.705 246.44 192.907C246.523 193.109 246.565 193.325 246.564 193.543V199.246C246.564 199.658 246.645 200.067 246.802 200.448C246.96 200.829 247.191 201.176 247.481 201.468C247.772 201.759 248.118 201.991 248.498 202.149C248.878 202.307 249.285 202.388 249.696 202.388C250.108 202.388 250.515 202.307 250.895 202.149C251.275 201.991 251.621 201.759 251.912 201.468C252.202 201.176 252.433 200.829 252.591 200.448C252.748 200.067 252.829 199.658 252.829 199.246V193.537C252.828 193.319 252.87 193.102 252.953 192.901C253.036 192.699 253.157 192.515 253.311 192.361C253.464 192.206 253.647 192.083 253.848 192C254.049 191.916 254.264 191.873 254.481 191.873H258.239C259.791 188.7 260.609 185.216 260.631 181.681C260.654 178.146 259.88 174.652 258.368 171.46C256.856 168.267 254.645 165.458 251.899 163.242C249.154 161.026 245.945 159.461 242.513 158.663C239.08 157.865 235.512 157.855 232.075 158.634C228.638 159.413 225.42 160.96 222.663 163.16C219.905 165.36 217.678 168.157 216.148 171.341C214.619 174.525 213.826 178.015 213.828 181.55L213.835 181.556Z" fill="white"/>
<path d="M260.114 184.084H214.35C212.271 184.084 210.586 185.775 210.586 187.86V188.129C210.586 190.214 212.271 191.905 214.35 191.905H260.114C262.193 191.905 263.878 190.214 263.878 188.129V187.86C263.878 185.775 262.193 184.084 260.114 184.084Z" fill="white"/>
</g>
<path opacity="0.2" d="M235.177 176.68C240.014 171.71 241.085 164.891 237.57 161.449C234.055 158.007 227.285 159.246 222.449 164.216C217.612 169.186 216.541 176.005 220.055 179.447C223.57 182.889 230.34 181.65 235.177 176.68Z" fill="white"/>
<g opacity="0.3">
<path d="M228.709 171.604C232.977 171.252 237.386 163.348 234.317 161.006C231.803 159.086 228.084 160.455 226.259 161.959C224.434 163.463 222.91 166.369 223.962 168.622C224.409 169.504 225.087 170.248 225.923 170.773C226.759 171.299 227.722 171.586 228.709 171.604Z" fill="white"/>
<path d="M222.386 173.818C223.783 173.594 224.3 170.926 223.298 169.844C222.296 168.762 220.229 169.562 219.929 170.644C219.63 171.726 221.129 174.023 222.386 173.818Z" fill="white"/>
<path d="M216.62 186.03C216.199 184.679 213.494 184.545 212.569 185.69C211.644 186.836 212.722 188.775 213.845 188.89C214.967 189.006 216.996 187.252 216.62 186.03Z" fill="white"/>
<path d="M234.427 193.076C233.368 193.716 233.789 196.026 234.969 196.577C236.15 197.127 237.521 195.815 237.426 194.849C237.33 193.882 235.378 192.506 234.427 193.076Z" fill="white"/>
<path d="M224.658 202.158C223.459 202.881 223.963 205.524 225.296 206.151C226.63 206.779 228.225 205.281 228.104 204.18C227.982 203.079 225.749 201.511 224.658 202.158Z" fill="white"/>
</g>
<path d="M151.855 80.9926L152.57 80.2438L155.218 77.479L155.511 77.1718L161.183 71.239L161.477 70.9318L162.236 70.1446L162.95 69.3958L167.142 65.0182C167.238 64.9158 167.333 64.8134 167.435 64.7174C169.069 63.0086 170.779 61.223 172.539 59.3862C172.718 59.1878 172.903 59.0022 173.088 58.8038L173.146 58.7462L173.375 58.503L179.028 52.615L179.315 52.3142L182.556 48.935C182.728 48.7494 182.907 48.5702 183.079 48.391L184.993 46.4326L185.274 46.1382L190.92 40.2694L191.195 39.9814L192.247 38.887C192.413 38.7206 192.573 38.5478 192.732 38.3814L196.809 34.1254L197.077 33.8374L201.543 29.2166L202.002 28.743L202.717 28.0134C202.806 27.9174 202.895 27.8278 202.978 27.7318L208.625 21.9654C208.714 21.8822 208.797 21.7926 208.88 21.703L210.628 19.9302L211.068 19.495C212.242 18.311 212.982 17.6134 213.103 17.5238C213.607 17.1918 214.149 16.9231 214.718 16.7238L215.011 16.6342C215.437 16.4777 215.894 16.4233 216.345 16.4756C216.796 16.5278 217.228 16.6851 217.608 16.935C218.042 17.2125 218.384 17.6135 218.59 18.087C218.629 18.1766 218.673 18.2726 218.711 18.375C218.996 19.3311 219.035 20.3435 218.826 21.319C218.788 21.543 218.188 23.0854 217.168 25.6006L217.034 25.927L216.976 26.0742L216.734 26.663C215.974 28.5318 215.03 30.8102 213.952 33.4086L213.818 33.7414L211.942 38.2214C211.853 38.4262 211.77 38.6374 211.681 38.8614L211.043 40.4486L210.717 41.223C210.673 41.3382 210.622 41.4534 210.571 41.575C210.073 42.7739 209.56 44.0006 209.033 45.255L208.956 45.4406C208.459 46.6246 207.948 47.8342 207.438 49.063L207.285 49.4214L206.679 50.7654C206.589 50.983 206.494 51.207 206.398 51.4054L204.108 56.8646L203.955 57.2358C203.042 59.3926 202.123 61.575 201.211 63.7446C201.109 63.9942 201.001 64.2374 200.899 64.487C200.86 64.5702 200.828 64.6598 200.784 64.7494C200.739 64.839 200.688 64.9926 200.631 65.1142C199.565 67.6742 198.5 70.1702 197.441 72.6342L197.287 73.0118L195.533 77.159C195.405 77.4598 195.284 77.7542 195.157 78.0422C194.806 78.8934 194.455 79.7254 194.104 80.5446L193.944 80.9286L190.754 88.4678L190.588 88.8582C190.295 89.543 190.014 90.215 189.734 90.8678L189.319 91.8662L187.405 96.4038C187.347 96.5382 187.296 96.6662 187.239 96.7942L184.732 102.721L151.855 80.9926Z" fill="#FFD780"/>
<path opacity="0.2" d="M151.855 80.9926L152.57 80.2438L155.218 77.479L155.511 77.1718L161.183 71.239L161.477 70.9318L162.236 70.1446L162.95 69.3958L167.142 65.0182C167.238 64.9158 167.333 64.8134 167.435 64.7174C169.069 63.0086 170.779 61.223 172.539 59.3862C172.718 59.1878 172.903 59.0022 173.088 58.8038L173.146 58.7462L173.375 58.503L179.028 52.615L179.315 52.3142L182.556 48.935C182.728 48.7494 182.907 48.5702 183.079 48.391L184.993 46.4326L185.274 46.1382L190.92 40.2694L191.195 39.9814L192.247 38.887C192.413 38.7206 192.573 38.5478 192.732 38.3814L196.809 34.1254L197.077 33.8374L201.543 29.2166L202.002 28.743L202.717 28.0134C202.806 27.9174 202.895 27.8278 202.978 27.7318L208.625 21.9654C208.714 21.8822 208.797 21.7926 208.88 21.703L210.628 19.9302L211.068 19.495C212.242 18.311 212.982 17.6134 213.103 17.5238C213.607 17.1918 214.149 16.9231 214.718 16.7238L215.011 16.6342C215.437 16.4777 215.894 16.4233 216.345 16.4756C216.796 16.5278 217.228 16.6851 217.608 16.935C218.042 17.2125 218.384 17.6135 218.59 18.087C218.629 18.1766 218.673 18.2726 218.711 18.375C218.996 19.3311 219.035 20.3435 218.826 21.319C218.788 21.543 218.188 23.0854 217.168 25.6006L217.034 25.927L216.976 26.0742L216.734 26.663C215.974 28.5318 215.03 30.8102 213.952 33.4086L213.818 33.7414L211.942 38.2214C211.853 38.4262 211.77 38.6374 211.681 38.8614L211.043 40.4486L210.717 41.223C210.673 41.3382 210.622 41.4534 210.571 41.575C210.073 42.7739 209.56 44.0006 209.033 45.255L208.956 45.4406C208.459 46.6246 207.948 47.8342 207.438 49.063L207.285 49.4214L206.679 50.7654C206.589 50.983 206.494 51.207 206.398 51.4054L204.108 56.8646L203.955 57.2358C203.042 59.3926 202.123 61.575 201.211 63.7446C201.109 63.9942 201.001 64.2374 200.899 64.487C200.86 64.5702 200.828 64.6598 200.784 64.7494C200.739 64.839 200.688 64.9926 200.631 65.1142C199.565 67.6742 198.5 70.1702 197.441 72.6342L197.287 73.0118L195.533 77.159C195.405 77.4598 195.284 77.7542 195.157 78.0422C194.806 78.8934 194.455 79.7254 194.104 80.5446L193.944 80.9286L190.754 88.4678L190.588 88.8582C190.295 89.543 190.014 90.215 189.734 90.8678L189.319 91.8662L187.405 96.4038C187.347 96.5382 187.296 96.6662 187.239 96.7942L184.732 102.721L151.855 80.9926Z" fill="black"/>
<path opacity="0.1" d="M218.828 21.2871C218.789 21.5111 218.19 23.0535 217.169 25.5687L217.035 25.8951L216.978 26.0423L216.735 26.6311C215.976 28.4999 215.032 30.7783 213.953 33.3767L213.819 33.7095L211.944 38.1895C211.854 38.3943 211.771 38.6055 211.682 38.8295L211.044 40.4167L210.719 41.1911C210.674 41.3063 210.623 41.4215 210.572 41.5431C210.074 42.742 209.562 43.9687 209.034 45.2231L208.958 45.4087C208.46 46.5927 207.95 47.8023 207.439 49.0311L207.286 49.3895L206.68 50.7655C206.591 50.9831 206.495 51.2071 206.4 51.4055L204.109 56.8647L203.956 57.2359C203.044 59.3927 202.125 61.5751 201.213 63.7447C201.111 63.9943 201.002 64.2375 200.9 64.4871C200.862 64.5703 200.83 64.6599 200.785 64.7495C200.74 64.8391 200.689 64.9927 200.632 65.1143C199.567 67.6743 198.501 70.1703 197.442 72.6343L197.289 73.0119L195.534 77.1591C195.407 77.4599 195.286 77.7543 195.158 78.0423C194.807 78.8935 194.456 79.7255 194.105 80.5447L193.946 80.9287L190.756 88.4679L190.59 88.8583C190.296 89.5431 190.016 90.2151 189.735 90.8679L189.32 91.8663L187.406 96.4039C187.349 96.5383 187.298 96.6663 187.24 96.7943C185.722 100.385 184.79 102.554 184.739 102.714L151.863 80.9543C152.444 81.1079 176.28 87.6295 181.396 83.9495C186.513 80.2695 214.572 26.8167 215.848 23.3031C217.124 19.7895 217.609 16.8583 214.719 16.6535L215.013 16.5639C215.439 16.4073 215.896 16.353 216.346 16.4053C216.797 16.4575 217.23 16.6148 217.609 16.8647C218.045 17.1403 218.388 17.542 218.592 18.0167C218.63 18.1063 218.675 18.2023 218.713 18.3047C219.004 19.2728 219.043 20.2993 218.828 21.2871Z" fill="black"/>
<g opacity="0.2">
<path d="M178.703 98.7652C180.183 98.3386 181.672 97.9268 183.169 97.53L183.628 97.4148C184.904 97.0756 186.149 96.7748 187.425 96.4548C187.367 96.5892 187.316 96.7172 187.259 96.8452C186.047 97.1396 184.839 97.4468 183.635 97.7668L183.182 97.8884C181.817 98.2511 180.451 98.6287 179.086 99.0212L178.703 98.7652Z" fill="black"/>
<path d="M171.5 93.9909C173.178 93.4405 174.869 92.9029 176.559 92.3781L176.974 92.2565C178.939 91.6165 180.911 91.0661 182.888 90.5221L183.322 90.4005C185.281 89.8629 187.246 89.3509 189.224 88.8773L189.67 88.7685L190.78 88.5061L190.614 88.8965C190.302 88.9605 189.976 89.0373 189.683 89.1141L189.236 89.2229C187.265 89.7029 185.294 90.2149 183.335 90.7589L182.907 90.8741C180.93 91.4245 178.958 92.0069 176.987 92.6085L176.578 92.7365L174.754 93.3061C173.79 93.6133 172.84 93.9461 171.876 94.2405L171.5 93.9909Z" fill="black"/>
<path d="M164.621 89.4409C166.344 88.8009 168.073 88.2057 169.808 87.6169L170.165 87.4953C172.169 86.8041 174.178 86.1385 176.194 85.4985C176.316 85.4537 176.443 85.4153 176.564 85.3833C178.555 84.7433 180.558 84.1417 182.562 83.5593L182.951 83.4505C184.937 82.883 186.928 82.3411 188.923 81.8249L189.331 81.7225C190.926 81.3193 192.521 80.9353 194.122 80.5833L193.963 80.9673C192.419 81.3129 190.881 81.6841 189.35 82.0809C189.21 82.0809 189.076 82.1449 188.942 82.1833C186.945 82.6889 184.954 83.2329 182.976 83.8025L182.581 83.9177C180.594 84.4851 178.619 85.0846 176.654 85.7161H176.59L176.214 85.8377C174.197 86.4819 172.192 87.1518 170.197 87.8473L169.84 87.9689C168.232 88.5278 166.629 89.1017 165.029 89.6905L164.621 89.4409Z" fill="black"/>
<path d="M157.949 85.0248L162.792 83.2136L162.951 83.156L163.13 83.092C165.167 82.3368 167.209 81.5986 169.255 80.8776L169.586 80.7624C171.615 80.0456 173.65 79.3522 175.692 78.6824L176.03 78.5672C178.053 77.9272 180.081 77.2872 182.123 76.6472L182.474 76.5384C184.482 75.9325 186.502 75.3586 188.535 74.8168L188.899 74.7208C190.902 74.1896 192.912 73.684 194.934 73.2232L195.323 73.1336C196.031 72.9672 196.746 72.8072 197.461 72.6536L197.307 73.0312L195.342 73.4728L194.953 73.5624C192.937 74.0274 190.927 74.5309 188.924 75.0728L188.554 75.1688C186.525 75.7064 184.509 76.2888 182.499 76.8904L182.149 76.9928C180.943 77.3576 179.75 77.7224 178.557 78.1L176.068 78.9128C175.947 78.9128 175.839 78.9896 175.724 79.028C173.682 79.6978 171.649 80.3997 169.625 81.1336L169.286 81.2488C167.245 81.9826 165.208 82.7336 163.174 83.5016L162.836 83.6296C161.356 84.18 159.882 84.7496 158.409 85.3128L157.949 85.0248Z" fill="black"/>
<path d="M151.855 80.9927L152.57 80.2439L155.46 79.1111L155.792 78.9895C157.851 78.1916 159.918 77.4066 161.993 76.6343L162.325 76.5063L164.877 75.5655L168.533 74.2279L168.865 74.1127C170.919 73.3746 172.978 72.6556 175.04 71.9559L175.372 71.8407C177.422 71.1495 179.477 70.4818 181.535 69.8375L181.867 69.7351C183.909 69.1036 185.959 68.4978 188.017 67.9175L188.355 67.8215C190.393 67.2498 192.437 66.7164 194.487 66.2215C194.599 66.1822 194.714 66.1502 194.831 66.1255C196.509 65.7095 198.206 65.3255 199.903 64.9671L200.803 64.7815C200.752 64.9031 200.707 65.0247 200.65 65.1463C198.736 65.5559 196.783 65.9911 194.863 66.4711L194.506 66.5543C192.46 67.0578 190.418 67.5932 188.381 68.1607L188.043 68.2631C185.988 68.8327 183.94 69.4471 181.899 70.0807L181.567 70.1831L180.476 70.5223C178.779 71.0663 177.088 71.6231 175.41 72.2055L175.072 72.3143C173.009 73.0226 170.955 73.7543 168.909 74.5095L168.577 74.6311C166.51 75.3799 164.456 76.1607 162.402 76.9415L162.07 77.0695C160.003 77.8588 157.938 78.6524 155.875 79.4503L155.549 79.5719C154.331 80.0519 153.106 80.5191 151.881 80.9927H151.855Z" fill="black"/>
<path d="M162.234 70.1447L162.949 69.3959C164.225 68.9159 165.501 68.4423 166.777 67.9751L167.606 67.6679L167.932 67.5527C170.007 66.7847 172.087 66.0381 174.171 65.3127C174.28 65.2679 174.388 65.2359 174.503 65.1975C176.577 64.4807 178.65 63.7767 180.736 63.1047L181.068 62.9959C183.129 62.3559 185.209 61.7159 187.289 61.0759L187.62 60.9735C189.679 60.3719 191.75 59.8002 193.835 59.2583L194.166 59.1751C196.221 58.6418 198.288 58.1447 200.368 57.6839L200.706 57.6135L201.81 57.3703C202.581 57.2039 203.353 57.0503 204.132 56.8967L203.979 57.2679C202.894 57.4855 201.816 57.7095 200.738 57.9527L200.393 58.0231C198.326 58.4882 196.263 58.9874 194.205 59.5207L193.873 59.6103C191.793 60.1479 189.724 60.7197 187.665 61.3255L187.333 61.4215C185.674 61.9079 184.028 62.4135 182.382 62.9383L181.106 63.3415L180.775 63.4503C178.691 64.1287 176.617 64.8349 174.554 65.5687L174.222 65.6839C172.134 66.4263 170.056 67.1858 167.989 67.9623L167.664 68.0839C165.833 68.7623 164.034 69.4471 162.234 70.1447Z" fill="black"/>
<path d="M173.093 58.804C173.093 58.804 173.093 58.804 173.093 58.7656H173.157L173.418 58.676C175.511 57.9208 177.612 57.1912 179.722 56.4872L180.047 56.3784C182.14 55.683 184.241 55.0088 186.351 54.356L186.676 54.26C188.764 53.6115 190.861 53.0014 192.967 52.4296L193.305 52.34C195.385 51.7683 197.477 51.2328 199.583 50.7336C199.692 50.702 199.803 50.6763 199.915 50.6568C201.191 50.3582 202.45 50.0744 203.692 49.8056C204.515 49.6328 205.344 49.46 206.173 49.3L206.512 49.236L207.417 49.0632L207.264 49.4216L206.55 49.5624L206.212 49.6264C204.119 50.0424 202.026 50.5032 199.959 50.996L199.621 51.0728C197.52 51.5763 195.429 52.1118 193.35 52.6792L193.011 52.7752C190.915 53.3512 188.822 53.9592 186.734 54.5992L186.402 54.7016L184.264 55.3416C182.874 55.7683 181.487 56.2227 180.105 56.7048L179.779 56.8136C177.674 57.5304 175.575 58.2707 173.482 59.0344L173.157 59.1496L172.551 59.38C172.723 59.188 172.908 59.0024 173.093 58.804Z" fill="black"/>
<path d="M182.562 48.935C182.735 48.7494 182.913 48.5702 183.086 48.391C183.794 48.1542 184.502 47.9238 185.217 47.6998L185.529 47.5974C187.656 46.919 189.783 46.279 191.909 45.6774L192.235 45.5814C194.361 44.9756 196.488 44.4017 198.615 43.8598L198.946 43.7702C201.052 43.239 203.176 42.7398 205.294 42.2854L205.601 42.2214H205.639C207.323 41.863 209.014 41.5302 210.705 41.2358C210.66 41.351 210.609 41.4662 210.558 41.5878C208.929 41.8822 207.304 42.2044 205.684 42.5542L205.345 42.6246C203.219 43.0854 201.103 43.5825 198.997 44.1158L198.672 44.199C196.545 44.7452 194.419 45.3212 192.292 45.927L191.96 46.023C190.046 46.5862 188.081 47.1814 186.154 47.7894L185.593 47.975L185.274 48.0774C184.368 48.3334 183.462 48.6278 182.562 48.935Z" fill="black"/>
<path d="M192.223 38.887C192.389 38.7206 192.548 38.5478 192.708 38.3814C194.271 37.9206 195.834 37.479 197.41 37.0502L197.735 36.967C199.862 36.3867 202.01 35.8448 204.179 35.3414L204.511 35.2646C205.499 35.0342 206.495 34.8166 207.49 34.6246C208.643 34.3814 209.797 34.151 210.954 33.9334L211.286 33.8694C212.173 33.6966 213.066 33.543 213.953 33.3958L213.819 33.7286C212.99 33.8758 212.167 34.023 211.337 34.183L210.999 34.247C208.851 34.6736 206.707 35.1323 204.568 35.623C204.456 35.6424 204.345 35.6681 204.236 35.6998C202.08 36.1862 199.934 36.728 197.799 37.3254L197.48 37.4086C195.719 37.8694 193.964 38.3622 192.223 38.887Z" fill="black"/>
<path d="M201.543 29.223L202.002 28.7494L202.838 28.5382C202.938 28.5059 203.041 28.4802 203.144 28.4614C205.22 27.9451 207.302 27.463 209.39 27.015L209.703 26.951L210.028 26.8806C212.206 26.4241 214.386 26.0187 216.568 25.6646L216.9 25.6134L217.168 25.5686L217.034 25.895H216.951C216.839 25.9031 216.728 25.9203 216.619 25.9462C214.437 26.3131 212.261 26.727 210.092 27.1878L209.76 27.2582C207.574 27.7275 205.392 28.2331 203.215 28.775L202.902 28.8518L201.543 29.223Z" fill="black"/>
<path d="M210.629 19.9045L211.069 19.4693L211.292 19.4181C212.568 19.1493 213.844 18.8869 215.165 18.6501L215.471 18.5925C216.511 18.4005 217.551 18.2149 218.591 18.0549C218.629 18.1445 218.674 18.2405 218.712 18.3429C217.653 18.5157 216.601 18.7077 215.522 18.9061C215.42 18.9061 215.318 18.9381 215.216 18.9637C213.691 19.2581 212.16 19.5717 210.629 19.9045Z" fill="black"/>
<path d="M155.219 77.4788L155.512 77.1716C155.608 77.7796 155.704 78.3812 155.793 78.9892C155.793 79.1492 155.838 79.3028 155.857 79.4564C156.086 80.986 156.291 82.522 156.495 84.058L156.118 83.8084C155.94 82.3919 155.748 80.9818 155.544 79.578C155.544 79.4244 155.499 79.2708 155.474 79.1108C155.385 78.5732 155.276 78.0292 155.219 77.4788Z" fill="black"/>
<path d="M161.184 71.2454L161.477 70.9382C161.792 72.7942 162.075 74.6524 162.326 76.5126C162.326 76.6598 162.37 76.807 162.383 76.9542C162.664 78.9937 162.913 81.0417 163.129 83.0982C163.129 83.239 163.161 83.3862 163.174 83.527C163.366 85.2934 163.531 87.0598 163.685 88.8326L163.308 88.5766C163.225 87.5718 163.129 86.5606 163.034 85.5558C162.97 84.9158 162.906 84.2758 162.836 83.6358C162.836 83.4886 162.836 83.3478 162.791 83.2006C162.574 81.1526 162.328 79.1068 162.051 77.063C162.051 76.9158 162.013 76.7622 161.994 76.6214C161.751 74.8294 161.477 73.031 161.184 71.2454Z" fill="black"/>
<path d="M167.141 65.0183C167.236 64.9159 167.332 64.8135 167.434 64.7175C167.606 65.6583 167.759 66.6375 167.906 67.5527C167.906 67.6871 167.951 67.8279 167.97 67.9687C168.298 70.0082 168.587 72.0562 168.838 74.1127C168.838 74.2471 168.876 74.3815 168.889 74.5159C169.152 76.5981 169.384 78.6802 169.584 80.7623L169.622 81.1527C169.827 83.2647 170.012 85.3767 170.165 87.4951C170.165 87.6167 170.165 87.7383 170.197 87.8663C170.337 89.6967 170.452 91.5335 170.56 93.3703L170.152 93.0951C170.063 91.3927 169.954 89.6903 169.839 87.9751C169.839 87.8471 169.839 87.7191 169.807 87.5975C169.661 85.4791 169.488 83.3671 169.284 81.2487C169.284 81.1207 169.284 80.9863 169.284 80.8583C169.284 80.8583 169.284 80.8135 169.284 80.7879C169.087 78.7335 168.857 76.6727 168.602 74.6183C168.602 74.4839 168.57 74.3495 168.551 74.2087C168.295 72.1607 168.008 70.1149 167.689 68.0711C167.689 67.9303 167.651 67.7895 167.625 67.6487C167.472 66.7783 167.311 65.9015 167.141 65.0183Z" fill="black"/>
<path d="M173.09 58.7654H173.154L173.383 58.5222C173.383 58.5734 173.383 58.6246 173.415 58.6758C173.447 58.727 173.46 58.9318 173.479 59.0598C173.849 61.1078 174.181 63.1558 174.481 65.2166L174.538 65.5942C174.844 67.6806 175.114 69.7691 175.348 71.8598C175.348 71.9814 175.38 72.1094 175.393 72.231C175.635 74.343 175.846 76.4678 176.031 78.5862L176.069 78.951C176.256 81.0844 176.422 83.2347 176.567 85.4022C176.567 85.5174 176.567 85.6326 176.567 85.7542C176.714 87.9238 176.835 90.0998 176.95 92.2758C176.95 92.3334 176.95 92.3974 176.95 92.4614C176.953 92.5168 176.953 92.5724 176.95 92.6278C177.039 94.3345 177.122 96.0625 177.199 97.8118L176.739 97.5046C176.675 95.9174 176.609 94.3345 176.541 92.7558V92.3974C176.446 90.2214 176.331 88.0518 176.197 85.8758V85.5174C176.063 83.3606 175.91 81.2102 175.725 79.0662C175.725 78.9446 175.725 78.823 175.693 78.7014C175.623 77.831 175.54 76.9606 175.45 76.0838C175.331 74.8337 175.199 73.5857 175.055 72.3398L175.017 71.975C174.774 69.8822 174.506 67.7894 174.206 65.7094C174.206 65.5878 174.174 65.4598 174.149 65.3318C173.855 63.2753 173.524 61.223 173.154 59.175L173.096 58.823C173.096 58.823 173.09 58.7782 173.09 58.7654Z" fill="black"/>
<path d="M179.035 52.615L179.322 52.3142C179.584 53.6646 179.826 55.0086 180.043 56.359C180.043 56.4806 180.088 56.6022 180.101 56.711C180.449 58.8017 180.764 60.8966 181.045 62.9958C181.066 63.1123 181.081 63.2298 181.09 63.3478C181.377 65.479 181.625 67.6038 181.842 69.7478C181.862 69.8643 181.875 69.9818 181.881 70.0998C182.104 72.2502 182.302 74.4134 182.474 76.5702C182.474 76.6854 182.474 76.807 182.474 76.9222C182.644 79.0982 182.795 81.2785 182.927 83.463C182.927 83.5782 182.927 83.6934 182.927 83.815C182.997 85.095 183.074 86.4134 183.138 87.7126L183.271 90.4134C183.271 90.535 183.271 90.6502 183.271 90.7718C183.38 92.9862 183.476 95.1942 183.559 97.415C183.559 97.5302 183.559 97.6454 183.559 97.767C183.614 99.2219 183.661 100.675 183.699 102.125L183.252 101.831C183.201 100.513 183.157 99.2006 183.106 97.8886C183.106 97.767 183.106 97.6518 183.106 97.5366C183.029 95.3222 182.94 93.1078 182.85 90.8934V90.5414C182.767 88.3334 182.665 86.1382 182.544 83.9366C182.544 83.815 182.544 83.6998 182.544 83.5782C182.429 81.3937 182.291 79.2113 182.129 77.031C182.129 76.9158 182.129 76.8006 182.129 76.6854C181.998 74.9062 181.844 73.127 181.67 71.3478L181.555 70.2086L181.517 69.8566C181.294 67.7254 181.051 65.6006 180.764 63.4566C180.755 63.3386 180.74 63.2211 180.719 63.1046C180.439 61.0054 180.133 58.9126 179.782 56.8198C179.782 56.7046 179.782 56.5894 179.724 56.4678C179.512 55.1835 179.282 53.8993 179.035 52.615Z" fill="black"/>
<path d="M184.969 46.4328L185.249 46.1384C185.249 46.2536 185.294 46.3688 185.32 46.484C185.396 46.8552 185.466 47.2264 185.53 47.5976C185.56 47.7115 185.583 47.8269 185.6 47.9432C186.002 50.036 186.353 52.1352 186.672 54.2408C186.697 54.3529 186.716 54.4661 186.73 54.58C187.055 56.7112 187.368 58.8424 187.597 60.98C187.597 61.1016 187.597 61.2168 187.642 61.332C187.91 63.4952 188.133 65.6584 188.331 67.8216C188.348 67.9362 188.359 68.0515 188.363 68.1672C188.573 70.356 188.746 72.5512 188.899 74.74C188.899 74.8552 188.899 74.9768 188.899 75.092C189.058 77.3 189.186 79.508 189.307 81.7224V82.0808C189.307 82.3688 189.307 82.6632 189.352 82.9576C189.448 84.8776 189.543 86.7976 189.626 88.7688C189.626 88.884 189.626 88.9992 189.626 89.1144L189.703 90.9064L189.288 91.9048C189.25 91.0088 189.218 90.1192 189.18 89.2232C189.18 89.108 189.18 88.9928 189.18 88.8776C189.097 86.644 189.007 84.3976 188.899 82.1832C188.899 82.068 188.899 81.9464 188.899 81.8248C188.797 79.6147 188.673 77.4024 188.529 75.188C188.535 75.0708 188.535 74.9533 188.529 74.836C188.388 72.6472 188.223 70.4584 188.018 68.2696C188.018 68.148 188.018 68.0328 187.986 67.9176C187.948 67.4696 187.904 67.0344 187.865 66.5864C187.695 64.8798 187.508 63.1603 187.304 61.428C187.304 61.3128 187.304 61.1976 187.259 61.0824C187.004 58.9448 186.71 56.8136 186.391 54.6824C186.391 54.5672 186.391 54.452 186.34 54.3368C186.015 52.2376 185.664 50.1384 185.275 48.0456C185.275 47.9304 185.23 47.8152 185.211 47.7C185.135 47.2776 185.058 46.8552 184.969 46.4328Z" fill="black"/>
<path d="M190.895 40.2692L191.169 39.9812C191.296 40.57 191.418 41.1524 191.533 41.7412C191.781 43.0212 192.017 44.3012 192.234 45.5812C192.234 45.6964 192.279 45.8052 192.298 45.9204C192.668 48.058 193 50.1956 193.3 52.3204C193.3 52.4356 193.3 52.5444 193.344 52.6596C193.642 54.8271 193.908 57.0009 194.142 59.1812C194.161 59.2956 194.174 59.411 194.18 59.5268C194.423 61.722 194.627 63.9236 194.818 66.1316C194.818 66.2468 194.818 66.362 194.818 66.4772C194.997 68.6959 195.156 70.9209 195.297 73.1524V73.4916C195.373 74.7247 195.443 75.9599 195.507 77.1972C195.38 77.498 195.258 77.7924 195.131 78.0804C195.067 76.5828 194.993 75.0895 194.908 73.6004V73.2612C194.784 71.034 194.635 68.8068 194.461 66.5796C194.461 66.4644 194.461 66.3492 194.461 66.2404C194.346 64.7812 194.219 63.322 194.078 61.8628L193.848 59.6356L193.81 59.2836C193.572 57.1076 193.304 54.938 193.006 52.7748C193.006 52.6596 193.006 52.5444 192.962 52.4292C192.668 50.2959 192.336 48.1625 191.966 46.0292C191.953 45.9152 191.934 45.802 191.909 45.69C191.596 43.8532 191.265 42.0612 190.895 40.2692Z" fill="black"/>
<path d="M196.809 34.1256L197.077 33.8376C197.306 34.8744 197.523 35.9176 197.715 36.9608V36.9928L197.772 37.3C198.193 39.4376 198.569 41.588 198.908 43.7384C198.93 43.8506 198.947 43.9638 198.959 44.0776C199.31 46.26 199.597 48.4424 199.884 50.6312C199.884 50.7464 199.916 50.8552 199.928 50.9704C200.201 53.1763 200.443 55.3907 200.656 57.6136C200.656 57.7224 200.656 57.8376 200.688 57.9528C200.879 59.8728 201.039 61.8312 201.185 63.7768C201.083 64.0264 200.975 64.2696 200.873 64.5192C200.72 62.356 200.554 60.1928 200.343 58.0232C200.349 57.9103 200.349 57.797 200.343 57.684L200.286 57.1016C200.088 55.0792 199.871 53.0632 199.616 51.0472L199.578 50.708C199.301 48.5192 198.995 46.3368 198.659 44.1608L198.601 43.828C198.261 41.6947 197.887 39.5464 197.478 37.3832C197.478 37.2744 197.427 37.1592 197.408 37.044C197.217 36.0776 197.019 35.1048 196.809 34.1256Z" fill="black"/>
<path d="M202.719 28.0196C202.808 27.9236 202.897 27.834 202.98 27.738C203.038 27.9812 203.095 28.2244 203.146 28.4612C203.146 28.57 203.197 28.6852 203.216 28.794C203.48 29.946 203.723 31.1023 203.944 32.2628C204.141 33.2612 204.333 34.266 204.512 35.2644C204.537 35.3764 204.556 35.4896 204.569 35.6036C204.965 37.7924 205.318 39.9876 205.628 42.1892C205.628 42.298 205.66 42.4132 205.673 42.522C205.992 44.7492 206.266 47.002 206.508 49.2164C206.508 49.3252 206.508 49.434 206.547 49.5428C206.598 49.9524 206.636 50.3684 206.681 50.7844C206.591 51.002 206.496 51.226 206.4 51.4244C206.343 50.7844 206.279 50.202 206.209 49.5876C206.209 49.4788 206.209 49.37 206.17 49.2612C205.928 47.0255 205.649 44.7962 205.335 42.5732C205.335 42.4644 205.335 42.3556 205.284 42.2404C204.977 40.0452 204.646 37.85 204.237 35.6612C204.224 35.5473 204.205 35.4341 204.18 35.322C203.797 33.1588 203.372 31.002 202.904 28.8516C202.904 28.7428 202.859 28.6276 202.84 28.5188C202.821 28.41 202.757 28.1924 202.719 28.0196Z" fill="black"/>
<path d="M208.625 21.9653C208.714 21.8821 208.797 21.7925 208.88 21.7029C209.295 23.4245 209.678 25.1653 210.029 26.9061C210.029 27.0085 210.073 27.1237 210.092 27.2325C210.112 27.3413 210.137 27.4373 210.156 27.5461C210.571 29.6517 210.947 31.7573 211.285 33.8757C211.285 33.9781 211.324 34.0805 211.337 34.1893C211.553 35.5397 211.751 36.8901 211.943 38.2405C211.853 38.4453 211.77 38.6565 211.681 38.8805C211.47 37.3381 211.247 35.8021 210.998 34.2661C210.998 34.1637 210.998 34.0613 210.954 33.9525C210.596 31.7381 210.201 29.5173 209.761 27.3157C209.761 27.2069 209.722 27.0981 209.703 26.9893C209.367 25.2869 209.008 23.6122 208.625 21.9653Z" fill="black"/>
<path d="M214.719 16.6982L215.012 16.6086C215.172 17.2486 215.325 17.9334 215.472 18.599C215.502 18.7018 215.526 18.8066 215.542 18.9126C215.835 20.1926 216.11 21.4833 216.365 22.7846C216.55 23.7254 216.728 24.6726 216.901 25.6198C216.901 25.7222 216.933 25.8182 216.952 25.9206C216.954 25.9633 216.954 26.006 216.952 26.0486L216.709 26.6374C216.677 26.4198 216.633 26.1958 216.594 25.9974C216.594 25.895 216.594 25.799 216.543 25.6966C216.118 23.4566 215.674 21.223 215.21 18.9958C215.21 18.8934 215.165 18.7846 215.14 18.6822C215.019 17.9974 214.872 17.3446 214.719 16.6982Z" fill="black"/>
</g>
<path opacity="0.2" d="M162.237 75.8472C163.513 79.1112 180.101 73.6072 184.618 69.044C189.135 64.4808 204.683 37.4152 200.045 36.1288C198.616 35.7384 193.946 38.4712 182.372 50.1256C170.997 61.588 160.897 72.5256 162.237 75.8472Z" fill="white"/>
<g opacity="0.3">
<path d="M175.056 72.615C179.956 72.2118 185.022 63.1366 181.494 60.455C178.61 58.2534 174.335 59.815 172.243 61.5494C170.15 63.2838 168.415 66.6118 169.601 69.2294C170.628 71.3734 173.257 72.7622 175.056 72.615Z" fill="white"/>
<path d="M166.991 75.9687C168.943 75.6551 169.664 71.9303 168.267 70.4135C166.87 68.8967 163.98 70.0167 163.558 71.5271C163.137 73.0375 165.236 76.2503 166.991 75.9687Z" fill="white"/>
</g>
<path d="M187.994 104.333C188.231 109.12 187.249 113.888 185.143 118.189H185.098V123.226C185.111 124.147 184.797 125.042 184.213 125.753C183.629 126.463 182.812 126.942 181.908 127.104C181.369 127.186 180.818 127.151 180.294 127C179.769 126.848 179.284 126.586 178.87 126.229C178.456 125.872 178.124 125.43 177.896 124.933C177.669 124.436 177.551 123.895 177.55 123.348V121.716C177.55 120.78 177.18 119.883 176.521 119.222C175.862 118.561 174.967 118.189 174.035 118.189H168.797C167.865 118.189 166.971 118.561 166.311 119.222C165.652 119.883 165.282 120.78 165.282 121.716V125.511C165.295 126.432 164.981 127.327 164.397 128.038C163.812 128.748 162.995 129.227 162.092 129.389C161.551 129.478 160.997 129.447 160.469 129.299C159.941 129.151 159.451 128.889 159.034 128.532C158.617 128.175 158.283 127.732 158.054 127.232C157.825 126.732 157.707 126.189 157.709 125.639V123.277C157.709 122.269 157.309 121.302 156.599 120.589C155.888 119.876 154.924 119.476 153.919 119.476C152.914 119.476 151.95 119.876 151.239 120.589C150.528 121.302 150.129 122.269 150.129 123.277V139.725C150.142 140.639 149.834 141.527 149.259 142.236C148.684 142.944 147.878 143.426 146.984 143.597C146.44 143.691 145.883 143.664 145.35 143.518C144.818 143.372 144.324 143.112 143.903 142.754C143.482 142.397 143.143 141.952 142.912 141.449C142.68 140.947 142.561 140.4 142.562 139.847V121.716C142.562 120.78 142.192 119.883 141.533 119.222C140.874 118.561 139.979 118.189 139.047 118.189H134.371C132.524 114.407 131.54 110.259 131.49 106.047C131.441 101.836 132.326 97.6656 134.083 93.8401C135.84 90.0146 138.424 86.6295 141.647 83.9305C144.871 81.2315 148.653 79.2863 152.719 78.2361C156.785 77.1859 161.034 77.0571 165.156 77.859C169.278 78.661 173.17 80.3735 176.55 82.8723C179.93 85.3711 182.713 88.5935 184.697 92.3056C186.681 96.0177 187.816 100.126 188.02 104.333H187.994Z" fill="#FFD780"/>
<g opacity="0.1">
<path d="M156.264 120.321C155.537 119.731 154.619 119.431 153.686 119.481C152.752 119.531 151.87 119.926 151.211 120.59C150.503 121.305 150.105 122.27 150.1 123.278V139.726C150.114 140.639 149.806 141.528 149.23 142.236C148.655 142.944 147.85 143.426 146.955 143.598C146.358 143.696 145.746 143.652 145.169 143.467C144.592 143.282 144.067 142.963 143.637 142.535C143.511 142.409 143.395 142.272 143.293 142.126C143.71 142.462 144.193 142.707 144.711 142.842C145.229 142.978 145.77 143.002 146.298 142.913C147.187 142.742 147.988 142.265 148.563 141.564C149.137 140.862 149.449 139.981 149.443 139.073V122.625C149.442 122.125 149.539 121.631 149.729 121.169C149.92 120.708 150.2 120.289 150.553 119.937C151.266 119.228 152.229 118.828 153.233 118.823C153.82 118.818 154.399 118.951 154.925 119.211C155.452 119.471 155.91 119.851 156.264 120.321Z" fill="black"/>
<path d="M176.174 118.945C175.556 118.455 174.792 118.189 174.005 118.189H168.767C167.834 118.189 166.94 118.561 166.281 119.222C165.622 119.884 165.251 120.781 165.251 121.716V125.511C165.264 126.432 164.95 127.327 164.366 128.038C163.782 128.748 162.965 129.227 162.061 129.389C161.47 129.482 160.865 129.434 160.296 129.249C159.726 129.065 159.208 128.749 158.782 128.327C158.655 128.201 158.54 128.064 158.438 127.917C158.851 128.247 159.328 128.487 159.839 128.622C160.349 128.758 160.882 128.786 161.404 128.705C162.308 128.542 163.125 128.063 163.709 127.353C164.293 126.643 164.607 125.747 164.594 124.826V121.031C164.596 120.095 164.968 119.198 165.628 118.537C166.288 117.876 167.183 117.505 168.116 117.505H173.354C173.904 117.504 174.446 117.635 174.936 117.885C175.426 118.135 175.851 118.498 176.174 118.945Z" fill="black"/>
<path d="M185.139 118.19H185.094V123.226C185.107 124.147 184.794 125.043 184.209 125.753C183.625 126.464 182.808 126.943 181.904 127.105C181.228 127.21 180.536 127.128 179.903 126.867C179.27 126.607 178.72 126.178 178.312 125.626C178.72 125.956 179.191 126.197 179.697 126.334C180.202 126.47 180.73 126.5 181.247 126.42C182.151 126.258 182.968 125.779 183.552 125.068C184.136 124.358 184.45 123.463 184.437 122.542V117.505H184.482C186.985 112.389 187.89 106.635 187.078 100.995C186.267 95.3546 183.776 90.0918 179.933 85.8953C184.029 90.0737 186.731 95.4255 187.663 101.211C188.596 106.996 187.714 112.929 185.139 118.19Z" fill="black"/>
</g>
<path d="M188.451 108.692H131.095C130.477 108.691 129.864 108.812 129.292 109.049C128.721 109.287 128.201 109.634 127.764 110.073C127.327 110.512 126.98 111.033 126.743 111.606C126.507 112.18 126.386 112.794 126.387 113.415C126.387 114.668 126.883 115.869 127.766 116.755C128.649 117.64 129.846 118.138 131.095 118.138H188.451C189.7 118.138 190.898 117.64 191.781 116.755C192.664 115.869 193.16 114.668 193.16 113.415C193.161 112.794 193.039 112.18 192.803 111.606C192.567 111.033 192.22 110.512 191.783 110.073C191.345 109.634 190.826 109.287 190.254 109.049C189.683 108.812 189.07 108.691 188.451 108.692Z" fill="#FFD780"/>
<path opacity="0.2" d="M156.083 99.8098C161.631 94.1088 162.86 86.2868 158.828 82.3387C154.797 78.3907 147.031 79.8117 141.483 85.5127C135.935 91.2136 134.706 99.0357 138.737 102.984C142.769 106.932 150.535 105.511 156.083 99.8098Z" fill="white"/>
<g opacity="0.3">
<path d="M148.66 93.991C153.56 93.5942 158.613 84.5254 155.091 81.831C152.207 79.6358 147.946 81.191 145.853 82.9254C143.76 84.6598 142.025 87.9814 143.218 90.567C144.239 92.7494 146.867 94.1382 148.66 93.991Z" fill="white"/>
<path d="M141.405 96.5318C143.006 96.2758 143.6 93.2166 142.451 91.975C141.303 90.7334 138.936 91.6486 138.592 92.8902C138.247 94.1318 139.963 96.7622 141.405 96.5318Z" fill="white"/>
<path d="M132.698 110.733C132.22 109.178 129.113 109.025 128.054 110.337C126.995 111.649 128.226 113.882 129.496 114.042C130.765 114.202 133.126 112.135 132.698 110.733Z" fill="white"/>
<path d="M159.105 124.487C157.893 125.21 158.397 127.873 159.743 128.506C161.089 129.14 162.691 127.629 162.569 126.516C162.448 125.402 160.202 123.834 159.105 124.487Z" fill="white"/>
<path d="M144.136 137.562C142.752 138.388 143.332 141.402 144.844 142.145C146.356 142.887 148.207 141.146 148.034 139.879C147.862 138.612 145.38 136.814 144.136 137.562Z" fill="white"/>
</g>
<g opacity="0.1">
<path d="M134.645 108.692C148.508 108.263 162.461 108.263 176.325 108.692C162.461 109.121 148.508 109.121 134.645 108.692Z" fill="black"/>
<path d="M178.703 108.692C180.768 108.25 182.903 108.25 184.968 108.692C182.903 109.13 180.769 109.13 178.703 108.692Z" fill="black"/>
</g>
</svg>
